<?xml version="1.0" standalone="no"?>
<!DOCTYPE svg PUBLIC "-//W3C//DTD SVG 1.1//EN" "http://www.w3.org/Graphics/SVG/1.1/DTD/svg11.dtd" >
<svg xmlns="http://www.w3.org/2000/svg" xmlns:xlink="http://www.w3.org/1999/xlink" version="1.1">
<metadata></metadata>
<defs>
<font id="bradley_hand_itc_ttbold" horiz-adv-x="1705" >
<font-face units-per-em="2048" ascent="1638" descent="-410" />
<missing-glyph horiz-adv-x="522" />
<glyph horiz-adv-x="0" />
<glyph unicode="&#xd;" horiz-adv-x="522" />
<glyph unicode=" "  horiz-adv-x="522" />
<glyph unicode="&#x09;" horiz-adv-x="522" />
<glyph unicode="&#xa0;" horiz-adv-x="522" />
<glyph unicode="!" horiz-adv-x="638" d="M213 1026l8 96l60 -8l32 6l76 -22l10 -29q2 -12 2 -35q0 -12 -2 -18l-6 -12l-4 -7l17 -51l-7 -6l-6 -35h-10l-6 -22h6q4 -25 8 -37l-8 -19q4 -20 4 -28q0 -6 -4 -25l-4 -18l-6 -164l12 -21l-12 -51l12 -43l-10 -20q6 -20 6 -41l10 -35l-12 -6v-10q0 -18 -4 -27v-14 q-12 -55 -60 -56q-61 0 -61 80v39l-4 45l-12 41l10 23l-10 20l10 53l-21 9l13 47l-4 18v37l-5 10l5 23q0 10 8 30l-4 7v12l-19 20l23 31l-8 23l6 20v29q-2 16 -2 20q0 8 2 19v14q-4 12 -4 16l-7 9q0 8 9 12l-7 8v25zM221 78l17 51l30 29l8 2l21 20q31 -4 45 -10q33 0 47 -10 q-10 -6 -20 -10l45 -7l14 -26l18 -37l-6 -29q-4 -18 -4 -24l-53 -39l-35 10l-31 -14l-28 16h-43z" />
<glyph unicode="&#x22;" horiz-adv-x="665" d="M96 946l4 41l13 25l22 22l43 8q33 6 43 7q29 0 64 -43l4 -29l-15 -23q15 -12 15 -22q0 -8 -6 -25l4 -39l-8 -12l-3 -16l9 -29l-17 -43l-2 -27l4 -26l-18 -74l-59 -12l-54 30l6 56l-2 12q-12 18 -12 37q0 12 2 18l-2 11l2 14l-10 18l4 11l-4 20l-14 14l4 25l-9 20l5 7 l-7 12v4zM375 868l4 39q-4 8 -4 25q0 10 14 22l-14 23l2 29q8 14 31 30q16 12 34 13q6 0 41 -7l45 -8l21 -22l14 -25l2 -41l-6 -8l2 -4l-6 -12l2 -7l-6 -20l4 -25l-16 -14q0 -10 -2 -20l2 -11l-9 -18v-25q2 -6 2 -16q0 -20 -12 -39l-2 -12l4 -56l-51 -30l-59 12l-21 74l6 26 l-2 27l-18 43l8 29l-2 16z" />
<glyph unicode="#" horiz-adv-x="1290" d="M-18 340q29 18 49 18l41 13l41 6l43 -8l37 4l63 -8l43 6l8 14l2 14l-4 7l2 10h6v30q4 12 17 46l8 4l-2 41l22 8v8q0 16 11 33q-10 -2 -37 -11l-35 13l-41 -10l-33 10l-47 -4l-31 -15l-39 25l-32 18l-2 35q-4 12 -4 23q0 2 2 10v10q31 18 49 19l39 12l41 6l45 -10l35 4 l63 -8l49 8l35 -4l10 45l45 92l2 76l39 18l8 64l33 55q10 10 88 59l74 -65l-33 -88l-43 -92l-18 -33l-17 -55l-36 -80l10 -2h12q6 0 47 -4q16 6 39 6q18 0 29 -2l6 -6l88 8q0 16 4 49l45 92l2 76l37 18l10 64l33 55q27 25 88 59l74 -65l-33 -88l-43 -92l-18 -33l-17 -55 l-37 -82l13 -6h16l39 2l25 -9l16 4l24 -12v6q14 4 48 4q33 0 51 -4q18 6 31 6q37 0 63 -4l10 -55l-16 -43l-33 -22l-35 24h-16q-16 -4 -27 -4h-10l-20 -6l-15 8q-10 -2 -31 -2q-18 0 -26 2l-82 -12l-25 8q-27 0 -43 -2l-12 -31l-20 -26l-5 -72l-22 -23l-14 -49l-17 -10 q-2 -10 -10 -18q4 0 11 -2.5t12 -2.5q6 2 16 2q14 0 29 -8h18l39 4l22 -10l17 6l26 -14l-2 8q25 4 39 4q31 0 62 -6q25 6 49 6q14 0 43 -4l35 -86l-43 -12l-29 -23l-35 25h-18q-16 -4 -23 -4q-2 0 -6 2h-8l-18 -8l-17 8h-16q-10 -2 -15 -2q-6 0 -14 2h-12l-82 -12l-25 8 q-45 0 -94 -13l-12 -8l-4 -8l6 -10l-12 -19l-21 -16l-10 -37l-27 -63l-6 -43l-18 -33l-4 -57l-35 -54l-25 -75l-4 -48l-53 -84l-94 37l30 86l-2 39l17 31l4 33l12 6l2 29l10 32l35 90q8 45 14 64l21 20l2 37l18 43l-2 19q-20 -6 -32 -19l-2 17q-53 -8 -50 -9l-30 9l-60 -19 l-49 15l-4 -7l-12 -43l-23 -16l-10 -37l-27 -63l-8 -43l-14 -33l-6 -57l-35 -54l-25 -75l-4 -48l-53 -84l-94 37l30 86l-2 39l17 31l4 33l12 6l2 29l11 32l30 78l19 76l18 20l4 37l19 43l-29 13l-8 -2l-35 -9l-33 13l-47 -9l-31 -14l-37 25l-32 22l-2 35q-4 8 -4 41z M438 367l15 -9l22 7h23q39 0 63 -9q12 6 35 6h14q10 -2 17 -2l8 -4l33 2l18 27v35l4 -10v10q0 35 17 72l8 4l-2 41l22 8q0 29 6 41q-41 8 -59 8q-29 0 -66 -10l-28 6l-62 -17l-4 -10l-20 -26l-4 -72l-23 -23l-14 -49l-17 -10z" />
<glyph unicode="$" horiz-adv-x="1376" d="M-72 203q0 55 56 63l39 6l6 19l98 -10l33 6q53 0 53 -43q0 -16 -31 -39h15q31 0 47 -12l98 -15q29 8 47 8q27 14 57 15h80l-4 22l8 84l-10 115q6 8 17 20l-2 7l-27 -3l-23 9l-63 -15l-14 21l-64 20l-16 15l-47 12l-19 22l-33 25l-4 55l-12 49l14 56l27 35l41 8l-12 10 q23 18 36 31l39 10l64 25l41 4l43 14h20l4 16l-4 13q6 31 15 90l-19 41l23 39l-4 18v57l-11 50l2 32q6 8 27 19q-2 12 -2 30q0 61 64 62q18 0 47 -37l24 -41l-14 -20l-37 -23q14 -14 14 -98l-8 -23l6 -6l-6 -37l12 -20l-4 -51l-12 -15l4 -35l-10 -30l10 -2l21 20l51 -6 l29 10l32 -4l-4 21l8 32l-8 60l8 30v37l2 43l23 72l-12 23v22l4 33l-6 49l20 14l43 -6l29 -26h28l-8 -37l11 -27l4 -55l-17 -25l2 -33l-10 -12l18 -47q-10 -6 -26 -18l26 -70l-36 -35q6 -8 6 -12q-2 -8 -8 -12l71 14l88 10l41 -18h23l55 -13q16 -10 16 -24q57 -16 58 -57 q0 -14 -10 -31l2 12l-19 -29l-24 -12q-37 -18 -62 -18q-8 0 -45 8q-6 6 -18 20l-21 -10l-18 29l-35 -4l-29 2l-18 -17l-37 19l-2 -4q-4 -37 -4 -60q0 -25 2 -37q0 -37 -8 -75l14 -35l-14 -41l-2 -25l2 -8l8 -4l6 2q10 2 45 10l31 -34q2 8 10 20q2 0 4 2h2q10 0 17 -16l51 8 l6 -17h20l23 -14l29 6l28 -22l62 -8l8 -27l43 -51l14 -49l-12 -27l-27 -10l2 -31q-84 -57 -141 -57h-12q-31 -18 -51 -19h-29l-53 -30l-15 10l-26 -10q-39 0 -56 -15q14 -119 15 -115q0 -12 -5.5 -39.5t-5.5 -39.5q0 -16 21 -31l-14 -62l2 -12l-11 -20l11 -23l-6 -26l6 -27 l-11 -23l9 -12l4 -41v-43l-13 -8l21 -105l-33 -24l-33 27q-6 6 -10 6t-8 -6q0 -10 -8 190l-8 59l6 54q4 8 4 10v2q-2 2 -2 4q0 18 2 29h-17l7 53l-11 57l15 45l-13 17v14q-2 8 -2 12q0 6 2 15v12l-8 39l-4 2l-22 -12q-4 4 -7 4q-8 0 -20 -6l-35 -15q-10 -4 -24 -4 q-12 0 -19 2l-24 -8q2 -8 2 -23q0 -20 -11 -36l11 -37l-17 -86l8 -37l-8 -23l15 -22l-13 -64l13 -57l-13 -31l2 -4l11 -12l8 -41l-2 -23l12 -24q0 -12 2 -25v-12q0 -31 -29 -31q-20 0 -36.5 16.5t-16.5 40t-8 42.5l-14 32l-2 49l2 41v54l-11 30l-6 68l10 27q-4 8 -4 14 l-4 68l8 32l-10 43v17q-12 -4 -20 -4q-14 0 -29 8l-16 -8l-54 8l-28 -8l-43 -7l-82 11l-43 -4l-10 8q-20 0 -39 2l-37 -15l-23 27h-35l-32 19q-12 4 -37 18q-63 10 -64 76zM336 614l57 -4l10 -8q33 -8 52 -22l43 -11l30 9l-2 63l4 4l-8 14l13 70v4h-13q-37 -16 -59 -16 l-17 -15l-12 -10q-14 -8 -43 -22l-20 -13l-31 -34l8 -2zM614 233l2 -22l31 10l41 -2l27 14l18 5l37 2l10 4v6l-8 6l4 35l-8 37l16 26l2 37l-2 23l-43 -4l-6 6l-43 -2q-6 0 -43 8l-14 8l-14 -59l8 -47l-11 -62zM629 664l16 -99l-4 -12l31 -2l45 -6l16 -4l17 4l34 -17v17l2 51 l-2 43l7 78l-9 51l4 18h-34l-29 -6l-37 -14l-37 6l-8 -4l4 -35zM870 317q0 -2 3.5 -7t3.5 -9l2 -20l2 -7q31 6 26 7q4 2 43 8l15 -2q29 27 71 26h11q-1 0 73 27l-37 14h-36l-25 27h-55l-11 12l-34 -4l-39 17l8 -74q-20 -6 -21 -15z" />
<glyph unicode="%" horiz-adv-x="1454" d="M53 846q8 25 23 53l4 6v31q2 -2 8 -2q10 0 12 6q0 4 -12 16q16 47 16 80q2 8 7 39h4q0 -2 2 -2t6 2t6 2l2 -2q31 23 39 35q4 2 23 35q14 25 26 33l6 6q35 78 107 78q29 0 141 -54q10 -25 14 -41v4l27 13l66 -13h71l45 -12l52 10l47 7q70 35 90 34q0 -4 2 -6q6 0 16 29 l43 -8q12 4 27 12q8 12 20 23l-8 10q12 12 59.5 40.5t75.5 59.5q23 29 58 29q27 0 61 -23l41 -61l-20 -43q-8 -16 -19 -51l-49 -15l-59 -47l-54 -33l-24 -34q-16 -37 -45 -54l-15 -51h-22l-4 -10l-15 -10l-4 -13l-30 -39v-10q0 -23 -23 -45l-20 -20l8 -23l-35 -22v-21 l-37 -45v-22l-63 -68l-5 -27l-43 -61l-26 -68l-49 -77l-9 8l5 -39l-25 -23l-4 -28q-41 -74 -57 -131l-11 -7l-4 -18l-39 -92v-33l-26 -27l2 -18l-41 -86v-35l-15 -20l-4 -15l-8 -14l4 -21q-10 -29 -12 -47q16 -27 16 -57l-8 -25l6 -24l-8 -8l27 -56l-2 -18q10 -20 16 -39 l31 -25l10 -20l55 -23l11 3l28 -21l6 2l2 6l7 -2l18 8q25 -12 47 -12h17q10 2 18 2q4 -2 14 -2q18 0 33 12l66 13q16 -10 24 -13v-10l53 -26l-6 -33l-63 -39h-68l-14 -4l-47 -4q-51 -14 -86 -15l-131 31l-45 27l-60 28l-6 33l-37 35l-4 20l-18 15l-17 53l-16 22l4 89l-8 45 l8 16l-8 12q8 49 22 129q25 35 25 78q0 -8 31 76l47 96v8q-2 6 -2 9q0 20 14 49h4q2 -2 4 -2q12 0 13 28q0 23 -3 39l23 25l-4 14l39 60l24 51l9 4l36 67l33 74q12 12 24.5 20.5t12.5 10.5v2l21 70l16 22l2 25l43 45l20 69l15 15l10 6q12 4 29 43q23 53 53 90l-4 4l26 57 l-6 -4l4 8l-28 17q-6 -2 -19 -6q-25 -18 -47 -19q-16 0 -22 2q-31 -10 -62 -10l-47 8l33 -24l-6 -23q14 -25 14 -43q0 -10 -2 -16q8 -14 8 -35q0 -37 -24 -104l-45 -33l-31 -41l-19 -6l-14 -33l-69 -19l-21 -22l-192 -16l-54 16l-67 51l-19 29l-39 41l6 35q-10 35 -10 53z M203 803q18 -55 49 -55h6l74 2l30 -9q12 14 58 50h35q4 6 26 40q29 25 29 50v14l2 14l6 29l-10 39l-14 -16q-6 16 -29 36q-8 33 -23 39q-18 0 -51 23q-33 -6 -55 -6q-18 0 -35 8q-2 -10 -2 -27l-25 -10l-14 -27l-4 -34l-25 -33l-14 -25l10 -16l-24 -41l4 -21zM698 127l9 16 l-5 25q25 63 50 149l22 11v4q0 4 2 11t2 9v2q2 8 23 58q39 72 63 82v45l58 6l43 24h63l53 -16l64 -4l14 -35q4 -2 15 -4q31 -14 53 -53l49 -84l-2 -58q4 -8 4 -26q0 -25 -10 -43q6 -18 6 -35q0 -10 -14 -33v-4q0 -39 -48 -90l-16 -31q-20 -6 -25 -16q-16 -35 -51 -47 l-14 -15l-43 -22l-43 -31q-31 -23 -66 -22l-14 4l-41 -10l-80 8l-86 55l-24 88v45zM844 125q2 -43 6 -62q10 -39 37 -45q12 2 37 9q12 8 49 16l18 12l78 56q8 20 27 32q16 6 18 11v2q-2 0 -2 2q10 14 14 26l15 72v16l6 35l-14 55l-19 27l-24 12q-4 6 -13 15l-28 -4l-25 8 l-8 -33q-35 0 -51 19l-11 -48l-14 -10l-4 -24l-45 -43l-8 -43l-17 -13q-4 -29 -16 -59v-10q0 -14 -6 -31z" />
<glyph unicode="&#x26;" horiz-adv-x="1241" d="M-43 -121q29 4 66.5 23.5t54.5 23.5q61 0 72 -53v-6q0 -18 -33 -45h18l10 -27l41 -20l93 -29l8 -16l37 8l22 -17h37l23 -18h16l70 -25h10q49 0 94 -22l16 6q41 -2 84 -22l19 28q33 -23 53 -30l6 2l25 14h32q20 14 52 18l10 39l27 10v7l24 32l-2 29l19 23l-9 16 q31 25 31 51v4q8 18 8 33l-16 33l8 65l4 58l-4 24l-2 15l10 2l-4 4l-26 53l2 27h-5l-49 -37l-53 -2l-74 -13l-16 -16h-12q-68 0 -125 -27l-17 7l-39 -21l-12 18l-51 -12l-55 4l-15 4l-10 -6l-8 -16l-62 45l-28 -6q-35 0 -49 14q-25 10 -47 25q-47 12 -86 63t-39 86v10 l-15 21l6 20l-4 43q125 104 113 105q12 20 47 39l12 2q10 4 25 12l6 12l74 17q12 2 33 14l-11 10h-18l-62 29l-8 25q-20 27 -30 59l8 18l-13 13l-8 14v25l-4 34q20 41 39 60q6 27 39 39l12 35q119 63 154 65q23 16 59 21q18 6 70 26l72 17l14 8l94 4q14 0 31 2l-2 6h10 q23 0 39 -2l53 -29l64 -4l24 -28l41 -21l37 -43l55 -31l-10 -28l8 -33q-6 -49 -53 -64l-37 11h-55l-6 37l-41 4l-8 45l-15 16q-8 4 -20 12l-64 9l-41 -5l-37 5l-45 -7l-2 5l-6 -7l-33 4l-40 -12l-35 -2l-49 -22l-43 -29l-23 -4l-14 -19l-27 -12q-8 -27 -33 -35l-16 -16 l10 -43q-4 -14 -14 -25l76 -53l57 -10q27 0 57 -8l13 8l22 -4l23 10l22 -4l53 4q8 -4 23 -4q14 0 27 12q16 4 22 4q14 0 39 -18l22 -2l23 -19l55 -28q-37 -90 -94 -90h-78l-45 -9l-4 4q-27 0 -37 5l-73 -5q-20 -8 -41 -12l-11 -6h-39l-24 -12l-31 -6l-41 -29l-63 -12 l-99 -68q-4 -45 -20 -76l14 -35l17 -12l84 -12l6 -6q12 4 30 4t25.5 -5t20.5 -14q18 6 32 11h35l23 -15l26 15l27 -2l24 8l13 -6q39 16 65 16q4 0 37 -8q43 14 117 49l84 29l33 20l4 66l59 16l27 -10l20 10q2 0 6 2h4q18 0 45 -43l33 -72l-26 -43l14 -24l-8 -25l2 -30 l-2 -17l2 -24l-15 -37l41 -66l-28 -22l2 -39l-12 -15l4 -14l-7 -33q6 -23 7 -41q0 -29 -15 -55q-4 -33 -14 -57h-12l16 -25l-18 -29l-15 -12q-12 -39 -75 -115l-35 -28l-25 -17l-53 -18l-39 -20l-49 8q-4 0 -10 -2h-11.5h-9.5q-6 2 -10 2l-37 -21l-12 19l-13 -4l-38 16 l-17 -6l-33 16h-37l-63 12l-37 -2l-55 21l-29 22l-39 9l-76 20q-35 23 -83 23l-17 18l-37 10l-4 9l-33 4l-8 24l-47 17l-31 30l-34 23v39z" />
<glyph unicode="'" horiz-adv-x="442" d="M113 946l4 41l12 25l23 22l43 8q33 6 43 7q33 0 75 -56l-8 -32l8 -13l4 -39l-10 -32l-12 -21l-2 -16l8 -29l-18 -43v-27l4 -26l-19 -74l-59 -12l-53 30l4 56v12q-12 18 -13 37q0 12 3 18l-3 11l3 14l-11 18l4 11q0 4 -4 20l-14 14l2 25l-6 20l4 7l-6 12l2 4z" />
<glyph unicode="(" horiz-adv-x="856" d="M332 666l18 30l10 107h15l6 28l14 70l19 41l26 41l11 43l18 43l31 45l22 10q33 84 111 136l6 4l6 18l35 14l22 23l19 29l55 24q64 -2 64 -47q0 -41 -43 -72l-9 -10l-22 -18q-10 -29 -55 -47q-25 -2 -25 -84l-18 4q-37 -31 -56 -74q-10 -29 -24 -47v-21l-23 -34l-2 -33 l-26 -47v-21l-15 -51q-20 -74 -20 -139q0 -20 2 -29l6 -27l-10 -16l8 -16l-10 -21l8 -22l-8 -51l14 -50l16 -67l19 -101l10 -16l-2 -10q23 -18 23 -41v-6l-3 -6l13 -29l28 -31l21 -53q14 -14 16 -27l15 -30h39v-17q0 -72 73 -127v-35q0 -53 -73 -71l-39 -11l-50 17l-10 26 l-12 11l-55 75l-37 72l-43 60l6 20l-27 53v6l-16 9q-2 37 -31 86v2q0 6 -16 84l-12 22v29q-2 -4 -7 -21l-8 127v47l-12 52l6 14q-6 18 -6 27q0 -10 12 71z" />
<glyph unicode=")" horiz-adv-x="856" d="M72 -223q0 35 41 67l8 11l24 18q8 31 54 49q27 2 26 82l17 -4q35 27 57 74q8 29 23 47v20l22 35l2 33l27 47v20l16 52q20 96 21 145q0 16 -2 23l-9 26l11 17l-9 16l11 20l-6 23l8 51l-17 49l-35 168l-10 17l2 10q-23 18 -22 41q0 2 2 6v6l-10 29l-31 31l-21 53 q-14 10 -16 26l-12 33h-41v19q0 68 -74 123v34q0 53 74 72l41 10l49 -16l8 -27l12 -8l56 -76l39 -71l41 -60l-7 -22l27 -54l2 -6l14 -8q10 -51 31 -86v-4l16 -82l13 -22v-29q0 -10 6 20l10 -127v-47l10 -51l-6 -12q6 -18 6 -29q0 -8 -10 -74l17 -53l-19 -31l-10 -106h-14 l-5 -29l-16 -69l-16 -41l-29 -41l-10 -43l-19 -43l-30 -45l-21 -9q-33 -84 -113 -137l-6 -4l-4 -18l-37 -15l-20 -22l-21 -29l-55 -24q-37 2 -49 10t-12 41z" />
<glyph unicode="*" horiz-adv-x="1132" d="M70 952q0 8 8 25l24 39h43l21 6l65 -2l86 8l-49 10l-10 23l-57 24v33l-19 33l64 33l30 -6l35 -39q4 8 13 10l45 -31l67 -51q-2 12 -2 33q0 20 2 30q-6 16 -18 39l16 41q-6 25 -6 41q0 10 8 47q0 -2 -2 13q0 -4 2 8l4 12q12 6 27 6q12 0 31 -6h34l23 -26l29 -54l-15 -45 l4 -39l-8 -8v-10l-2 -16l6 -52q16 14 37 29l15 16l6 27q23 10 57 23h6q6 12 21 18q16 25 47 25q23 0 35 -11l16 -6l4 -2l21 -8v-10q0 -27 -15 -41l-8 -8q-6 -4 -18 -15l-74 -65q14 -4 47 -9l18 5h82l8 6h48l30 10l54 -16q18 -14 18 -33q0 -27 -35 -31l-102 -12l-70 -2 l-18 -8h-123l-23 -13h-47l78 -35l27 -16l24 -6l45 -29q43 -20 54.5 -24t56.5 -4l12 -21q37 -14 101 -47q26 -6 38 -20q-25 -45 -73 -48l-19 13l-35 6l-51 22l-51 17l-2 6l-33 6l-133 70l-43 16l-22 10l-29 4q0 -16 10 -47l-8 -16q2 -8 2 -21q0 -10 -2 -16q4 -29 4 -31v-8 q4 -6 8 -39v-47l10 -55q-8 -47 -53 -47q-57 0 -67 133q-6 88 -6 78v43q0 35 -5 57l-34 -25l-35 -20l-15 -18l-49 -37l-43 -43l-20 -4l-6 -9q-59 -80 -99 -80q-45 0 -45 50q0 25 35 57l8 6l6 19l70 38q14 18 35 27q6 16 31 41h4l6 2q12 4 26 25l23 12v10l47 23v16l-20 -4 q-51 -10 -113 -10l-61 -15l-31 7l-39 -11q-55 6 -55 41z" />
<glyph unicode="+" d="M254 541v139h528v541h142v-541h528v-139h-528v-541h-142v541h-528z" />
<glyph unicode="," horiz-adv-x="542" d="M-33 -231q0 18 8 45l7 20l6 8q6 33 41 49l2 7l20 28l8 29l11 14l22 11l4 8q2 12 17 20l12 8v21l18 4q0 23 13 47l20 16q0 6 4 19q0 4 2 10v10l13 17q29 37 75 37q33 0 76 -19l6 -8l39 -10l8 -74l-30 -47l-29 -14l-12 -17l-31 -26l-12 -17l-37 -22l-70 -70l-37 -16 q-14 -29 -39 -47l-8 -7l-14 -26l-29 -27q-35 -10 -51 -10q-6 0 -31 4q-2 8 -2 25z" />
<glyph unicode="-" horiz-adv-x="733" d="M53 422v41l27 2l20 27l52 -21l18 6q10 -2 29 -2h10l12 4v-8l21 -6l14 10l27 -4h43l94 4l4 -10l8 2l8 -6l27 8q16 -8 41 -8q16 0 35 6l32 -8h25q70 0 78 -39l-45 -33l-58 6l-26 -4l-55 -6l-70 4q-16 -4 -47 -4h-27l-49 -6l-14 4l-76 -8q-12 8 -21 8q-12 0 -28 -10l-35 6 h-39z" />
<glyph unicode="." horiz-adv-x="542" d="M145 43v57q0 33 50 54q16 14 47 34l34 -10l7 -6l6 6l12 -8h10q25 0 35 -16l14 -27l23 -29l-4 -28l4 -19l-14 -6v-14l-23 -17l-18 -24l-39 -2l-13 -2q-8 -4 -24 -4q-20 0 -43 12q-8 2 -20.5 9t-18.5 26l-16 12z" />
<glyph unicode="/" horiz-adv-x="884" d="M-51 -33l20 45l47 70q2 43 39 57l8 11v-7l19 25q6 37 39 53l14 49l25 17v6l41 47l12 33l12 8q4 6 9.5 15.5t7.5 13.5l8 12v31l35 65h14q14 20 33 37q10 16 28 41l7 37l32 8l17 18v23l24 37l33 29l14 24l35 21l2 26q2 29 43 66h8q6 0 7 2q-2 2 -15 22l56 56q8 18 20 30v17 l19 32v52q18 12 28 12q6 0 8 -2l2 35l9 2l2 43l100 10l29 -18l34 -11q17 -37 17 -57q0 -35 -25 -49l-10 -6q-27 -16 -82 -117l-57 -68l-10 -34l-29 -31l-25 -39q-10 -23 -37 -33q-8 -25 -10 -37q0 4 4 17l-55 -64l-31 -37l-10 -28l-41 -58l-78 -96v-59l-41 -6l-51 -60 l-10 -37l-25 -8l-35 -49v-27l-40 -39l-9 -14l-30 -35l-17 -30l-10 -5l2 -10l-25 -18l2 -10l-28 -52l-15 -12q-23 -47 -57 -47q-45 0 -57 55z" />
<glyph unicode="0" horiz-adv-x="1116" d="M27 199l12 49q-6 16 -6 31q0 23 14 36v13q0 23 -2 37l29 59l8 49l20 27l13 47l16 37q6 41 39 82l16 16l-4 8l21 33l2 45l39 12l16 25q25 4 25 35l53 53l10 -4l10 37h33l4 18h13v23h20q41 0 45 20l82 23l47 18h19l43 8l12 -6q20 8 31 8h8q43 -12 65 -59l27 -16l29 -25 l34 -10l35 -60l33 -20l14 -33q2 -6 17 -12q33 -27 32 -80l29 -31l-8 -16l6 -6q16 -121 16 -148q0 -18 -10 -35l15 -18l-19 -18l17 -21l-43 -45l-25 -61l-39 -33l-12 -25l-21 -16l-18 -27l-21 -6v-18l-43 -15l-24 -26l-33 -15l-18 -26h-23q-20 -6 -41 -11l-33 -30l-65 -23 l-45 -26l-37 -7l-27 -14l-63 -8l-23 -23l-65 11l-17 -6l-35 6l-20 -4l-33 14h-20q-27 0 -58 33q-37 16 -49 39l-8 12l-25 22l-28 68l4 14zM172 197q23 -31 25 -43q16 -29 32 -35l25 4q-4 0 10 2q18 0 39 -16q35 6 39 6h-2l10 -2l8 6l58 2l26 6l29 23l16 -3l21 31l33 -6 l16 16l23 -6q10 10 24 19q23 4 39 14q6 10 19 21v20q55 0 65 23l51 30q10 18 33 30.5t23 35.5q0 12 -3 18l35 15q6 10 15 22q-2 4 -2 12q0 18 24 58l-6 22l10 41l-6 19l2 28l-20 37l4 29l-13 14l-4 29l-12 26q-43 23 -57 64l-13 6l-22 16l-45 3l-33 40l-6 7q-25 -4 -37 -4 h-12l-19 -13l-28 -6l-13 -16l-55 -29l-37 -14l-32 -25l-43 -45l-29 -18l-21 -41l-45 -43l4 -27l-39 -33l3 -28l-31 -21q-8 -68 -41 -84q4 -8 4 -10q0 -10 -12 -21l2 -16l-11 -22l5 -37l-23 -15l23 -14l-17 -25l15 -24l-17 -23l2 -8z" />
<glyph unicode="1" horiz-adv-x="1075" d="M-10 713q29 55 63 55q16 0 41 -8l25 -21q20 18 43 19q16 18 98 28h10q18 0 38 15.5t30 17.5l-10 6l65 15l10 14l-20 20l66 31h24l8 -10q8 -2 11 -8q-4 12 -5 35q0 33 25 57l76 18h80q57 -53 57 -84q0 -20 -23 -39l-51 -40v-7q-2 -4 -2 -6t2 -6v-6l-8 -4l-14 4l4 -59 l-12 -9q-2 -8 -9 -18l-6 -6q-2 -2 -2 -6q0 -10 8 -19q-16 -31 -23 -71.5t-14 -51.5l9 -14l-23 -43l4 -27l-10 -43l8 -16l-12 -35q6 -20 6 -37q0 -8 -2 -14q6 -16 14 -47l-22 -10v-4q4 -10 4 -33t-4 -35l22 -14q-8 -12 -14 -37l-4 6l2 -39l12 18l35 -10l59 10l3 -10l88 25 l-17 -43q10 2 23 2q23 0 47 -10h6q51 10 74 10t71 -13l13 13q55 -25 55 -64q0 -33 -41 -51l-90 -2l-84 -16l-62 12l-28 4l10 10l-37 -16q-29 4 -45 4q-6 6 -10 27l-35 -31l-41 4q-8 0 -20 -2h-19q-20 0 -53 4l-53 -8l-4 10l-23 -4l-35 -2l-41 -21l-10 11q-14 -6 -35 -6h-14 l-6 8q-14 -6 -29 -6q-14 0 -31 6q-4 -2 -11 -5t-9 -3q-66 0 -82 32q-25 6 -37 15v34q-8 16 -8 25q0 35 31 43l59 14q8 2 18 2q23 0 37 -14q6 2 21 10l37 4l41 13l61 -4q41 -12 74 -19l4 6l-21 35l5 31q-6 16 -7 27q0 12 9 20q-8 35 -9 59q0 25 23 43l-4 39q6 6 6 11 q0 4 -16 16l-9 68l7 2l16 30l-14 39l24 27l8 43v10q0 23 11 41q-6 10 -7 21q0 2 2 8v8l-8 -4q-6 -4 -30 -8l-43 -17h-9q-23 -16 -51 -16h-10q-14 -16 -39 -41l-35 18l-20 -4q-35 -6 -74 -41q-23 27 -53 33l-62 21z" />
<glyph unicode="2" horiz-adv-x="1273" d="M-14 193q70 63 90 65l28 21l25 -5l12 9q53 8 60 8q-4 0 10 -2q31 6 53 6q27 0 35 -4l49 -19l53 -8l66 -26q18 10 43 12l-2 6q39 20 61 25h6l13 26l51 27l33 14q4 23 20 33l2 16q29 8 35 9q8 0 10 -3l23 25v16l16 -8l8 49l45 7q10 25 41 34l25 17l8 24q2 10 7.5 20.5 t5.5 12.5v2q0 25 12 35l-6 35l16 20v31l-31 47q-14 33 -98 64l-16 -3l-37 25h-37l-10 14l-13 -2l-39 11l-16 -5l-25 7l-47 -7l-8 7l-16 -11l-19 11q-25 -2 -43 -2q-20 -12 -43 -13l-32 -18l-45 -8l-7 -9l-22 -10l-8 4q-4 -4 -19 -22h-8v-15l-29 -4v-24l-49 -15 q-8 -6 -18 -16q0 -14 -25 -33l-80 -8l-37 35l-20 51v19q0 39 31 61q12 35 49 45l4 12h27l2 7l106 49l14 -2l11 6v4q49 27 104 26h12q8 -2 13 -2q47 29 96 29h18l62 -6l55 4l58 -12q14 -2 47 -10l12 -5h-4l26 -14q33 -4 58 -14q4 -6 16 -19l17 2l26 -28l55 -21l80 -82l13 -41 l32 -12l-10 -31q4 -25 4 -34v-11q-2 -8 -2 -10l12 -33l-14 -26l4 -23q-2 -25 -15 -45t-28 -39l-22 -37q-20 -33 -51 -47l-21 -45l-20 -6l-7 -10q-16 -27 -65 -41q-29 -23 -31 -39l-37 -25q-4 4 -12 4q-4 0 -12 -2t-15 -2q-2 0 -4 2h-6l-47 -37l10 -6q-2 -4 -43 -26 q-29 -12 -47 -19l74 -6l39 -18h39l8 -13l39 -2q4 -16 20 -16q6 0 19 4q4 -6 4 -18l-2 -2q0 2 22 -11l31 19l18 -10l43 -3l41 7l27 -15l51 -10l31 12h29q20 10 47 11q27 0 45 -9l20 -32l-10 -45l-31 -13l9 -2q-37 -27 -80 -33l-21 3q-23 -16 -45 -17q-10 0 -14 2q-4 0 -10 -2 h-11.5h-7.5q-4 2 -6 2l-21 6h-28l-35 15l-20 -13l-17 9l-33 -7q-12 12 -12 23q-8 -2 -22 -2q-25 0 -41 14h-9q-12 0 -24 6l-10 -4l-7 -2q-20 14 -71 37q-29 0 -68 16h-43l-6 15l-53 -4q-27 14 -27 16v4l-6 -12l-25 -8l-4 2q-20 -20 -55 -25h-4l-14 -18h-15q-23 0 -41 -6 l-2 -17l-49 -2q-18 -18 -39 -18q-12 0 -24 6l-23 -8l-55 2l-86 33l-29 26l-12 37q-2 12 -2 29v8q2 6 2 8l6 43zM104 137l17 -18l-4 -17l37 -10l57 6l61 11l45 20l41 29l-28 12l-64 14l-33 -6h-59l-39 -10z" />
<glyph unicode="3" horiz-adv-x="1234" d="M6 121q0 68 62 74q23 12 51 12h14l60 6q70 -23 69 -59q0 -16 -18 -33q12 0 26 -6l39 8q27 0 47 -19q33 10 74 11h39q23 14 33 14q14 0 30 -10q20 14 41 16l39 -22l4 6q16 2 46 8h24l39 27q37 -4 43 -4q12 0 47 20h21l6 10l45 35l28 -4q59 29 74 45q4 12 4 29q0 12 -32 18 l-37 27l-43 8l-62 -12l-16 20l-17 -4l-24 23l-8 -7q-31 6 -37 7q-25 -4 -39 -9q-8 4 -23 19l-10 -4q-31 -8 -72 -13l-14 15l-47 4l-39 16l-45 -2l-45 23l-37 30l-14 45l20 48l47 14q47 25 88 33l50 18l114 21l21 14h37l18 22q6 -2 14 -8q41 39 90 39q2 2 19 10l4 5 q18 14 53 32v13q-16 25 -114 45l-52 -4q-37 8 -55 8q-23 0 -45 -6h-23l-38 -11l-35 11l-17 -19l-79 -6l-50 -16q-18 -18 -39 -19q-12 0 -32 10q-4 -14 -11 -20h-12q-29 0 -59 -49q-14 0 -21 2l-14 -35l-78 35l-20 22l8 15l-15 -2q-12 18 -12 32q0 10 2 15l13 41l12 10 q16 16 41 16h6l16 21l33 -6q27 20 57 20h11q0 12 12 25h41l18 10l33 4l29 -22l-2 18h30l29 8q16 4 70 15l24 -3q37 10 86 11h27l-8 -6h10q16 0 31 -9l22 9l43 -5q14 0 41 3h37v-17l47 -16l58 -11l26 -38l39 -29l19 -45l-11 -45v-4q-4 -12 -22 -43q-27 -45 -80 -64l-16 -20 l-54 -25l-47 -8l-29 -21l-45 -12l-32 -14l-41 6l-49 -16l51 -17h55l29 2h22q31 0 47 -14q37 -12 86 -12q6 -6 15 -13q2 0 4 2q2 0 22 -4l47 -4l31 -22h25l49 -49l12 -50l29 -28l-8 -25l8 -29l-33 -34l-12 -37l-43 -21v-16l-37 -6l-23 -29q-35 -12 -106 -31q-27 -18 -66 -22 q-39 -20 -98 -33l-25 6l-90 -24l-45 2l-37 8q-16 -4 -28 -8l-53 -6l-33 4l-21 -6q-4 0 -26 8l-7 2q-8 -4 -22 -8q-16 0 -35 6l-18 -4q-12 0 -19 2q-4 -2 -12 -2q-14 0 -33 8l-35 -12l-22 22l-14 -8l-25 10q-18 -12 -33 -12q-16 0 -31 20q-57 8 -57 109z" />
<glyph unicode="4" horiz-adv-x="1286" d="M14 397q16 41 60 68l2 8l20 21l49 22l72 4v-10l45 33l33 -6l12 24l19 14l-4 21l53 14q10 23 28 41l5 2q14 20 24 29l8 4q10 6 13 14l20 21l14 27l23 10q14 35 22 41q6 16 25 35q-6 0 -6 4q0 8 16 24q4 4 39 25q-2 12 -2 37l37 22q25 82 64 82q8 0 43 -10l12 -25l10 -6 q8 -4 8 -20v-58l-24 -45l-6 -4l-7 -35l-24 -8l-8 -18q-2 -27 -70 -101q0 -37 -41 -57l-6 -4q-20 -27 -29 -35q-14 -23 -47 -37l-12 -8l-4 -14l-29 -17l-8 -8l10 -2l33 2l31 -12q23 -14 38 -14h7q94 -14 82 -15q12 0 26 6l31 -8l8 17v18l21 22q0 6 6 31l-6 43l16 4l-6 17 q20 18 20 26q0 2 -12 31q10 12 31 25l2 67l8 2l-2 10q12 18 20 27q-10 16 -10 35q0 10 2 16l15 23l-5 24l9 45l-2 29q20 57 79 57q43 -18 74 -69q8 -25 8 -64l-18 -22l2 -53l-6 -17l-6 -18l-15 -27l7 -37l-15 -8l-2 -18l-18 -37l4 -33l-23 -86l-41 -90l2 -8l11 -4l49 -17 l26 4q4 0 12.5 -1t12.5 -3l94 33l21 14l51 13q27 33 63 32h13l39 -34q-8 -66 -58 -86l-6 -27q-39 -33 -70 -33q-12 -16 -57 -22l-16 -9l-82 -18l-25 10l-28 4l-31 -6l-39 15v-5l-14 -16l2 -22l-5 -23l3 -14l-17 -33l10 -8l-10 -13l12 -38l-18 -21l10 -29l-12 -37 q8 -10 8 -24q0 -10 -8 -19l4 -20v-10q23 -33 47 -82l-24 -21q-23 -18 -54 -18q-33 0 -63 14l-4 49l-19 25v25l-26 22l10 19l-10 10l8 20l-8 39l-8 17l16 30l-6 23l12 53q-8 10 -8 27q0 10 6 22l4 17q4 16 4 28v13q-2 8 -2 12l-31 16q-57 0 -102 15h-51l-12 8l-39 -11l-25 19 l-43 -4l-16 12h-19q-27 -6 -45 -6q-55 -20 -57 -20.5t-23 -10.5l-6 -16l-22 -4q-18 -8 -52 -8h-18q-14 -8 -33 -9q-20 0 -37 9l-4 10l-14 4z" />
<glyph unicode="5" horiz-adv-x="1247" d="M-23 276q4 2 35 43q27 16 47 17q61 0 62 -78q0 -23 -2 -45l14 -23l10 -10l37 -12l17 -25l30 -4l37 -20h29l20 -13q33 -6 41 -12l68 -4l47 2l25 -4q43 14 49 14q4 0 28 -6q8 4 23 10h41l12 3l15 10q20 14 65 24l8 27h58q8 6 22 14q8 33 51 39l6 2q6 8 15 29l31 59l16 -4 q16 20 16 31q0 8 -12 33l16 8l-2 16l2 9l-6 8v32l-2 7l-63 32l-11 9q-14 6 -18 6l-29 -4l-16 8l-23 -10l-28 20l-15 -2l-61 8h-47l-19 6l-47 -14l-28 12l-6 2l-29 -10h-41l-74 -14l-18 8l-51 -14l-13 4l-10 -8l-18 -21l-56 -10l-49 24q-12 25 -12 35v2l6 21v59l16 12v27 l43 12q20 20 29 31q20 12 21 18q0 6 -7 9q23 53 62 73l6 17l14 30l-22 15l-19 45l-45 29l49 67l111 21l10 10l45 -6q25 10 52 10q45 0 114 -6l4 4l84 4l31 -12l154 16q68 -18 110 -18q35 0 55 14l103 4l63 6l54 4l26 11q80 -25 80 -58q0 -35 -63 -53l-54 -2l-55 -21l-39 9 l-33 -9l-51 -10q-14 4 -24 6l-23 -6l-51 6q-45 -14 -178 -30l-64 2l-28 -11l-15 9l-73 -11l-41 11l-37 -11l-19 4l-16 -14l-19 -2l-26 -59v-37l-31 -12l-10 -21q0 -14 -10 -29l-35 -14v-16q0 -8 -27 -31q70 14 90 14q16 0 29 -4l12 4q8 4 29 4q14 0 37 -8l37 6l125 -4l20 -8 q4 0 10 2h8q20 0 37 -8l54 -2l45 -10l73 -29l33 -43l43 -25l21 -71l18 -21l-6 -37l4 -61q-16 -8 -20 -51l-19 -13q-27 -76 -70 -90l-22 -22q-16 -16 -16 -43v-8q-16 -2 -41 -9h4q-27 -37 -76 -43q-8 -4 -43 -26q-20 -16 -43 -17q-2 0 -8 2h-8l-64 -32l-61 -4h-5q-4 2 -6 2 q-16 0 -47 -21l-39 12l-32 -12l-43 6l-13 -4q-29 0 -45 17q-37 4 -41 4q-2 0 -13 -2t-22 -2h-10l-26 18q-51 10 -70 25h-37l-39 32l-76 29l-20 39l-27 31l-26 75q0 4 -2 9v8q0 14 6 28l8 11v14q-12 -14 -21 -25z" />
<glyph unicode="6" horiz-adv-x="1302" d="M86 328q0 25 20 43l15 37q8 2 8 6q0 8 -8 16l18 39l6 27l23 36l6 21l21 33l-2 6l45 59l12 43l6 6l6 17l31 41q47 35 49 35q-2 2 -2 6q0 6 14 30l29 9v16l35 10l28 29l11 4q100 84 143 92l14 17l39 10q20 27 60 26q25 6 45 7q10 0 35 -5h51q72 -63 71 -100q0 -23 -22 -39 q-6 -20 -92 -61l-43 26l-8 11l-23 -4h-16l-19 -9h-35l-26 -16l-27 -27l-43 -22l-31 -23q-10 -4 -38 -59h-27q-12 -14 -33 -37q-6 -16 -24 -29l-7 -4q-18 -12 -30 -24v-33l-17 -10q-6 -27 -37 -39q-12 -12 -20 -49l-21 -37l5 -33l-19 -47l-12 -21l2 -24l-19 -23l-6 -22v-15 l-4 -8l4 -20l2 -15l15 -16l8 -14q2 6 2 14t-2 10l4 17l18 10l17 55l28 33l84 66l19 8q20 33 67 39l13 -2l33 28l43 17l34 6l19 24l45 2l55 33l68 8q20 23 51 23h8l25 4l18 -6l107 4l14 -6l35 6l59 -33q55 -18 78 -65l27 -25v-41l10 -22l-6 -33l-19 -35l-14 -12 q-6 -23 -29 -39l-10 -13l-4 -28l-62 -25l-10 -10l-24 -6l-25 -19l-6 -2l-4 -18l-39 -4l-6 -8q-45 -27 -82 -37l-68 -33q-37 -18 -71 -20q-8 -8 -27 -23l-20 8q-29 -20 -152 -37l-47 -14l-37 -16l-37 6l-6 -8l-27 -5l-28 -12l-60 19l-16 20l-19 -6l-30 27l-60 24l-63 72 l-17 55l-12 49v19q0 12 2 24v13q0 6 -5 21t-5 26zM338 129l47 -4l16 -8l15 2l37 -13l10 17q25 4 46 6t114 25q18 12 57 18l12 2q29 16 68 21l65 22l29 8l25 19l24 8l29 20l22 9q2 2 10.5 12t14.5 16l61 33q12 20 19 29l18 12l4 6l9 19v10l-5 12l-20 10l-4 15q-10 2 -29 12 q-14 0 -45 10l-6 2l-53 -12h-21q-18 -2 -35 -2l-12 6q-59 -14 -69 -25l-46 -26l-49 -8l-16 -13l-18 -2l-17 -12h-8q-29 0 -41 -29l-47 -10q-27 -33 -68 -45l-24 -37l-35 -14l-29 -41v-10q0 -25 -12 -43l-10 -6q-18 -14 -33 -21z" />
<glyph unicode="7" horiz-adv-x="1396" d="M-102 -369l4 31q4 27 32 33q20 8 66 37l29 -2l16 24q10 0 16 -10q23 35 54 35h6q25 25 49 31q18 20 53 32l4 2l11 -12l4 39l41 27l16 41q14 20 23 20q4 -2 4 -6l12 22q23 12 53 31q8 14 23 23l24 34l25 17q14 20 18 35q31 25 39 53l25 55q6 0 28 4q12 47 54 78h10l8 8 l19 49l36 27l15 43l-8 4l-15 -6l-61 6l-35 -6l-59 16q-16 8 -23 9q-14 0 -33 -19h-45l-24 15h-31l-55 57l16 12l-2 19q6 49 68 63q20 0 32 -6q49 8 64 8q20 0 35 -14h6q35 -12 67 -12h15l55 8l127 -15v17l25 6l4 8q4 31 30 49q8 45 25 64l-6 45l37 14l8 33l18 12 q10 20 15 35q-25 -6 -21 -6l-14 -23l-62 11l-47 -15l-28 -33l-45 23l-35 -12l-29 10l-39 -2l-33 -16q-37 10 -57 10h-16q-12 -2 -21 -2h-45l-74 -4l-20 14l-23 2q-18 -6 -34 -6q-18 0 -43 10q-12 0 -33 4l-6 -2l-62 12l-24 -8h-11q-49 0 -84.5 29t-35.5 78q0 31 16 80 l49 -11l39 19l25 -25q31 -2 59.5 -25.5t36.5 -23.5h4l51 12l55 -16l31 8l68 -12h112l19 -4l45 24l10 -16q16 6 31 6q6 0 22 -4l21 14l59 2l80 11l53 16h4q23 18 60 18q20 10 41 11q14 0 20 -2l-6 10q33 39 80 49q25 10 33 10q27 0 73 -32l27 -93l-67 -36l-13 -13l-33 -24 l-6 -45l-20 -17l-15 -57l-24 -12l-8 -17q-2 -14 -19 -26l-6 -7q6 -12 19 -49q-20 -4 -45 -10l-31 -72l35 6l22 -12l70 -10q2 10 20 25l51 -3l25 -6q18 6 37 6q10 0 18 -2q29 4 41 5v-15l31 25l109 -10l20 -80l-90 -17l-72 -30l-61 8q-29 -4 -39 -4h-12l-15 -15l-73 -4 l-27 10l-27 -8l-37 -2q-57 6 -104 6h-4q-4 -2 -14 -12l-11 -16l-10 -8l-10 -41l-27 -19q-16 -27 -47 -88l-22 -6q-4 -10 -17 -27l-2 -12l-29 -20l-22 -33l-10 -6l-11 -35h-18q-6 -14 -18 -23q-20 -57 -54 -65q-10 -31 -47 -58l-28 -57l-39 -16l-15 -23h-10l-14 -12l-8 -27 l-35 -14l-11 -19l-45 -20l-8 -10q-43 -53 -49 -56.5t-37 -7.5q-8 -14 -26 -18l-2 -4l-39 -37l-23 2l-12 -16l-35 -9l-47 -22l-72 -2z" />
<glyph unicode="8" horiz-adv-x="1157" d="M109 727q0 16 26 29l17 41l-7 -4q2 16 15 38l16 15l4 22l41 47q12 20 31 31q4 4 47 41l45 12l72 56l41 4l47 16l31 12l-13 -2l8 2q74 18 117 19l35 4l53 -6q12 -6 29 -6q10 0 16 2l117 -19q25 -6 41 -20l35 -4l14 -23q43 -8 68 -45l28 -41l35 -39l-6 -20l18 -43l-10 -12 l6 -27q-31 -55 -55 -74q-14 -20 -36.5 -42.5t-45.5 -37.5l-67 -43l-39 -39l-58 -20l-108 -59l-25 -27l-20 -4q-4 -4 -17 -15v-20l-20 -4l41 -27l98 -76l74 -43v-18l8 -8l27 -19l18 -34q37 -33 37 -80l-6 -39q-6 -45 -40 -74t-73 -29q-20 -12 -65 -24q-43 2 -70 6 q-20 -8 -57 -16l-9 8l-45 8l-36 -12l-31 10l-19 -4l-65 4l-21 10q-43 2 -125 12l-30 29l-31 6l-29 -8l-12 31l-29 4v35l-16 16q-16 16 -16 35q0 14 12 33q2 4 2 16q29 41 29 68l14 10l4 24l29 15q16 18 22 22l4 4q8 4 33 15l-14 -4l31 28q8 16 28 23q20 20 49 25.5t35 15.5 l-41 16l-28 25q-29 10 -54 45l-18 2l-6 20h-8l-19 33l-22 17l-37 77l-17 21q-33 25 -32 51zM248 154q14 -6 19 -22.5t7 -18.5l11 -9l39 -16h47l16 -12l37 8l43 -10l31 2l39 -6l59 6l29 -2l41 2l41 -15l36 21q2 -2 11 -2q16 0 45 29q2 4 2 14q0 23 -31 55l-35 17l-26 34 l-64 33l-41 41l-67 31l-21 18q-29 -2 -53 -18q-8 -2 -45 -39l4 2l-86 -41l14 -25l-59 -30q-10 -39 -43 -47zM270 743l25 -26l27 -88l32 -15l4 -22l17 -17l8 -14l29 -8l32 -27l37 -8l27 -12l74 35l30 37l45 8q23 23 35 26q12 20 43 27l33 10l39 37l18 2v8l27 15q12 18 35 24 l4 15h22q16 37 29 45l12 18q27 31 37 45q-25 25 -33 43q-18 18 -45 47q-41 8 -43 8q-12 0 -24 -6l-72 29h-4l10 -8l-10 -27l12 -22q-10 -68 -84 -68q-18 0 -47 16l-14 23l-16 -4l-17 16l-14 -2l-29 -22l-16 8q-18 2 -35.5 8t-20.5 6q-23 -29 -106 -41q-16 -25 -51 -28 q-10 -18 -25 -27l-14 -39l-17 -8z" />
<glyph unicode="9" horiz-adv-x="1116" d="M-578 -455q0 45 46 45q31 0 55 -32l28 -2l21 -17l29 4l45 -20q37 0 75 -17q39 0 82 7q55 14 99 14h14q35 18 125 29q10 4 31 16q25 6 65 18v-6l17 19q51 6 82 49l40 4l82 61q31 6 43 33l27 19q18 12 41 18l20 35q27 23 37 53l43 49l19 8l16 27l21 23q8 12 10 18t10 29 q41 41 41 90l41 45l-10 39l35 14l26 86q8 27 8 29v16l17 96l6 15l-8 59l8 21l-8 28v41l-8 25l-13 -31l-35 -29l-8 -36l-41 -17l-26 -16l-49 -23l-15 -24l-71 -19l-7 -14l-53 -10l-78 -19l-104 -6l-41 6h-10q-51 0 -88 29l-2 20q-16 10 -43 29q-16 27 -17 62q0 18 6 38 l-10 33l14 53v31l17 31l4 49l24 27l13 34l26 17l7 33l24 8q12 27 35 49q2 2 13 10t26 23l35 41h24q20 35 60 41l4 12q33 6 67 12l4 2q12 12 29 33l37 -10l63 4l7 6l38 12l41 -12l76 -76l41 -80l41 -51l8 -31l29 -22l-8 -29l8 -14l4 -25l23 -26q-2 -8 -6.5 -19.5t-4.5 -15.5 q27 -18 27 -55l6 -41l-4 -15l2 -28l8 -21l-4 -22l8 -80l-6 -55l-2 -9q0 -35 -18 -57l-6 -16l8 -23q-25 -27 -25 -59q0 -8 4 -29l-20 -6l-19 -57v-48h-12l-24 -20l-11 -37l-22 -16l-2 -31l-19 -12l8 -17l-49 -45l-24 -51h-6v-6l-23 -17q-25 -29 -47 -40l-70 -97l-45 -26 l-98 -78l-27 -10l-16 -21l-31 -8l-20 -23l-86 -39l-21 -2q-39 -20 -65 -24l-19 -19l-57 -4q-43 -18 -84 -18l-27 -25l-63 2q-41 -18 -82 -18h-10q-8 2 -11 2l-4 -2q-6 -2 -20 -2l-43 -8l-29 8l-37 -2l-26 6l-39 2l-37 21l-29 -5l-90 54l-22 39q-8 14 -9 32zM233 586l7 -21 l-4 -26v-7l8 -10q45 -8 51 -8q18 8 96 10q20 8 68 13l8 6l35 12l16 29h19l18 20h31q10 10 35 23q16 39 43 41l30 30l8 31l15 39l-8 37l4 31q-27 25 -33 55l-68 31q-12 25 -12 36l-2 7q-68 -20 -80 -25q-25 -6 -39 -33l-45 -6l-31 -29l-18 -8l-39 -59l-18 -4l-17 -27l-20 -16 l4 -21l-37 -35l-6 -24l-12 -12l12 -13z" />
<glyph unicode=":" horiz-adv-x="542" d="M135 641l19 35l24 41h6l27 33l31 -15q18 10 47 10l49 -8l20 -37l43 -34q-10 -82 -49 -113q-2 -2 -47 -43l-84 2l-22 16l-33 9l-10 24l-17 27zM143 66v4l4 57l9 8l-2 10q23 51 39 58l10 6l6 6q18 12 49 16l25 -6l47 -6l26 -29l29 -12v-18l14 -25l-4 -26l13 -9l-31 -65 l-33 -15q-29 -29 -74 -28h-18l-37 6q-27 16 -49.5 31.5t-22.5 36.5zM258 -8l16 -2h-6z" />
<glyph unicode=";" horiz-adv-x="542" d="M-31 -227q0 20 6 45l7 24l4 8q8 37 43 56l2 4l22 55l4 -10l13 35l22 10l4 8q6 23 29 33v22l18 5q0 27 13 53l20 16q0 6 4 23q0 4 2 10v8q31 61 88 62q27 0 76 -23l6 -8l39 -8l8 -84l-30 -51l-29 -15l-12 -20l-31 -27l-12 -20l-37 -23l-70 -76l-37 -18q-14 -37 -37 -51 l-10 -6l-14 -31l-29 -29q-33 -8 -51 -8q-20 0 -31 2v29zM145 602v10l13 15l-4 22l-2 62l26 24l23 6l26 33l49 -18l17 12l4 10l10 -4q16 4 23 4h6l10 -28q57 -42 86 -91v3l-10 -21v-27q0 -43 -57 -75l-46 -31l-34 4l-35 -12l-23 18l-32 -2l-9 33q-41 16 -41 53z" />
<glyph unicode="&#x3c;" d="M264 547v129l1178 483v-153l-969 -396l969 -393v-154z" />
<glyph unicode="=" d="M254 342v139h1198v-139h-1198zM254 739v140h1198v-140h-1198z" />
<glyph unicode="&#x3e;" d="M264 63v154l971 393l-971 396v153l1178 -483v-129z" />
<glyph unicode="?" horiz-adv-x="802" d="M68 987q51 51 104 57l14 -12l9 29l12 4l29 29h24l19 10l43 12l30 -12q16 4 27 4h10q6 -2 8 -2l25 8q14 -20 29 -20q2 0 6 2h4l26 -9l11 5l6 -7h28q16 -6 25 -24l31 -31l35 -45l30 -45l21 -18l4 -31l27 -29l-15 -47q0 -8 -4 -27l6 -43q-41 -31 -71 -61l-9 -10l-22 -37h-17 l-26 -19l-4 -16l-21 -10v-19l-47 -10l-18 -35h-4v-4l-15 -8l2 -6l-51 -39l-10 -25l-21 -34l9 -39l-5 -8l19 -15l20 -2q39 -18 39 -57v-64l-94 13l-49 30l-21 25q-20 12 -30 37l-29 6v41l8 20l-22 29l12 33l2 24l33 33q2 10 18 21q6 6 11 14q2 18 22 41h6l12 22l15 5 q16 27 43 32l-2 -6l20 23h-2q0 -2 -2 -2q0 2 -2 4q0 4 10 20l25 19l8 8l41 18v17l29 14l4 31q16 2 37 8l-4 24l-9 27l7 16l-13 21l-4 -2l-37 22l-6 17l-20 18l-8 13h-17l-6 4l-12 -4l-29 4l-4 -6q-31 0 -39 2h-10q-33 -4 -51 -9l-5 -2q-4 2 -18 21q-8 -23 -29 -23 q-72 -23 -94 -22q-49 0 -67 59zM223 35l15 41l-9 76l23 16l4 25l70 -19l6 4l37 -14l55 -49l25 -56v-8q0 -35 -31 -51l-29 -8l-55 -12l-74 28z" />
<glyph unicode="@" horiz-adv-x="1402" d="M66 336l4 47l6 16l-2 27l16 33l4 22l-4 21l16 28l5 50l47 98l32 90l37 35l37 55l47 51q31 35 63 72t66 45l60 29l43 30q35 25 53 25h18l25 23l55 18q2 -14 8 -14q-2 0 12.5 10t41.5 10h12l12 14l58 -10l26 -8l15 12q20 -8 28 -8q10 0 27 8l24 -8l9 -8q20 0 41 -12l34 -11 q53 -6 88 -36q31 -8 60 -39q2 -10 22.5 -16.5t28.5 -20.5l23 -39l30 -12l9 -41l28 -25l19 -53l-9 -17l15 -28q-10 -10 -10 -33v-12l18 -21l-4 -43v-2q-2 -2 -2 -4q0 -4 3 -16.5t3 -18.5q0 -29 -10 -55l-8 -21l4 -34l-25 -23q-16 -14 -25 -47l-14 -59l-39 -37q-8 -35 -51 -76 q-55 -51 -72 -76l-37 6q-25 -33 -67 -43l-55 -12l-17 12h-10l-4 -10l-16 -4l-19 -10l-6 6l-10 -6l-52 43l3 30l-9 11l6 51v90l7 25l8 71l-23 -45l-16 -12l-8 -16l-15 -7l-20 -34l-37 -37l-14 -17l-29 -28l-8 -19l-47 -30l-51 -58l-25 -6l-21 -16q-27 6 -38 30q-53 25 -60 84 l12 6l-2 15v22l-12 15l17 18l6 35l14 49v8q0 6 4 19v10q0 14 6 33l10 2q6 2 7 8q0 6 -7 12l-6 13q8 33 23 34q4 12 6 17v26l27 27q0 39 28 55l2 27q6 20 13 29l2 18q4 -4 6 -4t2 2q0 4 -4 10q23 23 53 64l16 6q23 0 29 14l33 17l90 2v-11l41 -10q2 0 27 -6q4 -14 18 -14h6 l12 -13l39 -10l2 8l-10 -6l49 4l8 -26l17 -17l-12 -8l8 -35l-19 -20l-10 -31l-8 -12l6 -19l-18 -37q0 -2 4 -14l-4 -8l2 -10l-6 -15v-16l-11 -12l2 -31l2 -6l-6 -6l-4 -13l4 -12l-12 -18l-4 -13l4 -20l-12 -14l12 -13l-16 -30l-5 -15l13 -2l-10 -24v-15h-7l4 -24h25l6 -17 l12 2l33 11l10 -13l11 6q6 -2 14 -2q25 0 31 37h16l6 17q16 -6 25 -7q14 0 14 17q20 4 31.5 42t40.5 44q6 35 22 41v14q0 43 25 58q12 12 12 30v6l13 25l-11 14v25q-6 6 -6 16q0 14 19 33l2 39l-27 25l18 43l-26 20l-8 68l-19 -2l-35 59l-18 4l-25 33l-16 -6l-27 16h-20 l-14 21l-19 2l-26 26h-31l-25 17q-16 4 -45 4t-41 -4q-53 -4 -49 -5q-6 0 -15.5 5.5t-13.5 5.5l-8 -4l-28 -21q-10 -2 -33 -2q-25 0 -37 4q-47 -16 -96 -43l-15 -24l-41 -2l-12 -11q-29 -2 -47 -45l-14 2q-14 -20 -64 -49l-14 -35l-25 -12q-23 -27 -26 -43q-8 -35 -35 -41 v-12l-21 -8q2 -6 2 -17q0 -29 -30 -47l-4 -41l-25 -55l-35 -90l-6 -23q8 -16 8 -22q0 -8 -6 -21l10 -16l-6 -23l-4 -26l14 -54l-4 -36l19 -35l4 -21h4l16 -37l8 -28v-15l9 -8l34 -51l31 -10l8 -15l11 -4q29 -47 73 -47l15 -12l26 2l17 -18h24l23 -17l6 4l35 -10l12 4 q12 4 21 4q12 0 32 -10l29 -14l29 -9l47 9l41 12q12 -6 26 -6q12 0 33 10l39 12l31 2l37 21q74 12 133 51l20 16l53 25l48 -10q2 0 6 2h6q43 0 49 -66q-14 -29 -43 -39l-6 -10q-20 0 -51 -26.5t-60 -26.5h-12q-43 -12 -92 -37q-4 2 -12 2q-12 0 -31 -12l-39 -10l-64 -11 q-25 -4 -36 -4q-18 0 -43 10h-66l-16 11h-19l-22 -2l-50 2l-34 12l-19 10l-24 2q-4 6 -54 10l-30 17q-6 -2 -19 -2q-29 0 -47 22q-6 8 -12 9q-2 0 -2 -5l-35 3l-12 32l-41 21l-17 26l-36 15l-7 22l-32 37l-23 37l-10 47l-15 16l-4 19l-16 8l2 27l-6 20l2 27h2q2 0 2 4 q0 10 -12 41zM537 307l2 -8l6 -4l10 -6q4 18 18 22v13l27 6l18 18l5 2l-7 -6h-16l66 55l12 4l10 25q14 2 23 14l12 15l8 2l-4 22l14 2q12 16 37 47l13 11q2 10 28 30v4l-4 7l33 32l4 19l8 4l-2 6l8 12l4 15l11 8l-2 18l-2 11l-15 6l-31 28h-20l-6 9l-25 4l-12 -4l-6 6 q-18 -4 -37 -11l2 -4l-25 -8l-4 -6l-6 -2q-25 -14 -35 -41l-20 -29l-6 -12l6 -16l-16 -17l2 -8q-18 -20 -19 -51l-8 -12l-4 -25l-8 -10l-4 -15l-5 -4l-2 -18l-6 -8l-6 -25l8 -24l-16 -11l4 -6l-12 -14l8 -27l-16 -18v-27z" />
<glyph unicode="A" horiz-adv-x="1488" d="M-88 -10l25 51v31l8 10l4 41l63 8l17 10q25 14 28 43q37 10 45 41q55 29 72 90l35 13l51 75q-16 23 -24 58l43 35v39l79 -7l21 11q10 35 41 49l4 39l43 22q6 4 22 10v13q0 18 9 33q43 31 45 83l28 7l11 18l14 2l39 74l10 -4l17 8v55h14q51 55 51 72l10 8l-10 31 q49 59 80 61l39 33l45 -45l57 -31l6 -53q10 -12 17 -25q29 -35 33 -71l12 -51l31 -46l18 -67l4 -33l37 -45l-8 -14l16 -15v-41l4 -30q-6 -31 -6 -23l10 -10l13 -16q27 2 39 6h61q16 -4 25 -4q12 0 25 9t42 9q20 0 62 -20l61 -5q4 -16 4 -24q0 -31 -31 -47l-30 10l-58 -41 l-47 6l-20 -10l-45 -4v8l-54 -12l-2 -12l4 -48l27 -36l4 -37l47 -66l-4 -22l19 -19l49 -76l35 -34l8 -17l37 -18l14 -33l55 -33q-2 -51 -67 -71l-78 36h-23l-26 21h-33l-25 41l-20 10l-27 47l-37 39v16l-16 15l-4 33l-27 24l-43 96l-18 23l-8 57l-27 35l-43 6l-47 -26 l-10 10l-33 -21l-10 23q-10 -2 -31 -2q-23 0 -33 2h-16l-43 -23l-47 7h-8l-33 -19l-27 10q-39 0 -57 9h-10l-54 -25l-20 22l-37 11l-8 -6q-45 -59 -66 -84l-33 -9q-78 -113 -98 -120l-8 -2l-66 -80h-8l-41 -64l-78 -43q-20 -4 -32 -4q-39 0 -74 29zM553 528h18 q37 -12 62 -12h8q12 6 25 6q14 0 32 -8l9 -2q12 2 38 2q33 0 50 -2l71 8l47 -24q35 14 41 28q0 -2 2 -2v-2h-2l-22 23l24 20q-16 14 -16 43l-14 8l-11 84l-24 35l-6 35l-4 8h-15l-6 74l-18 27l-11 4l-6 8l-8 -15l-49 -61l-16 -35l-41 -37l-9 -36l-47 -21q-10 -61 -61 -88 l-14 -41z" />
<glyph unicode="B" horiz-adv-x="1402" d="M-72 1026q0 41 43 49q20 33 60 33h8l22 -10l5 2q90 0 131 -8q35 8 61 8l10 -8l15 4l57 -21l119 -14q10 2 30 2q27 0 39 -4l23 4q35 -4 55 -19l17 -8q41 -8 55 -8l49 8l10 -12q27 0 47 -20l60 -3l24 -22q27 -10 45 -10l41 -13l17 -16h47l12 -29l43 -26l14 -64l-32 -59 q-45 -51 -90 -60l-33 -18l-17 4l-43 -29q-14 2 -24 3l-43 -15l-4 2l-27 -35l-39 -6q-51 -26 -102 -26h-4l-41 -23h-43l-35 -20l-27 -4l72 -23l41 6l68 -8l77 12l4 -8q14 2 41 2q49 0 64 -20q14 10 33 10q35 -12 47 -12q14 0 39 10q27 -14 100 -15l18 -10q55 -8 91 -24h32 q25 -25 56 -25q12 -12 67 -47q31 -20 31 -45l-8 -25l-8 -41l-37 -30l-8 -27l-25 -6l-27 -39l-47 -10l-41 -29l-59 -6l-31 -33l-53 4l-23 -18l-28 4q-41 -29 -97 -39l-14 8l-59 -43l-23 12l-14 -10l-37 8l-14 -8l-37 -4l-29 6l-37 -30l-43 18v-2q-4 -4 -22 -10l-13 14 q-28 -22 -64 -22h-3h-10q-8 2 -13 2l-32 -35l-39 -13l-33 19l-8 37l-45 -15q4 4 4 7v6q-2 4 -2 8q0 6 8 8l-33 66l2 36l-4 46l10 32l-6 45l14 33l-8 27l6 45q-6 23 -14 49l-2 29q-68 35 -76 65q10 49 60 78q2 2 22 14l-14 45l16 7l-8 30l6 8l-12 31l6 17l-2 47l-25 49l5 20 l-13 8l4 48l-10 16l-14 49l-2 2l-23 -18l-20 14l-23 -14l-8 10l-35 -23l-20 31l-41 -24q-102 59 -103 104zM408 866l14 -39l-12 -30l12 -47l-4 -43l12 -33l-10 -35v-4l33 2q10 4 30 8l-2 -6l25 18l4 17l51 2q63 16 82 39l25 -2l10 8q33 33 70 33h8q10 0 18 10l55 16h7 q22 19 55 25v16l-6 2l-15 17h-22l-21 10q-16 4 -28 8l-23 -16l-41 30l-35 11l-14 -9l-39 21h-10q-20 0 -68 6l-47 -6l-24 23l-23 -5l-8 2l-12 -10l-39 15l-8 -5v-49zM420 348l12 -29l-10 -30l4 -15l-4 -28l14 -25l4 -39l-14 -32l2 -11l6 -4l4 -31l58 2l34 13l60 -2l14 -6 q6 6 21 10l34 16l58 -2l57 19l49 20l29 -2l49 23l70 4q51 2 76 34l28 -2l23 11l16 22l45 12l15 25l10 12l-6 4l-33 5l-8 10h-11l-47 20l-39 -4l-18 17l-41 -5q-12 10 -27 15q-18 -10 -34 -10q-14 2 -33 12q-35 0 -76 6l-70 2q-35 10 -63 10q-12 0 -31 -4l-45 -10l-31 20 l-2 -12l-90 8q-18 12 -22 17q-35 0 -35 -35v-12z" />
<glyph unicode="C" horiz-adv-x="1288" d="M88 416l10 35v47l17 8l2 12l26 92l27 60l16 43q4 29 35 67l8 11l-10 40l45 23q18 18 29 27l8 47l31 14l10 37q41 4 55 18q23 33 58 47l18 17l53 14l31 19l39 -19q47 10 61 10h23l12 -4l25 -2q51 -25 98 -35l27 -22l121 -68l14 -28l20 -19l15 -43l12 -30l8 -39l-2 -50 q0 -4 -4 -28v-6q0 -63 -119 -93l-41 27l-22 31l-13 43v31l-6 32v52l6 22l-10 16q-8 6 -26 19l-7 4q-59 16 -61 33h-39l-16 10l-10 -23l-39 25l-11 -6l-24 4l-25 -16q-20 6 -39 6l-26 -37l-58 -51l-49 -68l-10 -4l-14 -45l-25 -16v-19l-39 -59l-18 -82l2 -8l-19 -33l13 -33 l-23 -18v-9l-8 -6l2 -57l-8 -43l16 -27l4 -12l19 -16v-29l22 -31l-8 -14l29 -29l2 -10l73 -27l-2 -12l54 -6l20 -18l47 16l23 -25l12 2q25 20 47 21q6 0 23 -4h26l15 -10l18 8q20 0 31 2q28 26 68 26h3q16 16 58 17q10 12 59 28q25 0 39 11l16 26l31 9l29 14l24 24l37 17 l109 104l65 35l54 -35l-27 -61q-8 -68 -61 -74l-15 -29l-69 -43l-17 -20l-35 -33q-18 -2 -47 -8q-53 -49 -127 -74l-37 -18q-37 -4 -112 -31l-39 -24l-39 6q-37 -14 -66 -15q-23 0 -47 9q0 -12 -22 -13q-18 0 -58 17h-16l8 8l-37 -10l-16 4l-20 -6l-62 24l-27 16l-51 17 l-10 22q-63 8 -72 56v8l4 -4q-20 20 -40 74q-16 2 -36 39.5t-20 76.5q0 25 2 53q-8 18 -8 54z" />
<glyph unicode="D" horiz-adv-x="1323" d="M-4 979q51 43 94 43h4q59 16 107 16q6 0 18 -5t23 -5q-2 0 51 12l8 -22l29 6l18 -6l27 6l80 -18l26 -17l60 10l22 -34l12 -2l35 -23l21 -2l24 -10h9q33 0 57 -19q59 -16 92 -53q16 -4 29 -10q27 -20 55 -23l57 -41l56 -47l-6 -6l47 4l20 -14l6 -31q55 -45 109 -110 q2 -6 4 -15l33 -18v-51l18 -19q0 -16 2 -20l6 -4q21 -25 21 -41v-7q-2 -4 -2 -6l-8 -20l-7 -31l-41 -55l-14 -31l-43 -18l-14 -19l-58 -16l-36 -21h-19l-12 -18h-53q-25 -31 -76 -31q-8 8 -10 8q-4 0 -27 -14l-35 4l-14 -6l-39 4l10 -6q-49 -12 -72 -12q-10 0 -14 2 q-59 -18 -96 -19q-2 0 -10 2h-11l-30 -8l-27 10l-14 -6l-27 -26l-37 8q-6 2 -22 8l-4 -2l-25 -6l-4 -41l-12 -33l-64 -74l-27 25h-43l11 72v24l-15 10q-8 -4 -28 -16h-56l-39 27l-16 47l29 26q35 33 96 48l-2 4q-4 12 -4 20q0 14 8 29l-6 94l10 25v43l10 22l-24 41l29 57 l-11 123l4 47v31l-18 45v64l-12 28l-13 6l-45 -20l-78 -6q-37 0 -53 69zM362 340l19 -29l-4 -41l10 -24l-12 -29l2 -8l20 2l70 10q25 8 53 8q31 0 53 -8q41 0 93 29q79 5 79 6h-4q8 0 18.5 -2t14.5 -2q23 0 31 10l33 8q31 20 57 21q10 0 25 -6q16 6 24 6l23 31l32 -9l15 6 l28 21h13l53 39l2 16l-6 39l-64 80h-20l-23 55q-45 20 -61 33l-6 25l-10 8l-62 18l-18 33l-146 80h-10q-6 -2 -10 -2q-31 0 -56 18l-6 17h-39l-10 8l-26 6q-6 -2 -17 -2q-18 0 -22 8l-2 6l-25 17l-37 2q-20 20 -43 20l-14 -33h-10l22 -49l-12 -16q16 -39 16 -49v-10 q0 -14 -4 -25l19 -53l-19 -6l2 -13v-67q0 -4 -8 -45l14 -13l-22 -61l6 -45z" />
<glyph unicode="E" horiz-adv-x="1271" d="M141 920q0 31 39 69l15 15l18 8q33 14 51 14h10q4 2 21 2h8l21 33l92 -6l6 -6q18 4 55 4l41 10h10q27 8 52 33l30 -17h11q10 0 23 -2t18 -2l204 19l21 -9l28 7l17 16l41 -23l14 11l45 -19l31 8l16 -10l66 6l14 -10l33 -6q47 -8 47 -45q0 -25 -17.5 -43.5t-35.5 -18.5h-8 l-23 -12l-41 12l-18 -2q-6 -2 -17 -2q-20 0 -37 9l-6 8q-20 -4 -26 -4q-8 0 -21 4q-20 -14 -76 -25q-29 0 -63 2q0 2 8 15l-53 -15q-2 2 -4 2q-14 0 -53 -32l-27 12l-12 -8l-50 14l-28 -14h-41l-62 -13l-51 -22l-14 8l-27 -18h-26l-7 -11l7 -24l-35 -41l16 -2v-58l23 -24 l-19 -17q-20 -35 -20 -47q0 -8 12 -12l25 8q10 2 20 2q31 -4 45 -8l37 14l33 -10l18 4l23 -2l33 6q16 -4 26 -4q8 0 33 15q16 -8 47 -9q4 0 14 2h17h4q-4 0 -8 3h6q12 0 74 -7q6 2 63 4q33 2 41 3q31 0 59 -3l19 3q29 16 53 16q18 0 37 -6l29 6l24 -10l82 20v-18 q0 -47 -29 -86q-55 -23 -92 -23q-8 0 -22.5 4t-18.5 4l-53 -26l-49 4l-29 -10l-14 4l-37 -21l-31 10q-55 0 -88 -2l8 2l-36 -12h-7l-14 -12l-29 8l-16 -14l-45 18l-27 -16q-49 14 -57 14q-23 0 -55 -14l-92 -8l-9 4l-34 -6l-3 -9l21 -102l-8 -10l8 -21l-2 -26q10 -31 14 -62 l25 -24l-4 -13l41 -51q63 -45 96 -45h4q4 0 10 2h8q8 0 23 -6l18 2q27 6 76 14l23 13l4 8l14 2l17 10l10 -6l33 10l26 17l10 14l35 27l27 4l49 36q51 8 74 82l6 -2l2 6l27 3l38 32l15 2q6 2 14 2q39 0 47 -75l-90 -107l-22 -6l-9 -12l-38 -41l-56 -33l-45 -43l-14 2l-17 -16 l-92 -35l-37 -41l-26 10l-10 -18l-19 6l-10 -10l-68 12l-69 -29l-70 23l-88 41q-113 53 -174 295l2 22l-18 47l18 21l-12 57l-2 18l-35 39v25q0 59 33 82q6 16 22 31l-4 6v57l-6 29l26 65l7 33l-21 -2h-8q-29 0 -49.5 19.5t-20.5 46.5z" />
<glyph unicode="F" horiz-adv-x="1157" d="M63 518q0 86 87 86q43 0 61 -2l57 -6l-4 16l2 66l-12 4l8 125l-20 55l-2 19l-15 8l-65 -37l-33 45q-37 16 -37 64q12 18 12 28v47l58 -4q43 31 78 31q-2 0 59 -8q37 4 135 10l74 -10l55 2l8 6q14 8 31 8q14 0 23 -4l8 -2q18 2 55 7t55 7l2 -6l13 -10h8q10 0 28.5 3 t26.5 3h6l56 -8l59 -6q31 6 57 6q20 0 39 -6h35q18 6 41 6q59 0 59 -66q0 -39 -59 -41l-37 -16l-37 8l-53 -28q-43 22 -63 22h-2q-2 0 -17.5 -3t-28.5 -3q-16 0 -24 2l-45 -14l-10 2l-4 -2l-113 -2l-12 -21l-52 16l-20 -10l-49 -4l-31 6q-18 -2 -35.5 -5t-19.5 -3l-27 -4 l-12 -8l12 -37l17 -43l-9 -33l21 -16l-17 -25q4 -16 5 -26q0 -18 -11 -45l-6 -68l33 -2l65 16l29 -16h16q8 -2 11 -2h6l12 12l64 10l45 -16q33 8 47 10h67l39 8l23 -12l31 4q16 2 24 2l119 15l14 -7q6 2 15 2q14 0 34 -8q27 -37 27 -65q0 -10 -2 -17l-39 -6l-35 -18h-30 l-17 -15l-57 5l-51 -15l-60 -10l-12 2l-4 -4l-78 8l-27 -10l-36 4q-31 -14 -76 -14h-19q-10 -2 -43 -13l-43 25l-12 -11q-12 -10 -29 -14l-39 4h-24q-4 -20 -12 -122q8 -25 8 -43l-21 -52l13 -24l-17 -33l6 -31l-10 -18q-27 -139 -37 -178q-16 -61 -37 -72l-45 23h-55l14 63 v29l13 12l4 27l2 10l-4 2v24l-19 21l4 12q0 43 17 76l-8 8l4 25l-7 28l13 33l-4 74l14 72l-10 24v10l-33 -12l-47 25l-21 -4q-20 -4 -24 -4q-57 0 -58 67z" />
<glyph unicode="G" horiz-adv-x="1533" d="M63 377l29 49l10 2l50 82v18l12 4l6 7l12 -7q23 2 25 46l14 -7q10 16 37 39l-6 8l6 15l25 18l4 2l24 43l15 -10h18l25 41l51 10l18 19q-4 4 -4 8l4 16l23 4l12 11l8 -11l15 13l6 18l43 4l35 31l38 6l15 14l20 -6l13 21l16 -15q2 12 2 13q0 20 27 26q27 29 63 29h37l6 4 l35 31l20 -4l35 18h15q27 10 43 10l36 21l21 -6h14l11 18l49 -4l14 2l10 23l64 -27h37l43 -31q37 -14 75 -39q-2 -98 -129 -114l-53 26l-16 -6l-35 12l-21 -12l-38 10l-66 -32l-29 16l-32 -10q-18 -4 -27 -15q-36 -30 -74 -30h-2h-14q-86 -51 -141 -66l-9 -20h-24l-17 -25 l-32 -4q-33 -29 -72 -47q-18 -8 -37 -16l-55 -50l-31 -22l-35 -43l-53 -43v-39l-16 -14l-33 -76v-27q35 -35 41 -74l6 -6l47 -22l49 -12l66 2l82 -17l14 2l16 -2l113 8l6 2q20 6 82 17l35 12l86 6l135 31q35 23 82 27l29 -2q35 -18 37 -37l20 45l-20 -19v37l20 4l25 33 q-6 6 -15 23q0 10 3 21t3 13q0 23 -22 74q35 20 74 21q37 0 67 -15l19 -18q33 -14 51 -35l53 -59l-76 -101l39 -53l-33 -20l-6 -54l-12 -30q0 -35 -10 -56l22 -20l-12 -49l10 -43l-6 -17l23 -22l-27 -29l10 -39l-14 -33q14 -39 14 -65v-8l25 -43q-4 -74 -64 -74 q-27 0 -69 51l-9 47q-29 35 -30 53l-23 52v26l-10 17v8l-23 8l5 6q0 31 8 47v19q0 14 4 30l-6 21l-21 8q35 23 35 43q0 4 -3 14.5t-3 14.5l-8 67l10 25q-66 -20 -115 -21q-2 0 -8 3h-10t-17 -5l-30 -28l-80 -15l-39 -20h-47l-35 -16l-43 2l-33 -19l-20 4q-25 -10 -70 -16 q-33 -4 -43 -17q-20 6 -31 21q-6 -2 -20 -2l-45 -23l-31 23q-29 0 -82 12l-16 -10l-37 16h-57l-31 27l-47 18l-92 91l-13 59l-28 39l12 31q0 4 2 12v12z" />
<glyph unicode="H" horiz-adv-x="1552" d="M150 618l57 33q10 33 10 82q0 47 -10 80l12 -6l-2 29l12 43l-12 71v47l14 72l80 43l39 -29l43 -14l6 -45l19 -27q-10 -29 -19 -59q6 -33 7 -70q0 -57 -15 -112l19 -39l-21 -29v-24l19 -7l49 7l35 -5l55 7l16 -7q10 2 23 3q8 0 24 -5l4 -2h31q2 0 32 2t60 2l33 21l31 -18 l30 -3l11 -2q16 4 26 5h11l217 22l30 -2l11 6l-11 35l11 31l-15 84l15 26l-37 99l-4 14l-9 10q2 4 9 19l4 8v8q0 16 33 31l20 57l57 -10l25 -15l57 13v-29l25 6v-96l-10 -16l16 -41v-27l10 -33l-16 -39l6 -26l-10 -95v-14l43 2l80 19l39 -4l24 4h45q16 8 35 8q12 0 31 -8h51 l-25 -21q6 -8 23 -29l-78 -49h-8q-10 0 -27 6l-24 -20l-35 4l-37 -31l-35 21l-43 -12l-41 -25q-4 2 -10 2q-16 0 -18 -10l-17 -68q8 -14 8 -24q0 -14 -6 -31l-6 -16l8 -5q0 -35 -16 -61q12 -29 16 -45l-18 -14l2 -74l-19 -107l-2 -20q4 -25 4 -33v-10l9 -21l2 -36 q-2 -10 -11 -31q-2 -70 -100 -74l-4 45l-16 27l-13 37v71l-14 43l6 4l-6 31v51l6 80l-4 72l12 41v47q0 14 5.5 38.5t5.5 37.5q0 20 -13 39l-4 6l-6 -4l-27 8q-37 -10 -69 -10q-23 0 -33 2l-88 -27l-94 10q-37 4 -51 4q-27 0 -74 -14h-8l-47 -20l-33 22l-51 -10l-7 4l-8 -4 l-41 2l-4 -16l-57 22q-35 -4 -51 -6v-94l-7 -47l11 -39l-17 -31l15 -29l-15 -88l9 -26l-5 -50l19 -41l-8 -18l4 -25q-2 -45 -51 -45q-84 0 -84 152l-29 35l-10 24q0 27 12 45l4 35l-6 21l-10 159v43l-4 7l-41 22z" />
<glyph unicode="I" horiz-adv-x="571" d="M160 897h26l25 61l4 -4l12 33l-10 -12v55h35l6 19l39 14q51 -4 80 -16q31 -29 31 -68v-10l-7 -2l-12 -78l2 -45l8 -6l-20 -47l4 -35l-18 -39q-8 -27 -15 -43q6 -12 6 -27q0 -16 -8 -31l19 -69h-25l-2 -4l14 -29l-14 -55h-6l-10 -41q10 0 14 2l-6 -41l14 -37l-14 -29 l2 -63l-6 -27q18 -20 18 -39q0 -12 -9 -26.5t-9 -18.5l18 -13q19 -13 35 -36l-25 -20l31 -17q-8 -82 -59 -82t-68 45l-10 15q-33 45 -33 63l-41 43l19 21l-13 16l4 43l-4 14q-6 20 -6 33q0 12 6 27l-4 16l-2 66l6 8l-4 117l17 98l-9 102l7 11l-11 6l13 41v14l-15 2l10 45 q-25 29 -30 80z" />
<glyph unicode="J" horiz-adv-x="571" d="M-842 -324q0 27 62 27q61 0 139 -37q51 0 100 -18l17 -2h35l14 -13l51 7l45 -11l14 4l35 -10l25 8q90 0 112 7h70l10 24h37l13 16h24l16 13l11 2l14 10l29 27l10 39l31 12l8 41l29 20q0 23 2 33l6 6l-15 21l27 26l-2 21q8 10 29 33l8 38v78h20l2 29v8l11 4l-21 62l12 4 l19 47l-4 29l14 165l10 35l-12 70l12 24l-14 21l14 57l-22 80v90l-19 51v11l-20 4q18 211 113 211q47 0 59 -35l6 -12l39 -25l-23 -37l15 -20l-4 -27l12 -6v-43l12 -33l-12 -69l8 -103l-4 -31v-90l-4 -45l8 -63l-6 -15l4 -40l-16 -17l2 -6l24 -31l-28 -4l-2 -14l6 -41 l-10 -8v-9q0 -14 -10.5 -34.5t-10.5 -30.5l6 -41v-12l8 -37l-18 -39v-8l-4 -29v-43l-17 -20l13 -17l-29 -28v-41l-12 -13l6 -28l-21 -9v-6l-16 -22l-20 -4v-56l-35 -20q-35 -63 -51 -92l-99 -66l-39 -20l-36 -27l-19 4l-61 -22l-62 6l-74 -31l-69 21l-47 -7l-8 2l-43 -32 l-31 39l-17 -2l-53 16l-78 -21l-14 39l-70 -6l-24 31l-55 2v8l-31 14h-23q-43 20 -43 82z" />
<glyph unicode="K" horiz-adv-x="1546" d="M156 -57l14 49l8 37l2 6l4 10q-2 4 -7 15.5t-5 19.5q0 12 8 26l-8 11l31 39l-17 32l9 21q-10 20 -11 35q0 10 9 35l4 12q-4 49 -4 63q-8 14 -9 43l6 9l-12 34l17 19l-5 4v53l-10 64l17 14q-2 10 -2 33v32h-5l-10 125q4 12 21 31q0 14 2 25l4 12l2 12q-16 37 -16 68 q0 43 26 90q47 12 62 12q27 0 63 -18l47 -55l-8 -46l20 -22l-12 -27l8 -26l-26 -41l12 -58l-16 -49l6 -67l-10 -15l24 -37h14l37 -10l17 10l16 -8l14 10l50 -8l18 13l57 18v6h45q23 20 56 27q-2 2 -2 4q0 10 57 16l51 21l19 28q12 6 30 13l4 24h19v8l35 7l20 36h21 q6 37 47 52l12 16v23l37 4q12 37 39 55q8 16 10 25l27 34l20 19q6 65 78 65h2q4 0 47 -59l-18 -51l10 -4l-4 -13l2 -14q-4 -2 -16 -12l-7 -35l-22 -8l-17 -47l-26 -31q-18 -39 -49 -49q2 -2 2 -8q0 -10 -15 -39l-49 -11q-8 -12 -24 -22v-12l-41 -15l-41 -41l-60 -30l-43 -31 l-41 -8l-32 -19l-54 -10l-49 -29l-59 -28l-21 -6q25 -14 47 -41l43 -35l68 -39l6 -17l43 -10l53 -33l64 -32l35 -29l37 -10l55 -39l70 -21l51 -6l96 13h37l8 4q18 18 41 18q10 6 25 12v4l34 39l15 11l2 14q27 14 51 22l-6 -2l51 11l31 -17l8 -47l-23 -35l-61 -75l-47 -37 l-60 -31l-63 -23l-57 -12l-17 6l-26 -8l-39 6l-47 -8l-11 8l-8 -4l-33 6h-49l-30 29l-52 10l-10 15l-16 -5l-45 41l-43 13l-23 26h-67l-15 27h-20l-13 20l-32 13l-4 -4l-39 41l-35 24l-37 37l-39 25q-25 18 -76 49q-10 23 -18 22l-31 2l-8 9l-29 -7l8 -59l-12 -2l6 -21 l-16 -77q8 -14 14 -50l-12 -22l-2 -25l-2 -45l-14 -35l-7 -43l-28 -55l-53 -80q-72 0 -80 58z" />
<glyph unicode="L" horiz-adv-x="1304" d="M154 309l20 70l-12 84l18 12l4 78l15 41l10 61v127l18 33l4 16l-4 74l17 17l-19 14l25 74l6 2l-12 32l45 19q31 27 51 31l53 -9l47 -98l-28 -22q10 -14 10 -33l-23 -62v-69l-22 -64l-6 -59l-31 -123v-16q0 -23 -6 -39l-4 -29l-4 -37l4 -63l-6 -17l16 -90l29 -63v-6 l75 -45l111 -11l33 2l78 13h55l14 10l113 4l24 14l82 2l37 13l133 6l56 14q20 -2 49 -2l20 16q27 10 49 11q66 0 66 -49q0 -53 -72 -58q-23 -16 -47 -16l-76 -10h-36l-29 -21l-47 -2l-19 -14l-100 -4l-57 -27h-11q-14 0 -20 -2l-10 -10q-20 -10 -39 -11q-12 0 -33 9l-45 -11 l-47 -2l-49 -14h-121l-68 16l-55 -4l-18 17l-39 2q-90 68 -125 141q-14 49 -31 98z" />
<glyph unicode="M" horiz-adv-x="1798" d="M53 23v8q37 151 49 151q2 0 2 -2v35q0 53 41 80v12l13 41l-2 14q0 10 18 58l8 8l2 55l21 35l31 103l-11 63l27 23v6l4 80l6 34q6 16 6 29v8l-35 66l11 39l16 4l14 20l-2 17l27 24l18 -8l25 21l29 -5l51 -34v-15l18 -12l9 -47l14 -12l12 -39l-4 -9l18 -14q12 6 23 6 q12 -6 33 -26l4 -29l18 -20l15 -43l94 -91l16 -51l31 -20l33 -82l63 -111q2 -2 12 -14l5 -6h20l16 35l50 30q47 51 47 56q0 2 -4 2h-2q10 8 26 14q4 6 29 18q14 31 49 47l8 13v18q49 61 80 72q0 33 64 59l36 51l13 35h22q25 41 35 62l29 12l14 -2l-4 41l-18 41l28 43l17 51 q18 0 34.5 2t14.5 2q12 0 57 -20l4 -17l23 -18l2 -16l20 -17l-10 -10q31 -12 31 -35q0 -8 -4 -20v-33q4 -6 24 -37l-12 -10l-2 -11l4 -2l6 -32l29 -23l-23 -29l-10 -45l14 -32l-4 -47l19 -62q12 -41 12 -65q0 -14 -18 -39q14 -8 14 -25q0 -14 -12 -37l8 -8l-6 -115l22 -63 v-68q12 -18 21 -41q4 -6 45 -49q22 -25 24 -45q-12 -35 -78 -55l-65 41l-64 71l-20 48l-6 38l-8 21q-27 66 -27 119q0 12 6 30l4 5l4 38l-24 46l8 24l-4 33l2 29q-6 25 -6 43v10q0 37 -10 73v58l-15 37l-4 28l-20 -10l-66 -82l-57 -63l-23 -41l-63 -70l-70 -47l-8 -39 l-41 -14l-8 -23l-49 -22l-17 -39l-37 -12l-41 -66l-24 -14q-2 -10 -8 -39q-31 -16 -66 -17h-12l-21 39l-30 41l4 23l-21 28l10 15l-2 2l-10 33l-16 12q-39 39 -62 72l-12 38l-20 23l-39 72l-41 45l-15 24l-39 41l-43 60q-4 16 -20 32q-6 -74 -27 -108l-37 -62l11 -45 l-19 -45l-41 -127l-16 -41l-4 -26l-33 -68l-29 -45l4 -41q-12 -33 -34 -72l12 -49q-59 -59 -90 -59q-33 0 -49 31q-14 16 -19 37z" />
<glyph unicode="N" horiz-adv-x="1599" d="M195 373l16 24l10 35l-10 57l16 60l-12 39l16 96l-4 70l9 59l-9 18l4 119q-4 20 -4 29q0 14 6 27q6 33 50 34l18 -4l16 21q47 -25 66 -70h18l7 -63l26 -19l2 -24l31 -19l16 -57l11 -10l57 -39q20 -10 24 -37l5 -8l49 -31l55 -55l147 -115q43 -8 70 -51l62 -19l51 -41 l24 -6l62 -28l59 -19q33 -31 62 -43l6 31l20 41l-8 8l10 113l19 34v7l-25 32l25 84l-8 70l18 123l-27 26l27 80l-16 19l20 26l-6 23l98 47l10 -23l62 -10q-16 -39 -16 -59q0 -10 2 -17q16 -23 18 -40l-12 -33l28 -47l-6 -11q-16 -98 -35 -118l-4 -13v-96l-20 -41l6 -24 l-21 -82l9 -23l-15 -72l2 -34l-14 -45l18 -54l-34 -47l8 -26l-17 -29l7 -6l6 -94l26 -48l-34 -26l-21 -33l-76 21l-12 92l-12 4q-8 72 -8 147l-7 10l-34 7l-11 -13l-30 35l-29 -8l-45 33q-49 4 -72 8l-18 16l-8 -2l-148 88l-12 15l-45 16l-27 35l-22 10l-33 29l-96 39 l-62 73l-33 4l-20 29q-45 29 -80 68v-19l-16 -88l18 -59l-31 -100l7 -31q8 -14 8 -37q0 -27 -8 -45l18 -4l-25 -72v-45l-8 -43l15 -27l-27 -34q6 -8 6 -23q-12 -45 -43 -84h-37q-63 0 -65 88l22 70l-10 33l12 30q-2 10 -2 29q0 14 2 20l-14 19v14q0 10 2 25v22q0 20 -16 62z " />
<glyph unicode="O" horiz-adv-x="1474" d="M88 332l27 82l-4 49l10 10v39l29 29v20l12 23v20l8 10l-10 23l33 22l38 82l84 121l21 10q6 10 18 27l21 16v33l31 6q31 25 67 37l10 13q18 8 107 20l55 8l66 -8l39 2h55l12 -2l6 -2h11l12 4l65 -2l-4 -12l31 -8q12 4 12 16q10 -18 45 -19l17 -16h61l137 -59l17 -45 l12 -19l37 -14l55 -90l33 -41q55 -129 55 -154v-22l-20 -43l-8 -68l-21 -18q-12 -82 -63 -105l-15 -6l-123 -86l-36 -20l-60 -66l-37 6l-22 -16l-41 -15l-103 -53q-12 4 -32 19q-14 -20 -45 -27h-9l-41 -33l-8 4h-39l-18 -14l-78 2l-102 -16h-13q-14 0 -34 -4l-58 8l-10 10 l-82 12l-35 17h-49v22l-39 41l-51 23l-23 63l-2 47l-12 15zM231 283l7 -15l6 -30l24 -27l4 -27l21 -20q57 -33 102 -35l86 23l19 -19h24l4 4l62 10l65 -10q16 16 39 17q45 28 78 28h2l43 25l33 2l27 20l63 2q8 2 18 2l5 7q14 20 43 26l24 58l17 -11l16 9l29 26l10 -4l35 25 l61 61l27 8l12 31l16 10l-4 19l17 30l-11 58l11 16l-15 35q2 4 2 12q0 6 -4 10l-37 25l-12 33l-16 6l-6 29l-52 47l-30 24l-13 -6q-47 43 -174 72q-16 0 -20 2l-10 -6l-37 10l-21 -10q-31 10 -37 10q-2 0 -15 -4t-24 -4q-10 0 -16 2q-14 -27 -67 -47l-27 4l-29 -15l-37 5 q-37 -29 -86 -60l-10 -14l-10 -45l-47 -21l-8 -10q-12 -25 -33 -45v-35l-29 -12l-6 -4l-18 -62l-29 -16q-6 -104 -35 -145q-16 -23 -18 -62z" />
<glyph unicode="P" horiz-adv-x="1167" d="M-18 1001l22 25q8 35 45 44t76 20h16q8 -2 9 -3l14 -2l-6 -6l43 13l6 -5q6 2 18 3q18 0 39 -11h82l62 -4l112 -16l31 -23l29 8l53 -14l61 -2l8 -10h43l48 -29l45 -4l10 -14q37 0 74 -27l41 8l16 -41l22 -16h35l27 -39l78 -45v-31l39 -65l-21 -64l-37 -33v-26 q-16 -4 -41 -14l-6 -3q-10 -27 -33 -28q-25 -27 -88 -41q-31 -35 -65 -37l-29 -14h-41l-22 -15l-11 -2q-8 -8 -24 -14l-23 -16h-47l-24 -21l-88 -18q-14 0 -50 -4l-43 -33q-18 8 -36 8h-13l-14 -8l-27 -6l-18 -13l-14 -4l20 -35l-12 -51l18 -67l-2 -47l8 -19q43 -6 43 -55 q0 -47 -75 -72l-58 -18l-63 75l-27 84v78l-29 51l21 23l-6 25l2 16q-55 4 -82 10l-70 99l154 10v20l10 25l8 86l11 12l-3 78l7 33l4 110l22 47l4 4l-2 7q8 27 33 41l45 2h14q88 0 89 -66q0 -27 -29 -74v-10q0 -31 29 -63l-31 -9l-2 -51l-25 -20l8 -29l-16 -31l8 -39l-8 -18 l2 -18l14 8h41q29 23 68 24l29 25q14 -14 26 -18q23 10 78 32l27 4l32 21h17l2 4h14q41 0 74 29l45 -4l2 10l29 12l14 18q8 -2 21 -2l18 35q10 8 16 8t9 -8q6 10 28 19l2 10l15 10l2 17l-11 26l-16 19l-16 4l-39 32l-76 29q-51 31 -94 47l-33 -18l-57 35l-48 -4l-30 18h-33 l-29 16h-8q-6 -2 -10 -2q-25 0 -51 17l-49 6l-37 -4l-39 12l-43 -10l-6 4l-31 -16l-25 14v-10h-49l-37 -21l-43 -6l-55 -27l-37 52q-25 35 -24 81z" />
<glyph unicode="Q" horiz-adv-x="1509" d="M86 246l10 57l-4 86l27 60q14 0 14 6q0 4 -5 16t-5 23q0 14 6 26l-10 29l39 14q10 16 24 39q0 2 4 7t7 9l2 17l-17 24l53 39l5 15l4 4h-7l64 82v8q-2 4 -2 6q0 41 57 41q10 12 31 29l-4 12l35 18l12 33l37 6l129 52l61 -15l86 23l6 -11l115 29l111 12q63 -2 133 -12 t82 -10t37 -19l8 -6q39 0 67 -32l27 -11v-28q61 -63 68 -74q29 -39 28 -94v-51q-6 -45 -14 -127q-39 -12 -45 -43q-12 -43 -21 -54l-12 -2l-10 -33l-19 -6l-6 -8l-6 -6q-8 -6 -22 -23l-13 -12l-26 -47l-25 -12l-8 -25l-66 -26l-32 -48l-23 -8l-10 -14l-49 -21l-35 -12 l-14 -28l57 -54l18 6l60 -41l65 -20l97 -4l38 26l19 -20l74 12h16q86 27 145 41v13l45 6l23 20l49 8l19 -26q16 4 20 10q23 -19 23 -39q0 -23 -33 -61l-41 -11l-43 -32l-27 10l-45 -12l-31 -37l-8 2l-4 -6l-28 6q-33 -12 -48 -13l-92 -30l-41 26v-18l-45 -14l-26 12l-17 -10 l-26 2q-20 0 -60 8l-14 -12l-57 30l-37 6l-31 23l-53 25l-19 30h-24l-33 35l-31 14l-8 21l-31 -19h-16l-31 -28l-33 4l-28 -19l-29 5l-35 -15h-26l-54 -33l-39 15l-30 -12l-43 14l-19 -4l-71 16h-50l-16 19q-37 12 -55 30l-8 25l-11 10l-55 62l-39 30l10 35zM238 279l14 -66 l55 -49v-6h10l56 -23q37 6 22 6q27 -4 41 -16h125l45 18l47 2l6 9l19 -7v9l-10 -4l32 20q25 0 43 6l7 6l-27 49l-35 37l-4 37q-72 127 -72 211q0 27 2 41h17q33 0 45 45q78 -45 100 -74l23 -79l2 -21l16 -27l14 -49l54 -63v-10q-2 -6 -2 -9h28l17 31l39 8l14 37h8 q12 0 12 -8q14 8 29 8l25 43h28l19 12l6 29l29 12q12 33 47 41l10 15q12 47 43 53l10 10l-6 15l19 16v8q30 50 30 107q0 68 -67 137q-51 10 -39 10l-58 43l-110 19l-31 -13l-39 10l-6 -8l-8 8l-14 3l-35 -15l-35 6l-31 -10l-22 -20l-39 -5q-29 -14 -43 -30l-39 4l-29 -6 l-8 2l-25 -29q-6 2 -18 2q-25 0 -37 -22l-20 6l2 -10l-7 -9l-28 -16l-37 -53l-68 -21l-34 -65l-9 14q-2 -6 -8 -23v-24l-31 -31v-10q-25 -27 -43 -78q-4 -43 -32 -98l2 -80z" />
<glyph unicode="R" horiz-adv-x="1560" d="M14 872q0 27 29 60l47 31l74 6l69 4q20 47 86 47h56l12 -35l35 12l57 -10l78 10l113 -10l153 -4l74 -14h74l6 -6h20v6l136 -51l55 -25l43 -4l16 -19q92 -70 105 -147l-2 -10q-8 -39 -37 -68l-84 -84l-51 -4l-11 -4q-33 -18 -80 -25l-16 -14l-63 -16h-11q-20 0 -32 -9 l-50 -43l-43 25l-6 -2l-22 -12l-15 14q-4 -10 -20 -25l-39 15l-37 -15l-10 9l-12 -4l6 -5l16 -22l78 -59l23 -33l20 -21l12 -28l47 -2l68 -64l31 -12l43 -25l41 -10l51 -18l29 2l24 14l10 -27l35 6l6 -12l25 -6l70 6l28 -6l90 16l66 15l10 18h29l39 47q49 -55 49 -86l2 -10 q0 -20 -98 -88l-13 4l-18 -27l-47 -6l-41 -14l-58 12l-10 -4l-39 -26q-14 12 -35 20l-36 -35l-29 29l-12 -4q-6 6 -13.5 12t-9.5 8h-88l-14 17q-16 4 -41 10q-31 8 -60 18h-24l-19 21h-8q-16 0 -35.5 20.5t-25.5 22.5q-41 20 -84 43.5t-66 64.5q-43 23 -65 49l-58 46l-67 65 l-15 6l-38 37l-15 2l-6 -2q-12 -4 -25 -4q-12 0 -26 5t-21 67l19 20q12 43 41 70l57 6v-4q0 -6 6 -12h29q2 -12 33 -13q31 0 82 6v13q25 -4 73 -4q66 0 111 10l27 12l45 8l57 6l8 -2l10 4q16 6 56 15l16 6l18 10h9l22 17l60 18q20 10 20 16q0 8 -10 17l-51 45l-21 4l-12 8 q-12 12 -35 19h-27l-43 16h-28l-27 20h-41l-20 7l-117 8l-6 2l-8 -2l-29 6l-18 -4l-64 6l-68 -10l-34 10l-33 -4l-25 4l-32 -12l-17 6l-31 -19l-14 2q-4 -16 -4 -24q0 -4 2 -8v-9l-6 -102q-6 -18 -6 -37q0 -33 22 -61l-24 -29l12 -53l-14 -53q-12 -45 -13 -93q0 -16 4 -53 l-4 -41l15 -121l4 -16l-15 -78v-16q0 -53 -135 -53l15 108l-9 21l-24 104q-6 16 -6 29q0 16 10 41q-12 12 -12 26q0 20 18 54q-6 16 -6 36q0 10 4 35v23q16 29 16 33t-20 38l16 41l-6 35l8 8l2 21l-20 82l10 37l-10 67h-49l-49 -55q-18 29 -66 49q-33 27 -33 57z" />
<glyph unicode="S" horiz-adv-x="1521" d="M-29 213q0 23 21 80l41 45l49 -2q16 23 47 22q66 0 66 -104q-43 -10 -52 -16q-10 -12 -30 -27v-6l18 -10l25 -27l80 4l67 -20l107 2l39 -25l18 10q12 0 31 -6l53 -6l4 -10h33q47 14 53 14q10 0 25 -6q18 4 47 4q20 0 37 -4q14 8 32 8q23 0 39 -8l45 12l23 25l78 -8 q59 18 94 18h10q14 10 25 10q6 0 14 -4l20 8v17h44q14 18 51 20q29 27 47 29l16 24q0 18 -131 80l-16 13q-43 4 -68 14q-14 0 -26 2h-5q-10 0 -79 25q-23 16 -48 16q-8 0 -24 -4h-41l-6 6q-33 6 -51 18l-25 -8l-63 31h-41l-27 16h-41l-6 11h-33l-29 32h-14q-63 0 -98 25 l-4 4q-45 14 -66 45l-35 33l-22 53l-25 33l10 84l50 57q12 2 18 27q6 2 20 10l105 57q20 -4 29 -4q29 0 59 21h12v-4l21 18h10q66 25 109 25h10l18 -2l31 18q12 2 33 2h12q14 0 50 4t57 6l36 2l56 29q6 -4 26 -31h45q12 0 45 -12h15q49 0 82 -20q108 -27 108 -108 q0 -71 -112 -85l-17 25q-6 2 -21.5 8t-23.5 8h-45l-20 23l-33 -5l-19 -20l-49 35l-53 -8l-64 14q-59 -4 -100 -25l-4 -2q-6 -4 -13 -7t-9 -3l-29 12l-57 -26l-107 -29l-25 6l-45 -28h-20l-12 -19l-43 -29l4 -12l22 -22l21 -6l32 -21l64 -22l31 -3l55 -32l16 6q59 -12 80 -33 l6 -6h4l41 -25l15 15l49 -2l8 -4h29l28 -23h15q35 0 61 -10q2 0 21 2q37 0 82 -33l24 6l19 -8h34l60 -41l61 -6l25 -33q70 -43 91.5 -74.5t21.5 -91.5q0 -4 2 -12v-14q0 -25 -27 -60q-33 -43 -80 -67q-16 -14 -35 -17q-37 -25 -71 -26q-14 -14 -50 -27l-36 2l-37 -31l-39 9 l-13 -3l-30 -4q-31 -4 -51 -4q-4 0 -15 2h-16l-29 -10l-41 -4l-47 2l-22 -10l6 -6q-47 0 -74 -9l-10 3l-84 6l-119 4l-39 6q-18 -8 -43 -8q-29 0 -59 18l-39 -14l-21 18q-86 2 -100 17l-8 4q6 0 -35 -4l-80 53l-37 8q-35 16 -59 57q-20 35 -21 68z" />
<glyph unicode="T" horiz-adv-x="1253" d="M6 946q0 18 6 37v-6l45 39l39 -2l137 -25l35 10l105 -2l82 -10l53 21l18 53l82 -21l4 4l4 -6l29 -34l8 -3l29 11l59 -15q88 16 105 17q25 0 51 -10q6 0 25 -3q29 4 36 5h15l69 8l60 -10l8 -5l31 11l43 -11l102 5l45 -7h109l-51 -96l-48 -6h-63l-35 -6l-26 6l-130 -10 l-36 8l-9 -2q-20 -8 -69 -17h-74l-16 7h-6q-20 0 -60 -11q-31 -8 -76 -8l-32 8l-7 -24h-24l-6 -96l10 -17l-4 -31v-53q0 -84 -16 -112l16 -23l-12 -59l12 -17l-23 -32v-17l-12 -22l8 -45l-6 -86l-12 -39q2 -2 2 -11q0 4 -6 -26q0 -2 2 -8v-11q0 -23 -15 -43l7 -28 q0 -14 -2 -19l-3 -6q-4 -12 -4 -25q0 -39 9 -65q-45 -8 -52 -8q-18 0 -30 4l-4 2q-53 12 -54 98q2 10 2 29q0 16 -4 46t-4 44q0 20 6 35l9 84q-16 23 -17 37q0 4 4 16q-8 16 -8 25q0 16 10 26q0 18 17 51q-4 16 -4 35q14 0 14 15q0 4 -4 13t-4 19l6 -8l-8 19q0 39 10 67v60 l-10 43l10 79l-10 60l4 20l-31 -2l-22 -12l-17 2v-8q-43 0 -84 6l-6 -16l-80 26l-106 2l-68 -18q-82 70 -82 100z" />
<glyph unicode="U" horiz-adv-x="1509" d="M172 520q4 33 23 49l-7 9l9 43l-15 26v43l15 21l-7 30l15 58l-10 71l8 29l-8 39l20 23q12 23 39 22h16l49 -14q20 -8 31 -35q16 -10 33 -53l-21 -29q-27 -100 -26 -129v-6q4 -29 22 -45q-28 -117 -28 -192v-5v-14l18 -25l-8 -45l-4 -61l12 -37l-31 -27q33 -76 33 -106h56 q4 8 12 18l31 2l24 29q20 18 41 29q12 16 37 22l53 33l-2 20l47 9l35 36l2 4l4 3l15 16l16 -8l20 16l17 41l16 -2q20 16 45 31l6 8l13 12v33l34 10l23 27l23 10l4 29h14q8 10 27 18v21l26 8l35 65l16 50l7 47l22 34l4 25l4 53l15 37l51 43l59 -31l15 -16q33 -20 59 -47 l-19 -33l3 -26q-6 -39 -37 -54l-15 -26v-33l-14 -33l2 -55q-8 -12 -18 -12q-2 0 -7 2q31 -18 31 -60q0 -14 -2 -20l-16 -2l6 -21l-6 -53l14 -33l-6 -45q2 -8 2 -26q16 -20 16 -41v-9q-2 -4 -2 -8l9 -24q14 -66 49 -144l20 -30l6 -13l21 -20l47 -45l33 -6l12 20l33 -12l8 4 q25 18 55 18q14 0 80 -10l14 -51l-28 -53l-58 -17q-37 -20 -65 -24l-25 -17q-4 0 -14 -2h-16q-78 0 -121 51l-13 15l-14 2q-41 6 -63 35q-14 25 -31 51l-10 14l-15 51l-24 35l-17 53l-18 37l-33 185v63l-12 -12l-31 -21q-2 -35 -31 -34l-20 -23l-29 -16l-20 -21 q-8 -27 -37 -39l-25 -26l-32 -15l-25 -30l-166 -117l-72 -43l-45 -33l-28 -8l-51 -41l-41 -19l-68 2l-39 43l-29 19v37l-16 14l-20 125l-7 16l-8 88l12 39l-6 25l6 31l-8 90z" />
<glyph unicode="V" horiz-adv-x="1339" d="M47 905l8 35l19 33l32 10h29q27 0 53 -12l15 -17l10 4l6 -12l8 -2l6 -8l15 -31l20 -16l29 -43q12 -10 37 -51l18 -17l6 -16l21 -17l4 -28l35 -58l4 -16l18 -29q29 -27 35 -61l-4 -6l8 -2q6 -23 21 -37l16 -35l14 -39l37 -59l-4 -23l15 -16l24 -72q6 -20 29 -55 q12 10 28 29l27 14l27 31q18 20 47 65l14 10v9l25 6l2 12q10 16 24 47l27 27l14 30l23 27l22 37l29 25l31 32q8 4 18 49l10 11l7 20l24 15l-4 28l14 17v28l23 21l10 24l12 17l11 53l16 27v28q16 23 41 33l49 20l8 -2q45 0 66 -30q23 -10 22 -35v-12q0 -11 2 -17l-8 -49 l-22 -25l-17 -40l-24 -23l-25 -39q-10 -10 -10 -33l-8 -16q-8 -27 -39 -51q-12 -51 -60 -80l-14 -21l-49 -49l-29 -59l-41 -45l-24 -43l-21 -17l-18 -26l-74 -82l-35 -55l-39 -29l-2 -14l-18 -25l8 -64l-16 -38q-35 -29 -62 -29q-20 0 -37 8q8 -14 13 -22q-20 25 -84 133 l-17 39l-30 39l-17 34l-22 58l-25 41l-2 41l-29 69l-49 82l-55 82l-20 53l-27 17l-31 55l-16 12l-35 56q-16 16 -25 34q-49 29 -92 80z" />
<glyph unicode="W" horiz-adv-x="2013" d="M80 897l31 78v4q16 61 63 61q14 0 53 -12q51 -45 52 -110v-9l8 -10l-15 -41v-22l23 -158l-8 -12l12 -7l18 -34l23 -125l10 -23l15 -65l20 -9v-41l14 -26l2 -25l9 -4l12 -51l8 -2l8 -14q8 -25 13 -27v2l18 43l18 23l17 34l14 17q2 6 19 39l28 18l6 31l50 45l16 41l31 10 l2 6l4 8q14 31 35 35l30 21l15 16l6 21q45 14 59 63l39 4l16 53h23l16 33l29 2v29l27 33l10 57q14 10 41 29l2 -13l29 39h51l37 -37l32 -14l7 -51l-4 -51l4 -49l53 -123l-4 -25l14 -24l6 -25q20 -29 43 -129l27 -47l4 -27l20 -18l39 -88q2 -6 19 -29l14 8q12 25 27 39l24 12 l9 19l8 33l43 47q-6 0 -6 2q6 6 30 14l21 29l18 31l53 53l46 73l30 41l25 52l33 34l24 43l23 54l-13 16l25 47q4 10 12 27v16q-12 31 -12 58v12l10 16l19 23l6 26q25 35 59 35q29 0 55 -26l41 -41l-4 -60q4 -6 4 -20q0 -20 -14 -43q-12 -31 -12 -49q0 -2 -43 -93l-23 -47 l-18 -32v-11l-88 -108l-17 -43l-43 -47l-30 -68l-31 -10l-10 -17q-16 -8 -25 -28l-18 -43l-23 -19l-8 -18l-51 -64l-13 -36l-26 -31v-29l-19 -31l15 -69q-12 -39 -70 -55q-16 -8 -41 -9l-53 23l-31 84l-49 76l-2 49l-35 28l-24 54q-14 35 -39 80q-2 27 -23 49l-22 32l-7 35 l-20 15l-16 86l-39 73l4 13q-6 12 -17 26l-6 25q-18 -18 -71 -70q-8 -31 -60 -51l2 8l-22 -18q-6 -2 -15 -4l-24 -25q-14 -20 -47 -45l-43 -51l-54 -80l-36 -27q-4 -4 -17 -24q-6 -27 -31 -47l5 -23l-17 -10l-10 -31l-12 -14l-33 -62l18 -16l-6 -37l6 -10q-4 -2 -14 -10v-11 q0 -63 -68 -63q-29 0 -57 25l-59 81l-13 27l-59 96l-23 80l-38 72l-7 43l-22 43l-23 80v22l-55 162l4 14l-6 7l-18 53v39l-9 71z" />
<glyph unicode="X" horiz-adv-x="1337" d="M-66 -45q57 43 72 78l17 4q0 2 4 22q63 18 82 68l45 20l18 15q16 10 47 51l45 25l25 28q25 8 26 35l35 8l39 43v21l35 18l18 43l27 2l25 37l22 6l2 17l31 20q-23 47 -51 74l-19 20q-10 10 -28 37l-11 19l-30 24l-78 82l-17 25l-22 22l-45 21q-106 68 -107 135q0 10 4 22 l17 7l6 26l49 21l68 -9l28 -28l45 -2l15 -27l22 -10l13 -31l26 -10l21 -31l43 -20v-43l65 -62l8 -20h9l38 -53l21 -52l16 -12q25 25 50 37l10 18v13l61 53l33 41l10 18l27 35l43 43l8 23q4 4 23 24q2 10 6 33l43 57l30 29l50 10q77 -20 77 -94q0 -14 -28 -68 q-14 -14 -35 -45v-12l-6 -12h-10l-15 -27l-12 -8l-31 -31l-16 -20l-8 -27l-19 -8l-8 -23l-23 -14q-12 -8 -24 -30.5t-23 -32.5l-12 -5l-27 -38l-32 -29l-23 -33l-16 -10l20 -29l17 -39q33 -37 45 -51l51 -63l6 -25l51 -37l41 -41l39 -16l39 -35q27 -8 72 -25h24l11 13l20 39 q43 -8 96 -45q37 -33 37 -62q0 -78 -131 -96l-41 12q-10 -4 -27 -4q-14 0 -32.5 8t-30.5 8q-61 2 -96 43l-4 3q-39 12 -74 45l-31 18l-35 33l-41 47l-92 98l-47 76l-4 10q-12 -18 -25 -43l-28 -4l-72 -57l-37 -27l-24 -45l-148 -108l-28 -48l-62 -22l-22 -25l-25 -2l-45 -47 l-29 -10l-30 -18l-13 -5l-8 -10q-29 -35 -55 -35q-55 0 -56 68z" />
<glyph unicode="Y" horiz-adv-x="1394" d="M31 1038l10 54h25q14 12 45 12t86 -19l14 -32l33 -11l37 -57l53 -39l2 -18l43 -68l31 -22l112 -156l37 -47q74 -76 115 -123v6q0 25 24 51l-2 -10q14 33 35 53q6 29 29 45q4 14 39 45l18 9l6 8q18 53 74 53l4 -8l19 35q25 6 20 6q18 23 31 37l14 26q35 45 88 54v24l14 17 l21 16l12 43q6 -10 17 -10q18 0 32 49l62 26l33 33l57 -4l43 12l18 -43q7 -33 7 -53q0 -12 -23 -30.5t-25 -40.5q-10 -18 -28 -33q-6 -25 -41 -31l-37 -29l-27 -49h-20q-14 -20 -37 -39q-6 -2 -35 -16l-43 -47l-57 -41l-19 -6l-18 -33l-45 -27l-23 -22l-20 -51l-76 -84 l-24 -37l-11 -21l13 -20l-17 -37l10 -35l-16 -47l4 -29l14 -57q-30 -36 -30 -66q0 -16 5 -44.5t5 -41.5l-16 -90l4 -51l-8 -18l14 -74l-17 -25l15 -36l-12 -19l8 -16q6 -12 6 -27v-10l-14 -51l12 -56l-19 -39l19 -24v-14q0 -82 -23.5 -116t-85.5 -34l-18 98l-19 60l-2 39 l-26 16l18 41l-8 29l8 61l-12 66l6 51v14q-2 10 -2 17q0 6 2 14v12l-10 94l10 45l-6 50l12 81l-18 33l10 49l-2 39l-16 37q16 37 16 58q0 12 -4 18l-8 37l-13 35l-20 16l-12 18q-35 18 -93 91l-32 20l-29 53l-82 74l-16 29l-33 41l-62 49v20l-30 21q-8 51 -43 51 q-84 47 -86 143z" />
<glyph unicode="Z" horiz-adv-x="1857" d="M8 78v45l12 24h19v21h8l8 6l4 -6l27 27l49 14q37 37 82 55l16 17h11l8 26h31q8 8 10 17l29 34l4 17q33 4 47 6q18 29 49 31l27 26l36 41l45 19l2 24q33 31 68 47l-4 -4l16 6l43 56l31 2l12 10l13 25l10 4q29 29 55 32q6 10 17 17l10 28l24 7l2 6l23 4l35 47l37 22l12 33 l27 17l36 41l-2 6q-20 -12 -51 -13h-10l-14 11l-33 -4l-17 6q-10 -2 -57 -2l-53 -21l-21 21l-43 -4h-12q-8 -2 -12 -2q-27 0 -45 8l-60 -23l-14 10l-14 -8l-31 13q-14 -10 -29 -11q-12 0 -24 6l-17 -12l-26 21l-19 -19l-53 17l-18 -7q-96 6 -97 129l58 35q29 -2 77 -2 q45 0 64 2l14 -6l41 10l101 -12l20 12l55 -2l5 -12l6 8q10 0 16 -2l18 10l41 -8l41 15l33 -17h60l38 8l17 -8q10 2 31 2q33 0 51 -2h8l8 -6q18 12 31 12l55 -6q43 8 78 8q10 10 25 13q12 12 32 12q4 0 25 -4q63 -37 70 -105l-19 -36l-63 -19l-17 -16q-8 -6 -20 -6h-8l-9 -25 l-18 -8l-35 -33l-41 -25l-8 -14l-37 -37l-24 -39l-27 -4l-12 -24l-25 -13v-26h6l-76 -39v-17q-41 -16 -59 -26q-8 -33 -45 -45l-8 -21l-35 -14l-12 -10l-19 -31h-51l-10 -10q-10 -41 -60 -66l-4 -2v-8l-37 -25l9 2l-21 -10l-24 -14l2 6l-17 -6l-55 -68l-72 -41l-4 -8l49 2 l109 -6v-2q0 -4 8 -7t10 -9q12 -4 15 -4q-2 0 30 4l50 6q29 -2 49 -27q12 2 43 2q35 0 88 -20l18 2l29 -8l22 14l21 -16q47 -4 94 -11q39 -4 51 -16l4 -2l138 -4l51 -13l92 -4l27 -8l84 6q20 2 26 5.5t12 21.5l33 20l25 46l10 69l18 19q37 53 72 53q27 0 48.5 -17.5 t23.5 -42.5l-6 -47l-21 -67l-39 -88q-8 -6 -20.5 -33t-34.5 -39l-23 -29q-20 0 -26 -2l-2 -6q-18 -25 -49 -24h-9l-18 12h-6l-27 -23l-24 11l-19 -11q-33 16 -35 19q-12 -2 -53 -23q-8 33 -45 33q-23 0 -47 -8l-41 16l-35 -16l-26 22l-23 -14l-45 29l-90 8l-27 10 q-61 2 -108 16q-2 2 -11 3q-4 0 -16 -3.5t-20 -3.5q-14 0 -29 9l-49 -2l-33 18l-84 10h-33l-78 19l-20 -9l-10 9l-17 -2l-14 2q-25 -4 -35 -4q-18 0 -35 6l-45 4q-4 0 -24 4l-23 -12l-8 4q-47 -18 -76 -21l-61 -47l-33 12h-45l-12 33z" />
<glyph unicode="[" horiz-adv-x="856" d="M186 1194l70 90h23q20 0 65 4l-2 -8l31 20l43 -6l4 -10h4l39 6l12 -2l6 2h11q8 -2 10 -2q39 0 59 21l25 -6l30 22l25 -10q18 4 47 4l53 10l45 -39q-4 -12 -4 -14q0 -18 43 -68l-94 -16l-26 -18l-37 4q-20 -16 -66 -17q-29 0 -45 4q-6 0 -20.5 -2t-22.5 -2q-20 0 -33 2 l-18 -8v-12l18 -35l6 -33q8 -14 9 -35q0 -12 -2 -18l4 -72l8 -55l-8 -31l8 -57l-8 -25l8 -53l-10 -24l10 -39l-10 -7q-2 -43 -11 -90l2 -41q6 -10 13 -10h2q-6 -25 -13 -37l3 -16l-7 -2l-4 -8q-8 -25 -8 -58l8 -63q-12 -20 -12 -35q0 -4 2 -10v-13q0 -2 -5 -16t-5 -29v-69 l-6 -33v-49l8 -37v-68q0 -31 -19 -51l43 10l58 5l55 18l23 -8l32 6l47 27l17 -27l35 -2q20 14 45 14q12 0 37 -8q45 -23 53 -61l29 -27q-33 -49 -111 -55q-39 4 -80 18l-35 -8l-14 4q-27 -10 -43 -10q8 0 -29 6q-18 -8 -43 -8h-43q-6 -2 -20 -4l-27 -2l-16 -9l-35 -53 l-92 35q-39 -12 -74 -12q-51 0 -51 57q0 12 2 20l61 33l-2 39q18 12 19 35q0 4 -4 25l6 -5l-11 43l17 25l-8 35l8 14l-21 10l33 64l-6 37l12 26v35l6 15l-8 36l6 21l-6 39q16 53 17 94q14 12 14 27q0 8 -4 20q-10 10 -10 29q0 23 11 55.5t13 42.5l15 94l-15 43l12 80l-8 51 v35l11 13l-17 57l19 16q-4 6 -5 17q-8 12 -8 22v64q0 14 6 26l-10 -6v4l-8 -2z" />
<glyph unicode="\" horiz-adv-x="884" d="M-33 1112q0 29 15 59l38 11l27 18l98 -10l7 -43l8 -4v-33h4q16 0 31 -10l4 -53l18 -31l29 -10l-10 -37l57 -56q-16 -25 -17 -22q2 -2 9 -2h8q31 -27 37 -50.5t10 -43.5l-6 2l37 -23l14 -24l31 -27l24 -39l4 -22l15 -19l33 -8l6 -35l30 -12v-29l27 -22l6 -17h12l35 -65 v-27l25 -43q18 -25 26 -41l37 -47v-6l29 -17l14 -49q29 -16 35 -53l23 -25l-2 7l8 -11q33 -14 39 -55l47 -74l18 -43q-12 -55 -55 -55q-37 0 -57 47l-15 12l-30 52l4 10l-6 18l-29 15l-14 30l-29 35l-8 15l-41 36v29l-35 49l-25 8l-12 35l-51 62l-41 4v59l-4 10l-117 144 l-10 30l-86 101q-2 16 -15 28q-23 18 -22 21l-29 41l-26 33l-13 32l-55 68q-47 84 -74 113q-45 29 -45 59z" />
<glyph unicode="]" horiz-adv-x="856" d="M-61 1214q37 49 110 56q35 -4 78 -19l35 9l16 -5q25 8 43 9q8 0 29 -4q18 6 43 6h43q4 2 11 4t9 2l27 2l16 6l35 55l80 -30l12 -7q47 14 72 15q53 0 53 -62q0 -12 -2 -18l-61 -31l2 -39q-18 -14 -19 -37q0 -8 4 -24l-6 6l11 -43l-17 -27l6 -34l-6 -13l21 -12l-33 -64 l6 -34l-12 -29v-33l-6 -16l6 -35l-4 -20l4 -39q-14 -57 -15 -97q-16 -12 -16 -26q0 -8 8 -21.5t8 -25.5q0 -20 -10 -54q-12 -39 -14 -47l-17 -92l17 -43l-12 -80l8 -51v-37l-13 -10l19 -57l-21 -17q6 -18 9.5 -20t5.5 -19v-63q0 -14 -6 -27l10 6v-4l6 2l158 -35l-70 -90 q-61 0 -88 -4v6l-29 -18l-43 6l-4 10h-4l-41 -6l-10 2l-6 -2h-10q-8 2 -11 2q-35 0 -59 -20l-25 6l-30 -23l-25 11q-41 -4 -47 -4l-53 -11l-45 39q2 4 2 15q0 20 -41 67l94 14l27 21l36 -4q23 16 66 16q29 0 45 -4h4q8 0 12 2q20 4 31 4q8 0 29 -4l16 8v11l-16 36l-6 33 q-8 14 -9 33q0 12 2 18l-4 74l-8 53l8 31l-8 57l8 25l-8 55l10 25l-10 37l10 8q2 43 11 90l-2 41q-10 10 -13 10l-2 -2q2 6 5 18.5t6 18.5v16l6 3l4 8q8 25 8 59l-8 62q12 25 12 34v11q-2 8 -2 10t5 17.5t5 31.5v68l6 32v50l-10 38v68q0 27 21 51l-45 -10l-58 -4l-53 -21 l-23 9l-32 -5l-47 -28l-19 28l-33 3q-23 -14 -41 -15q-4 0 -41 8q-49 29 -53 60z" />
<glyph unicode="^" horiz-adv-x="2048" d="M412 897l514 565h194l512 -565h-98l-512 420l-514 -420h-96z" />
<glyph unicode="_" horiz-adv-x="843" d="M12 -217h819v-80h-819v80z" />
<glyph unicode="`" horiz-adv-x="1024" d="M209 1300l14 17l19 31l32 10l29 28l45 -20l29 -8l22 -31l41 -43l21 -37l22 -16l13 -25l26 -10l15 -20l28 -13l8 -10q16 -8 31 -25l6 -4q27 -12 33 -26l23 -45l-33 -47l-70 18l-14 10q-6 6 -17 15q-35 4 -43 20q-4 0 -19 3t-28 3l-18 25q-14 10 -21 22q-14 4 -36 25 q-33 12 -48 37l-20 20q-20 4 -43 37l-2 6l-41 10z" />
<glyph unicode="a" horiz-adv-x="1054" d="M72 205l12 28l4 43l14 68v8q-2 4 -2 8q0 8 4 21q-2 4 -2 16q0 14 13 47l14 7q-12 10 -12 22q0 8 2 12q-2 6 -2 15q0 25 24 37q6 20 23 41l-10 16l24 31v8q0 39 27 72l-2 36l8 9v6q-2 4 -2 6q0 12 8 20v13q8 20 43 61t51 72l11 -10l22 10l10 4l68 31l158 -9v-14l49 -10 q47 0 61 -31q0 6 2 14v9l43 -39l39 -9l74 19l26 -51l31 -13l-20 -26l16 -49l-27 -31l-10 -43l-6 -10l4 -11q0 -29 -14 -43l-4 -6v-8q6 -14 6 -27q0 -10 -2 -14l2 -8l-8 -23l6 -24l-17 -17l7 -28l12 -15l-19 -16v-33l-14 -32l10 -33l-12 -17l21 -14l-29 -47l-2 -6l20 -4 l-14 -47v-9q0 -14 -2 -22l2 -6l33 -4l26 -41l-14 -31l23 2q12 -25 14 -43l-31 -31q-14 -14 -41 -28l-35 -19l-10 10l-20 -12l-64 74v35q-12 41 -12 75v13l-12 121l16 86l-12 49l-35 -58l-19 -53l-16 -8l-29 -45l-51 -47l-14 -25l-45 -39l-10 -26l-66 -41l-70 -78l-38 -8 l-27 -21q-51 2 -78 39q-92 45 -96 129l10 6l-2 13l-2 24zM213 186l4 -39v-6l8 -4l11 2q10 10 20 19l-4 16l29 4l6 15l121 98l12 4l14 35q12 4 35 16l12 33h17l-6 35l28 4q4 8 13.5 20.5t19.5 22.5l104 139l17 31l-2 8l14 23l4 22l19 16l2 23l-9 14l-16 4l-63 52l-41 6h-33 l-4 4l-17 -6l-18 10h-53l6 -8l-47 -17l-8 -10l-7 -2q-37 -31 -51 -51l-14 -49l-8 -19l20 -28l-35 -27l4 -8q-23 -39 -22 -76l-16 -20v-37l-17 -19l-4 -18l-6 -4v-29l-6 -10q0 -25 -4 -39l4 -10l-19 -39l9 -13l-15 -20l15 -39z" />
<glyph unicode="b" horiz-adv-x="993" d="M113 1348l32 6v4l72 37l37 -43l4 -21l31 -22l-2 -31q0 -16 -4 -45q14 -14 14 -27q0 -6 -4 -14l8 -8l-8 -33l14 -37l-2 -14l27 -13l-15 -26l-12 -53q-2 -12 -8 -37q6 -12 6 -56l-4 -16l6 -16l-10 -33q0 -18 -6 -37l-2 -6q10 -10 22 -27l-22 -43l6 -24l-4 -13q0 -16 -6 -38 l2 -9l-2 -22l-2 -31l-7 -65l27 -7l4 64l14 43l9 -4l12 31q8 37 33 69q4 8 12 17l6 6v-4l8 24l25 27l14 14l2 8l13 17q0 27 18 39l4 16l27 8l10 6l4 13l-2 28l31 6l16 7l-14 14l33 8l34 27h64l39 -23l12 -2l35 -49l2 -20l16 -3l6 -43l21 -16v-31l12 -14l15 -8l8 -66v-6 q0 -10 12 -27.5t12 -29.5t-6 -25l25 -10q-4 -29 -15 -45l7 -45q8 -20 8 -31q0 -6 -4 -22l-2 -88l8 -19l-8 -33l10 -37l-19 -18l7 -49l-48 -57v-25l-16 -16l12 -19l-41 -39l-26 -45l-43 -24q-25 -25 -53 -27l-17 -37l-20 19l-21 -27q0 10 -16 27l-15 8l-16 -19h-6l-16 -20 l-27 16l-43 -18l-27 24q-6 -2 -18 -2q-33 0 -82 19l-29 14l-10 10l-33 13l-14 43q-35 2 -72 16l-43 92l6 15l-10 16v37l-12 20l8 25q-6 23 -6 39q0 4 2 8v8v64l8 20l2 121l6 29l-10 12l19 57l-7 19v45l11 12l-2 29l-9 20l19 66l-14 82l6 6v26q2 10 2 33q0 29 -4 45l4 15 l-17 59q4 14 15 20q-4 6 -11 15q6 12 7 24q0 16 -15 37q0 18 6 33l-8 20l10 23zM305 178l45 -10l27 -14l41 6l37 -17v-28l8 -9h49l33 7q12 18 37 18h6l16 6l-8 25h57q18 53 68 94v20l24 46v47l7 53l-4 33l6 18l-4 37v35l-15 94l-18 68l-27 59l-45 72l-10 -4l-8 -11h-11 q-8 -37 -45 -39q-16 -23 -43 -61l-24 -23l-8 -30l-21 -25l-20 -51q0 -35 -27 -76l-12 -18l2 -33l-33 -45l-16 -72l-15 -8q0 -2 2 -8v-10q0 -37 -18 -74l12 -37l-24 -10l-4 -8z" />
<glyph unicode="c" horiz-adv-x="882" d="M68 301l10 25l-8 16l24 39l-6 33l16 53l9 12l8 49l-4 9l24 26l4 21l17 47l26 57l37 33l8 18l13 23l4 20l33 39q12 4 28 8q8 39 103 45q80 -16 102 -43q23 -4 35 -18l43 -2l29 -37q10 -20 14 -41l16 -16l-6 -31q2 -14 2 -45l10 -8v-31l9 -63q-43 -43 -99 -50 q-29 53 -71 80l-4 68l-13 22v17l-20 24l-10 9l-19 -7h-26q-27 -6 -51.5 -38.5t-49.5 -69.5l-2 -21l-12 -10v-37l-27 -28l-33 -90l2 -25l-16 -37l6 -45l-12 -6l-4 -57l2 -11l24 -24l11 -43l28 -8l2 -17l35 -6l27 -6q14 8 35 8h14q25 10 45 10q14 6 37 13q24 32 67 32h3h12 q10 0 14 11q23 35 72 45q57 51 65 82q29 16 37 51l13 8l6 47q94 -14 94 -94v-17l-39 -36l-2 -13q-6 -37 -35 -59q-49 -92 -137 -135l-31 -25l-26 -4l-33 -24l-23 -3l-51 -32l-33 4l-37 -17l-28 9l-15 -13l-38 6l-39 -6l-15 13l-41 8l-59 45l-33 41q-31 39 -31 65v7l-20 30 v27q-6 25 -6 45v14z" />
<glyph unicode="d" horiz-adv-x="1161" d="M78 152l10 14l-10 24l10 29l-4 37l14 59v64l15 18v43l14 27l4 31l4 4v26l21 33l4 29l12 20l6 13l8 49l15 43l10 10l4 27l27 28q4 10 18 43l51 23l33 35l94 26q23 0 35 2l14 -8l5 17l47 4l16 -7l14 3l13 -11l39 -2l8 6l10 -8l20 -2v-14l9 -6l41 -9l30 -34l41 -31l11 -21 l2 -2l8 29l12 27l-4 47l8 86l-12 33l16 24l-8 23l6 57l-6 49l-18 15l28 32v23q0 35 -26 76h12l22 32q31 6 56 6q29 0 47 -12q33 -10 33 -98h-11l-2 -8l19 -17l-12 -32l18 -39l-10 -13q6 -14 6 -28t-6 -31l10 -12q4 -8 4 -27q0 -23 -10 -41q-10 -129 -19 -160q2 -6 2 -18 q0 -16 -6 -35v-12q0 -25 -8 -55l-6 -62l-10 -16l6 -19l-10 -30l10 -27l-17 -64l11 -47l-6 -26l4 -41q6 -14 6 -27q0 -10 -2 -16l12 -13l-16 -41l16 -43l-6 -12l6 -12l-6 -12l6 -7l18 -16l35 -4l54 -23l-25 -86l-16 -24q-33 -49 -64 -49q-25 0 -65 35l-41 59l-19 37l-8 37 l-18 61v90l-7 78l7 43l-5 12l-51 -71h-6l-2 -7l-35 -55l-57 -61l-43 -60l-45 -43q-18 -33 -43 -57l-41 -29l-25 -32l-45 -15l-18 -22l-45 -8l-37 -23l-6 2l-4 -10l-64 8l-76 53q-31 35 -39 76q4 2 8.5 7t6.5 7q-2 2 -23 11zM213 178l10 -18l8 -25l13 -8h14l18 16l17 -2 l35 15l4 12l39 14l4 13l24 14v4l52 53l24 10l12 27l27 4l33 37l-6 4l14 14l20 44l19 18l10 45l33 10l22 33l9 6v37l30 14l43 78l-8 4q-14 8 -25.5 26.5t-21.5 37.5q-20 6 -35 26h-12l-37 23l-47 10l-45 -6l-47 -12l-14 12l-17 -6v-8l-18 -4q-18 -33 -58 -58l-16 -35l-16 -12 l-15 -33l-6 -67l-18 -17v-36l-21 -15l4 -49l-35 -68l-6 -32l-4 -54l13 -22l-15 -23l12 -14z" />
<glyph unicode="e" horiz-adv-x="772" d="M61 174l5 74l8 33v43l10 32l-2 15l14 24l-4 -4q0 18 10 39v10l-6 49q0 35 31 62q2 4 2 12t-7 34t-7 36q0 25 12 51q16 -25 47 -25h6q4 8 19 19q16 51 45 86l8 8q0 8 12 47h17l4 10l16 5q10 16 13 19t44 26q8 14 25 26q8 4 20 8l9 13q55 18 69 18q16 0 31 -8l10 2l15 -8 q25 -18 49 -31l35 -27v-8q47 -37 47 -104l-6 -21l6 -67l-19 -13l-20 -53l-39 -43l-2 -33q-66 -47 -121 -75q-18 -29 -57 -29h-7l-38 -25h-33l-49 -20l-37 18h-4q-4 -16 -9 -49l-16 -12l-2 -25l-12 -34q6 -49 6 -64l-8 -6q0 -27 -2 -39q0 -2 -2 -6v-6q0 -16 16 -27 q6 -25 20 -31l15 -12l45 -12v-6l16 -4l70 -5l41 7l20 14l13 4l20 31l10 2l52 16q8 14 26 25l6 10q41 8 47 43q29 29 74 29h8q39 -45 39 -74q0 -25 -37 -62q-10 -33 -30 -53l-13 -2l-22 -39l-37 -6l-39 -24l-20 -37l-23 4q-23 -10 -37 -12l-12 -19q-6 2 -19 2q-27 0 -51 -37 l-28 25q-8 -2 -25 -2q-27 0 -45 8h-35l-16 10q-78 12 -99 60v6l-24 12l-12 35l-25 16v31zM289 557q23 14 51 14l14 7l6 18l29 -2l17 24h12l22 -8l11 31h14v23l27 6l6 6l4 18l26 39q4 11 4 25q0 6 -6 24l-10 2l-4 -2h-8q-4 -2 -8 -2q-2 0 -7 2h-6l-20 -14l-19 -2l-10 -4 l-35 -45l-22 -17l-33 -57l-18 -12q-6 -35 -29 -60z" />
<glyph unicode="f" horiz-adv-x="843" d="M-43 614q27 80 74 80q2 0 69 -14l119 -4l57 12l50 -2l18 -2l6 27l4 59l11 25l-7 41q0 23 17 38l-2 23l22 25l11 61l8 10l-6 27q25 29 24 47l-2 12v-2q4 0 31 97l14 10l2 45l4 -10v6q0 35 29 51l12 18l25 60h4q23 0 22 26v9l58 20h16q27 8 55 8h15l10 4l45 11l53 -13 q4 -2 17 -6q20 8 28 8q29 0 54 -43l28 -20l21 -41l31 -31l8 -57v-6q0 -41 -49 -82l-17 10l-33 -18l-41 79q-4 31 -16 52l-12 -7l-35 19l-12 2l-27 -16l-43 12l-14 -6q-18 -20 -37 -21q-8 0 -14 2v-20q-20 -33 -52 -80q-2 -20 -14 -76l-18 -12l-9 -23l-10 -18l10 -41l-24 -37 l-8 -31l-9 -16l2 -29l-28 -73l4 -35q-2 -8 -25 -58l-2 -8q20 8 35 10l12 -2q4 2 19 7h6l70 -5l6 5q25 4 28 4q20 0 45 -11q25 6 43 7q16 0 29 -7h19l26 -6q74 -2 74 -59q0 -16 -6 -39l-92 -27l-54 9q-23 -6 -75 -15l-11 10q-14 -14 -39 -14h-22l-57 -27l-29 15h-10 q-16 -20 -41 -27l2 -12l-8 -29l12 -35l-27 -53l6 -82l-10 -28l6 -29l-20 -45l6 -25q2 -2 2 -10q0 -2 -8 -44t-8 -83v-18q2 -2 22 -27l-14 -35l14 -41l-10 -33l22 -100l7 -110l32 -41l-18 -46q25 -43 24 -69v-6q0 -4 2 -11v-10q0 -78 -90 -82l-16 33l-25 14l-4 37l-41 115v23 q-8 37 -8 43q0 10 2 14l-6 35l6 34l-6 23v45l-20 129l4 4l-4 23l4 28l-15 27l13 23v106l10 12v74l6 16l-6 64l8 24q4 35 25 156h-9l-26 8h-31l-57 -8l-35 8l-59 -12l-21 4q-10 -2 -25 -2q-90 41 -96 64z" />
<glyph unicode="g" horiz-adv-x="1228" d="M63 203l9 59l20 70l-4 22l18 64l19 37q8 27 8 63l45 84q6 16 31 35l20 35l25 26q8 27 33 47q16 8 23 31t77 41l-10 -2l10 4q6 10 29 41l24 -4l19 12q33 29 69 29h15l53 21l31 -11h37l22 -12q20 -2 33 -18l29 -29l8 -4l4 -8l18 -29l2 -10l-6 -33l4 -23l-26 -41l-60 -8 l-30 49l-29 11l-15 14h-20q-10 -4 -43 -21l-2 -16h-51q-20 -31 -45 -33q-12 -8 -25 -14l-16 -39l-15 -2l-2 -18h-28l-27 -43l-22 -15l-9 -28l-30 -43l-4 -41l-25 -25l-23 -88l-16 -16l2 -23l-24 -78l6 -24l-2 -25q14 -20 14 -43l14 -4l6 -12q35 0 45 -9q18 14 101 31 q12 29 34.5 42.5t92.5 49.5l6 -2q0 16 12 31q31 12 37 16q16 10 19 27l32 8l21 19l51 69l14 -8q2 6 45 55l50 58l4 26q25 23 57 131l-10 43l-17 29l13 31l-17 22l-4 29l-6 21l20 36q33 16 48 17q18 0 49 -19l14 -26l27 -21l4 -45q6 -18 14 -55q10 -18 10 -43v-14l4 -13 l23 -33l-6 -36l12 -17q6 -14 6 -30q0 -14 -2 -23l19 -6l-15 -51l9 -39q10 -20 10 -37q0 -16 -10 -41l12 -10l18 -74l-16 -76l4 -24l-4 -7q8 -18 8 -36q0 -12 -6 -25v-4q0 -25 -19 -201l-4 -39v-8l-4 -8l-2 -8l2 -13l-6 -6l-6 -12h-8l2 -10l-4 -13q0 -14 -10 -28l-11 -33 q-6 -23 -20 -41q-14 -27 -51 -72l-35 -26l-39 -33l-31 -14l-24 -19l-17 -4q-41 -23 -92 -26l-12 2l-19 -9v-4q-35 -8 -59 -8h-80l-49 10l-43 -8l-21 19l-61 6l-41 37l-31 16q-82 31 -94 109l4 8l-6 32q25 39 45 41q16 10 33 11l38 -6q38 -7 79 -9l-5 -30l25 -17v-24l-16 -21 l94 -29l47 11v-15l14 4h4q2 0 27 -4l2 -8l21 10q25 12 98 13q12 8 20 16q2 0 11 -2h12q12 0 24 25q2 -6 9 -6q4 0 10 4t8 4h4l66 57l30 47l2 27l23 28l2 27l12 25l11 55l16 51q-2 12 -2 37q0 45 12 90l-8 33v100l-16 35v57l-17 43l2 66l-2 10l-14 -4l-12 -31l-31 -26 l-37 -60l-53 -37l-58 -59q-49 -51 -114 -90l-21 -25l-30 -18l-29 -14l-27 -27l-32 -16q-16 -16 -48 -23q-45 -31 -102 -31h-23q-10 -2 -28 -2q-16 0 -25 2l-37 2l-53 52l-39 51l-16 43z" />
<glyph unicode="h" horiz-adv-x="1091" d="M96 1206l23 29l20 35h19q45 0 67 -33l29 -23l12 -36l31 -27l-6 -29l14 -43l-2 -4l4 -4l-2 -67l2 -91l15 -57l-11 -25l4 -34l-10 -29l6 -49l-10 -41l4 -8l-4 -125l6 -29l-12 -14l-6 -68l-8 -31l8 -55l-8 -16l-2 -41q23 6 22 24l16 17l15 26l4 39l22 33l13 41l30 33l9 39 l20 2v18l2 25l25 14v16l20 5l4 32l-2 17l37 16l10 8l-4 21l19 6l14 35h25l22 14q0 14 2 21l23 10q37 31 69 37v4q51 26 72 26h2q31 0 55 -28q23 -8 29 -31l18 -12l7 -29l30 -47v-164l-2 -72l8 -18v-152l-6 -26v-41l6 -45l-8 -39q8 -31 11 -51l22 -23v-16l8 -6q10 -36 10 -50 q0 -81 -86 -81h-2q-43 0 -63 34q-20 29 -35 109v29q6 10 6 20q0 4 -2 10l-28 43l20 39l-8 43l8 25v26l4 25l-8 37l8 18v68l2 88l-14 68l8 24l-14 51l-17 -14l-45 -18l-61 -78l-25 2l-37 -60l-6 -24l-22 -10l-23 -35l-10 -23l-23 -71l-36 -46l-9 -28l-20 -17l-8 -49l-41 -37 l-6 -75h-19l-6 -13l-37 -63l-35 -37l-30 -41l-33 10h-27l-24 33l-23 74l-4 108l-6 35l6 41l-4 96l16 4l11 142l8 26l-6 43l10 7l8 65l8 23l-8 28l6 11l-4 6l6 57l-16 14l14 29l-2 59l-22 60l16 18l-14 56v32l-7 15l-10 65l-10 31z" />
<glyph unicode="i" horiz-adv-x="671" d="M94 233l25 181l8 8q-6 31 -6 59q0 18 12 76l10 47q-4 12 -16 27l12 39l4 47l4 6q-8 18 -10 41q2 4 4 11t2 11q-6 18 -6 35q0 45 48 45h8l24 -2q25 12 31 13q41 0 55 -46v-8q8 -25 8 -47q0 -18 -4 -26l-14 -103l14 -29q0 -37 -24 -65l8 -25l-27 -77q-4 -51 -10 -78v-51 l-12 -29l2 -21l-4 -47l4 -37l30 -24l25 4l4 6l16 -2l27 8l23 23l8 12l14 2l4 10l6 9l13 -9l20 21l12 -2l5 14h4l6 16l18 9l39 18q47 33 92 33h8q23 -14 31 -37q0 -47 -16 -59l-10 -9l-11 -28l-32 -10q-14 -33 -43 -52l-19 -6l-26 -29l-25 -6q-14 -37 -59 -39q-4 -6 -19 -24 q-31 -20 -63 -25l-11 -2l-14 -18h-41l-33 -25l-84 62l-39 80l-2 100zM102 1145l7 51l22 37q2 29 33 49v8l12 8l2 31l33 8v19l25 4q8 41 34 59l6 4l13 13l16 49q135 -33 135 -101q0 -25 -32 -45v-4q-39 -47 -68 -53l-31 -37l-20 -26l-47 -13l-21 -28l-33 -17l-53 -47z" />
<glyph unicode="j" horiz-adv-x="557" d="M-442 -354q0 20 12 37l65 -5l29 -40l39 -25l8 -19l33 -14v-22l10 -2l8 -15l33 -16l12 -8l15 -9l18 -18l49 -25l29 -2v-14q12 -6 25 -10h8q12 0 26 -8q14 0 25 -9h14q8 0 25 5q25 18 41 24l35 23l4 12l24 18l-2 11l2 8v4l13 18l20 49l-10 21l31 82v37l-21 16q16 39 37 55 q-12 39 -16 80l2 6l-6 5v10q0 27 14 63l-16 43l10 27l-23 49l21 14l-6 9v104q-8 18 -9 39q0 23 13 47v6l4 64l-25 71l10 33l-10 53l8 15l-16 98v100l-10 23l2 14l-12 31l20 20q6 8 14 17q16 59 60 59q37 0 53 -41q47 0 51 -49l4 -49l-14 -23l2 -26l-2 -6l8 -23l-14 -49 l8 -33l-8 -61l8 -82l-6 -27q4 -25 4 -37q0 -18 -6 -34q2 -35 16 -115v-29l-8 -67q14 -35 14 -76q0 -18 -4 -47l10 -62h-16l-4 -49v-72l4 -14l-4 -63l10 -56l-10 -22l6 -27q-4 -10 -10 -74.5t-35 -113.5q-10 -43 -43 -72h-14l-15 -24l-8 -11l-45 -22l-6 -8q2 -2 2 -7 q0 -8 -10 -22l-35 -6q-2 -2 -8 -3t-10 -1l-33 -19l-23 4l-4 -4h-24l-25 -14l-27 20l-41 21l-22 4l-14 12l-43 6l-19 19l-12 6l-62 35l-18 14l-12 19l-17 6l-6 8q-14 2 -24 18l-5 6q-8 14 -22 39l-33 23l-16 26l-17 5l-24 55q-8 18 -8 35zM94 1202q0 27 6 58l21 32l14 35 l33 29l16 39l13 26l-4 41l43 15l10 34l16 -4h19q29 4 47 4h20v-14l10 -8q29 -2 43 -31l7 -69l-41 -25l-11 -18l-16 -7q-10 -23 -43 -41l-45 -57l-25 -12l-10 -31h-6q-23 -41 -96 -88q-20 43 -21 92z" />
<glyph unicode="k" horiz-adv-x="1282" d="M125 72l6 37l-6 79l6 21v65l4 27v23q0 41 4 83t4 44v34l2 19v57l7 17l-7 24l9 68v71l-9 41l11 17l-2 8l-9 111l-14 67v19l12 69l-8 27l-4 49q-4 49 -4 43q0 72 113 76l45 24l-9 -100l9 -57l-15 -60l4 -65l11 -37l-6 -35l4 -49l-7 -41l11 -43l-4 -10l8 -21l-10 -57v-12 l10 -39q-10 -4 -10 -31l-7 -49l5 -19l24 43l12 47l29 48q0 20 14 36h23l16 35l47 23q29 29 66 41l12 10l33 16l27 6q43 37 186 50l160 -13l33 -18l16 -2l35 -37l2 12q27 -12 39 -39q10 2 8 2q8 0 16 -6l43 -88l-2 -10q10 -20 10 -37q0 -29 -22 -57v-13l-29 -75l-43 -60 l-12 -2l-25 -33q-23 0 -34 13v-33l-17 -10l-12 -23l-37 -10q-8 -2 -18 -18q-141 -55 -158 -56q-6 0 -23.5 3t-29.5 3q-8 0 -13 -2q2 -6 23 -45l27 -16l36 -66l56 -32l4 -9l18 -10l27 -31l49 -38l66 -27l36 -10l27 2l14 6q41 6 78 33l35 63l20 25l13 37q31 10 49 10 q47 0 61 -53l-12 -23q0 -59 -41 -92q0 -20 -14 -33l-10 -22l-27 -19l-12 -22l-82 -43l-39 -11l-60 -4l-32 15l-27 -2l-27 18l-20 2l-82 43l-74 61q-33 29 -98 82l-45 62l-37 31l-6 14l-19 22q-27 33 -63 70l-35 12l-39 78l6 31q12 66 66 74l39 -13l33 -32l34 -23h33l8 -6 q16 0 27 -2q20 10 72 22l18 4l12 27h50q23 18 47 21h4q6 14 16 34l39 19l16 16l31 51h14q8 20 17 58l18 12l-14 8l8 35q-4 8 -22 14l-25 -8l-8 17l-21 8l-6 8q-31 4 -88 8v8l-12 -8q-16 4 -25 4q-27 0 -78 -28h-28q-78 -27 -88 -39l-45 -15l-64 -51l-59 -59v-8l-39 -68 l-12 -39l-9 -4v-8q-6 -12 -10 -23l-12 -6l4 -6l-6 -10q-2 -4 -2 -11q0 -10 8 -18q0 -43 -21 -55q-4 -8 -4 -17q0 -6 2 -10q0 -35 -14 -57q-10 -10 -12 -15l6 -30l-6 -41l2 -33q-16 -37 -17 -59q4 -20 5 -23q0 -23 -26 -47.5t-48 -24.5q-29 0 -60 35z" />
<glyph unicode="l" horiz-adv-x="669" d="M102 485l19 31l6 51l-4 35l12 31l-12 41l18 28l2 19v72l7 14l-3 86l7 88l-9 16l-2 62l7 55l-7 21l13 122q76 18 76 21h-1q33 0 54 -35l4 -16l30 -31l-16 -43l4 -8q-4 -39 -10 -51l4 -43l10 -39l-14 -43q0 -35 -10 -64q0 -10 -4 -33l-2 -12l18 -22l-8 -23q4 -16 4 -22 q0 -12 -8 -33l4 -19l-12 -65v-43l-15 -43l8 -39l-8 -90l6 -10l-10 -48l-4 -57q-4 -12 -4 -14q0 -35 -2 -58l10 -28l-4 -31l12 -27l-2 -10q12 -10 23 -33h18l27 -8l12 17l19 2q12 4 18 4h6q20 4 33 20l12 6q14 23 47 31q10 8 39 33q0 29 35 43q31 0 41 10q41 -6 52 -21.5 t11 -58.5q0 -23 -16 -37q-16 -25 -53 -51l-21 -14l-18 -25l-19 -8l-28 -18l-21 -2l-8 -9q-41 -12 -63 -41q-14 -10 -27 -10q-8 0 -14 2q-35 -20 -90 -20q-47 0 -62 8l-37 20l-12 21v6q0 27 -23 43l-8 41l-16 18l-10 76l-2 45l2 33l4 12q-6 12 -6 27q10 86 10 109z" />
<glyph unicode="m" horiz-adv-x="1845" d="M119 795q40 79 87 79h1q25 0 47 -20l4 -20q35 -18 35 -56q0 6 -6 -43l-8 2l18 -35l-12 -16l-2 -8l12 -94l-4 -80l-6 -15l8 -32q6 -8 6 -21q0 -16 -16 -33q0 -29 -11 -47l7 -61v-25l2 4l12 19l29 51h6q12 0 26 39l15 39q4 12 30 39l9 37l24 37l8 28q10 6 21 15l2 6 q6 8 45 43l12 6l4 20l11 6q10 43 51 58l-8 6l8 4q-2 2 -2 6t4 12l33 15l6 33h22q0 2 4 14l41 33q29 8 39 8q25 0 68 -14l20 -29l8 -4l11 -25l28 -39v-26l19 -21v-31q23 -49 22 -84l-6 -24l12 -35l-22 -22l8 -45l-2 -13l-2 -10q-4 -20 -4 -31q0 -10 10 -41l-6 -22l6 -29 l-6 -6q4 -29 12 -96l-2 -8l66 71l20 39q8 12 27 39v4q8 33 27 45q0 12 20 31l16 10q8 35 43 57l11 29l18 25l21 20q18 14 28 45l17 25l8 31l22 12l23 29l22 49q-8 0 -8 4l4 8l15 12l16 33q35 12 39 12l8 -4l37 -2l33 -14l28 -33l7 -29l-2 -22l-11 -8l-22 -43l-8 -47 q10 -10 10 -37q-8 -10 -8 -27l-9 -16q4 -10 5 -33q0 -18 -3 -27l-8 -10l8 -14l-14 -19q12 0 12 -26q4 -12 5 -17q0 -6 -5 -14q4 -20 5 -39v-4q0 -4 26 -84l4 -21l23 -24l12 -29l12 -6l9 -12l10 -2l18 -4l10 2h7q20 0 49 16q8 20 43 43q2 10 24 39l35 25l12 24q16 10 35 10 q23 0 49 -12q13 -20 13 -61q-10 -29 -27 -43q-6 -23 -18 -33q-10 -20 -25 -29l-8 -12q-8 -12 -23 -12l-10 -21h-14l-10 -18l-17 -6l-12 -15l-10 -8q-31 0 -52 -18q-27 -10 -55 -11q-29 0 -57 15q-33 2 -33 10l-29 4l-6 6l-12 25l-23 18q-23 27 -24 49q-14 20 -29 78l-20 33 v18l-15 62l2 24l-12 64l6 51l-10 14l-21 -51q-39 -43 -46 -52t-17 -9q-2 0 -8 2l-12 -23q-2 -2 -3 -8q0 -12 15 -14q-4 -4 -21 -29q-8 -16 -14 -22l-6 10l-4 -29q-27 -20 -37 -61q-20 -27 -64 -76l-26 -29q-10 0 -10 -4v-4q-12 -29 -43 -45l-25 -31h-14l-50 -18 q-61 4 -75 53l-2 23l-13 26v23l-16 59v19l-12 20l8 64q-2 10 -2 28q0 16 2 23l-2 12v8l-10 23l16 39q-4 16 -12 53l6 18l6 60l-16 43l4 35l-6 18q-2 6 -15 39l-14 -8l-27 -33l-24 -23l-50 -61l-4 -23l-34 -36l-15 -29l-14 -16q-6 -45 -45 -64l-2 -29q-12 -12 -25.5 -32.5 t-18.5 -23.5t-18 -13l-24 -35q0 -35 -27 -49v-12q-12 -16 -33 -33l-2 4l-6 -29q-16 0 -31 -39l-6 -8q-2 -33 -34 -49l-29 -27q-33 -16 -43 -16q-53 0 -70 88l-8 45q-2 4 -2 12q0 14 6 29l-10 39l4 33l-4 32q4 43 14 54q-6 43 -6 49v37q8 14 21 37l-13 12q-4 16 -4 18 q0 14 25 49l-15 39l9 25l-13 59l4 29l-10 45l2 31z" />
<glyph unicode="n" horiz-adv-x="1372" d="M119 233l16 25l-8 27l14 28l4 47l-8 9l17 28l-7 15l-2 32l9 62q-4 20 -4 26q0 4 2 9v8l-11 16l6 66l-2 22l7 33l-9 55l37 62q63 -10 88 -27.5t25 -62.5v-19l14 -24l-6 -43l8 -82l-14 -39l6 -43v-35l-16 -22l12 -37l-12 -23l-2 -22l12 -23l-16 -43l-7 -18v-19l11 -20 l34 35q0 31 21 40q2 20 16 31l-6 6l27 25l6 8v19l33 24l8 21l18 12l80 90q-10 -12 -67 -76v-4l4 14l26 31l19 35v20l30 11l5 26l8 9l2 10v14l28 29v10q-2 6 -2 8q0 37 41 41q18 37 56 43l12 19l4 4q18 27 55 37l19 22h49l25 -29l22 -12l2 -6l14 -4l5 -43l34 -21l-14 -45 l23 -49v-57l16 -78l4 -74l18 -43l13 -53q12 -12 18 -35l37 -10v-41l21 -22v-7l8 -2l8 -12l8 10q-4 0 10 -2q23 0 47 41l25 6l6 11q6 16 25 24l14 -2l8 8l2 11l6 8q20 14 27 43l23 24l4 19l14 33l39 14l55 -19l19 -59q0 -2 2 -4v-6q0 -16 -27 -43l-22 -35l-9 -41l-18 -6 l-4 -12q-33 -10 -47 -52q-23 -29 -49 -41q-10 -10 -19 -14l-10 -18l-18 -4l-54 -29l-69 -8l-19 4l-31 -6l-12 14q-29 14 -41 29q-25 6 -37 39q-35 41 -34 65v6l-15 25l-4 4l-12 37l-19 39l4 47l-20 26l-31 177q-6 35 -6 59l-4 10l-10 14l-19 -24l-73 -78l-27 -43l-14 -29 l-23 -32l-16 -17l2 -10l-29 -63l-16 -21l-21 -4l-18 -18q0 -41 -39 -54l-4 -4q-18 -45 -41 -55l-19 -29q-45 -41 -59 -51q-6 -20 -22 -35q-4 -6 -15 -16q-6 -35 -57 -49l-23 -6q-41 2 -67 47l-31 51l10 49l-4 27l4 4l2 26z" />
<glyph unicode="o" horiz-adv-x="874" d="M57 135l15 27l-11 49l11 31q-4 29 -4 41q0 39 20 57q2 20 27 68h10l-4 14l6 29v30q16 18 18 25l-6 29v8q14 29 15 59l43 60l5 4t9 8l-2 8h8l31 35l2 47l51 18q29 18 37 62h27q23 12 41 12t34 -8l23 -2l53 20l29 -26l22 -15h17l30 -16h17q27 -25 61 -68l4 -10l15 -8 l43 -55l39 -97v-20l18 -72l-12 -37q0 -53 -6 -84l-13 -20v-23l-10 -14l-6 -29l-23 -22l-14 -51l-16 -6l-9 -23l-24 -14l-16 -35l-25 -12l-2 -25l-39 -14q-27 -37 -66 -47l-8 -3q-29 -43 -76 -43q-20 -12 -47 -12l-20 -14l-21 -6l-26 -21l-27 2l-29 -8l-34 14l-88 7l-31 47 l-45 47l10 33zM197 131l2 -29l18 -26l29 -10l10 -5l16 9l54 -4l8 20h8q12 0 14 -6l19 6l16 -6l27 18l4 6l18 5q14 23 68 45l4 10l41 29l22 32l33 17l2 10l11 22v27l24 21l8 14l11 12q-8 25 -9 35q0 18 13 39l8 8l-2 10q-14 14 -17 31l7 10l-19 39l4 39l-8 10q-27 20 -29 33 q-18 8 -18 41l-12 2l-25 41l-18 14l-43 17l-17 4q-12 0 -16 8l-41 -45l-27 -57l-43 -23l-6 -22l-20 -11l-9 -53l-24 -12q-8 -29 -8 -53l-33 -31l10 -6q0 -25 -18 -43q-6 -18 -17 -41v-17l-6 -8l2 -24l-22 -56l4 -10v-57z" />
<glyph unicode="p" horiz-adv-x="958" d="M-92 676q0 25 18 41l-2 31q57 33 109 34l14 15l66 26l14 15l57 -4l11 4l18 71l49 -10l33 -53l18 18l37 -26q27 0 51 -11l11 -18l14 6l16 -12q14 0 23 -2l-2 -13l45 15l22 -25l39 -12l27 -33l49 -31l2 -4l39 -12v-12q16 -12 25 -33l16 -10l12 -23h25v-41l14 -14l4 -14 l21 -4q4 -47 26 -80v-15l21 -20l-4 -33l16 -37l6 -43l15 -4l-25 -61l16 -41l-8 -13l-8 -32l-16 -29l-8 -4l-5 -39l-36 -4q-29 -27 -60 -43l-12 2l-31 -10l-18 -2l-39 -15l-45 21l-6 4l-35 -2l8 -4l-57 8l-52 -12l-20 18l-43 -4l-16 12q-2 0 -17 -2v-12q0 -18 -6 -37l6 -39 l-16 -20q4 -45 4 -68l-6 -51l8 -78l-16 -20l8 -31l-6 -21l12 -6v-30q4 -12 4 -19q0 -18 -23 -31l9 -28l-11 -17l-4 -82q-6 -143 -63 -143q-12 0 -72 16l6 62l-12 90l21 37l2 45l-9 61l17 27l-19 47l15 25l-13 41l17 36q-4 12 -15.5 22.5t-11.5 14.5q0 6 14 13q-2 6 -2 20 q0 27 13 70l-13 20l7 27l-15 18l19 23l-9 59l13 84l-15 27l23 39l-25 22l15 39l-15 10l2 35l13 43v8l2 9v22l2 8l-10 33l10 35l-10 26l8 31l-8 8l6 41l-6 23l4 20l-6 15l-74 -33v12l-15 -2l-22 -20h-19l-24 -33l-21 8l-10 -20q-100 59 -100 94zM336 610l8 -22l29 -27 l-23 -49l2 -31l-10 -61q6 -39 25 -66l-9 -22q2 -2 2 -4q0 -6 -16 -19l14 -18l-10 -25l-4 -26l6 -29l-2 -27h43q8 4 23 4q18 0 32 -12q2 0 9 2h6q6 0 22 -4q12 6 23 6q16 0 31 -8h18l16 -4l41 12l33 -20q18 -6 14 -6l39 39l4 28l11 4l-6 17l14 16l8 14l-2 11l2 8l-12 37l8 18 l-8 16l-2 21l-17 33l-8 22l-31 54l-24 20l-14 35l-19 8l-33 43l-32 -4l-25 33l-20 -4l-15 26l-8 2h-29l-20 -10l-17 16l-20 -4l-8 15l-37 6l2 -25z" />
<glyph unicode="q" horiz-adv-x="1234" d="M70 225l10 41q0 57 14 78q-2 2 -2 4t2 10.5t2 12.5q0 12 -4 18h8q12 0 13 8l-2 6l6 9v14l8 10l-4 13l20 22l19 41h10l16 53l11 6l2 23l20 4q2 2 17 12q14 33 47 41l28 33l-6 -4l17 10v19l36 28l17 4l16 9l6 18h19l10 14q37 10 47 11l10 30h58q16 4 22 4h8q4 -2 7 -2 l12 13q10 4 28 4t27 -2h12l7 6q31 0 55 -15l26 -6q16 4 23 4q18 0 33 -14l24 -31q0 4 2 -10q0 -18 -16 -41v-8q0 -23 -18 -41l-48 -14l-8 6l-20 6l-21 -14l-26 14l-23 -6l-22 6l-35 -29l-19 15q-16 -10 -20 -11q-6 0 -6 9h-21q-6 -8 -6 -19l-18 -10l-17 -21l-16 -2l-16 -6 l-21 -20l-20 -8l-19 -27l-26 -25l-76 -98l-21 -63h-14l-31 -72v-37l-12 -18l4 -70l4 -16q23 0 45 2l35 10l12 4l17 -2l14 14l23 2l10 -12h10q4 0 6 -2l17 14l24 9l4 20l45 10l11 8l20 11l33 8h8q23 0 22 10q-2 12 -2 10q0 2 2 6q12 2 43 43l11 7l10 22l16 10l23 4l20 17 l19 27h14l27 36v4l20 15q6 27 31 35q6 8 14 18v14l6 4l-4 31l27 19l12 12l-2 6l-6 8l10 33l-8 23q6 20 10 20q-2 6 -2 16q0 16 6 60q2 0 9 2h10v31l18 16l39 18l31 -16q27 -2 27 -10v-2h4q6 0 30 -27l13 -35l-4 -32v-15q0 -39 -17 -80l-4 -10q-6 -25 -6 -31l-8 -69l6 -72 l-12 -12q2 -33 2 -84l-11 -31l5 -55l-19 -82l4 -29q10 -29 10 -76l-8 -10l6 -35l-12 -37l6 -28l-4 -35l14 -29l-4 -24l4 -29l-4 -8l9 -8l-5 -41q16 -49 19 -82l6 -25l12 -4v-39l19 -8v-29q8 -8 33 -49l38 -16h25q20 4 31 4q37 0 78 -29v-73l-25 -17l-29 -33l-39 15l-28 -21 l-29 19h-59l-2 4l-62 43l-6 10l-20 4l-15 39q-23 31 -24 45l-21 23l-29 98l5 4l-13 23l11 18l-11 35l-6 61l-10 55l4 19l-4 16l8 39q-2 12 -8 45l8 33l-6 16l6 68v82l-6 16l6 27l8 125l-2 37l-18 -11l-6 -12l-15 -12l-6 -12q-10 -20 -26 -35l-43 -37l-43 -59l-35 -17l-4 -24 l-31 -23l-35 -29l-24 -8l-25 -24h-21l-14 -9l-29 -8l-16 -22l-27 -6l-28 -5l-10 -6l-19 -22l-31 2l-6 -4l-26 6l-23 -4l-33 -17l-26 15q-16 4 -25 12h-33l-2 8l-34 29l-29 12l-15 39l-12 23l-8 28l-10 19l2 33z" />
<glyph unicode="r" horiz-adv-x="800" d="M102 770q0 41 91 70l51 -11l10 -38l20 -27l-6 -55q6 -41 15 -91l6 -32q2 -4 4 -23q0 -12 -10 -26l6 -41l-4 -45l-9 -21l7 -8l4 -21q12 14 14 31l8 31q6 12 19 18l8 31l29 16l4 25l22 25l17 30q27 29 51 37l4 6l18 29l21 4l6 6l8 12l23 13l12 14l12 -2l17 8l8 13l24 12 l35 22l49 17q29 4 31 4v-2q-2 0 -2 -2h2q8 0 25 8q10 8 28 8q8 0 29 -4q53 -2 59 -49l-16 -68l-76 -10l-41 -27l-26 13l-29 -17l-31 -12l-20 -14v-9l-43 -20l-29 -37h-14q-33 -35 -47 -43l-29 -47l-10 -4q-6 -16 -15 -49l-28 -10l-13 -25l-16 -21l-4 -30l-16 -6v-31l-7 -6 q6 -10 15 -23l-31 -12l-4 -27l-21 -34l13 -27l-27 -37q4 -20 4 -29v-8q-2 -6 -2 -10l4 -19l35 -36l-27 -47l-24 -19l-57 -29l-76 31v47l-8 19l6 30q-4 33 -4 50q0 6 2 16v14l-2 21q-14 14 -15 33q0 16 15 36q0 10 -4 62l6 6l-6 27l4 24l-4 14l6 48l-13 20l9 23l-9 26 q2 12 2 33q0 31 -8 41l8 12l-8 37l-18 27l10 33l-8 12l-8 49v16q-10 12 -11 31z" />
<glyph unicode="s" horiz-adv-x="929" d="M0 137v19l39 28l49 19l37 -19h29v-6q20 -8 32 -33l17 -2v-26l26 -6l7 -5l262 17l63 10h6l4 10l29 4l4 7q43 6 80 24l2 10q-2 2 -8 15l-10 -2l-27 20h-18l-11 15l6 8l-22 -4l-16 18q-6 -2 -21 -2q-27 0 -53 10h-19l-14 6l-29 -10l-16 19h-6l-29 22l-63 25l-21 16l-78 14 l-8 15l-57 37l-31 67l-24 35l-9 106l9 13q4 47 32 82q31 16 31 47l31 6q8 16 33 31l30 24l129 49l23 7l41 4l67 18l129 -8l5 -10q18 -6 40 -33v-10l33 -21l-14 -49l-4 -18q-12 -51 -58 -52q-37 0 -55 35v6l-24 2l-29 -8l-27 19l-14 -11q-27 0 -49 -16q-31 0 -60 -25h-26 l-19 -14l-28 -6l-4 -4l-13 -6l-18 -19l-6 -2l-19 -28l-22 -13q-8 -27 -10 -45q2 -29 7 -38t27 -19v-10l27 -15q33 -12 49 -26h41l27 -23l47 -6l18 -12l80 -23l10 -22l9 14q27 0 71 -25l37 -6l4 -14h33l57 -33q10 -27 45 -49l23 -14l-6 -25q14 -20 14 -43v-6l-25 -29l-22 -53 l-16 -12l-15 -29l-41 -4l-26 -27h-41l-25 -20l-22 6l-27 -6v-17l-76 7l-33 -2l-24 -13l-21 13q20 2 33 2q-16 -2 -98 -9l-6 2l-17 3l-26 -15q-12 8 -45 19q-45 4 -60 4h-16q-14 2 -31 2q-16 0 -33 -8l-28 18l-17 4q-6 0 -22 6q-76 8 -76 127z" />
<glyph unicode="t" horiz-adv-x="720" d="M-57 756l39 37l51 -9l26 4l39 -10h43v41l-26 58l26 14l-10 31l2 63l-16 27q-14 23 -15 41q0 23 11 37l6 28l16 17q55 10 74 10q66 0 72 -60l-7 -10q12 -18 13 -35q0 -2 -2 -10l-4 -12l-2 -14l8 -27l-2 -10l4 -29l-19 -25l11 -41l-9 -49l17 -18l-17 -37l64 8l113 -10 l90 14l30 -2l11 2h79q64 0 64 -45q0 -18 -37 -35q-8 -10 -31 -18q-29 -12 -41 -20l-43 14q-33 -25 -84 -25l-24 6l-19 -16h-55l-35 -23q-23 8 -43 9q-6 -4 -28 -9q-10 0 -23 7l-6 -78l2 -58l-6 -71l4 -78l6 -37v-29l29 -61q-6 -6 -6 -14q0 -14 45 -23l4 -24l14 -7l25 -16 l16 -12q20 4 29 4q18 0 37 -6q8 4 34 28q18 16 35 17h6q4 -2 7 -2q18 39 65 51q43 0 72 -27v-14q0 -70 -49 -88q-18 -43 -78 -55l-25 -23h-26l-48 -12q-16 -4 -47 -4q-16 0 -34 8h-27l-72 39l-18 6l-43 57l-25 27l-45 102l-16 97l4 24l-17 23l11 28l-11 45l15 15l4 26l-6 25 l4 37l-8 33l10 10v33l-14 6l-39 -9l-37 27h-6q-61 0 -62 66v6z" />
<glyph unicode="u" horiz-adv-x="1265" d="M113 190l8 9l-4 4v12q-2 6 -2 10q0 23 6 43l2 54l-8 43q10 16 10 28q0 14 -12 27l22 16v25l-8 67l23 131q0 33 -19 97q6 66 86 71l16 -6l29 -4l37 -41l-12 -53l-4 -88l6 -68l-13 -24l7 -17l-11 -32v-21l-4 -6q2 -6 2 -18q0 -27 -8 -56l10 -14l-8 -31l4 -24v-29 q10 -12 11 -31q0 -16 -9 -33v-8q10 -35 11 -45l18 -18q12 8 29 20q6 20 28 27v20q12 0 39 6l4 19l35 14l6 6q14 14 47 27v8l39 29q14 39 52 51q23 23 30 27l27 35v6l8 4l19 8l10 29l43 18l8 2l14 14v19l13 4q6 33 32 49l31 70l10 37l4 8h9l14 10l-12 4q23 37 34 78l60 2 l47 -39l20 -33l-22 -88l-31 -41l-24 -80l-21 -12v-31l-12 -22l6 -37l-16 -14l8 -66l4 -92h10v-53l29 -35l26 -14l2 -11q14 -2 35 -10l51 -4l31 8l55 27q16 8 41 8q62 0 62 -53q0 -25 -37 -60l-16 -6l-15 -18l-37 -10q-10 -14 -20 -15q-2 0 -4 2h-6q-43 -22 -104 -22h-5h-16 l-51 10l-35 16l-78 66l-16 55l-33 27q6 8 6 26q0 12 -16 41l6 50v8q0 25 -15 63l13 62l-27 -54l-31 -4l-4 -43q-16 -8 -39 -8l-22 -49l-27 -31q-16 -18 -29 -20l-6 -4l-73 -76h-9l-38 -45l-37 -19l-21 -26l-47 -15l-68 -26l-40 20q-41 0 -58 37l-18 10q0 6 2 17v14l-33 29 l8 12z" />
<glyph unicode="v" horiz-adv-x="1011" d="M-10 743q0 57 88 93q113 -76 133 -152l6 -47q8 4 29 8v-18l33 -25l-13 -33l4 -24l19 -49l10 -11l2 -18l16 -8v-35l23 -80l4 -31l33 -65l26 -80l21 -21h4q8 0 14 17l17 6l-6 16q6 12 14 13q8 0 16 -6q14 41 21 40q2 0 2 -6q8 25 39 41l26 39l17 41l20 17l13 26l8 6l-4 27 l22 10l4 10q0 8 11 23l14 37l10 -12l8 4v6q0 27 23 45v4l14 27l10 45l15 4l26 63l19 25q6 31 28 47l19 57l14 19v43h10q25 16 41.5 50t24.5 40l10 6l58 35l45 -62l-21 -35l6 -38l-30 -19l-9 -43l-18 -14l-6 -45h-6q-6 -29 -35 -45l-19 -66l-18 -29q2 -12 2 -26l-33 -29 l-47 -108l-39 -64v-20q0 -29 -33 -50l-4 -36l-14 -9l-25 -32l-6 -23l-14 -10q0 -6 4 -27l-22 -18l-37 -23l-13 -20l-41 -43q-63 -111 -133 -111q-55 0 -100 58l6 -15l-72 105l-4 24l-12 8l-2 50l-23 22v51l-53 119l4 21l-16 28l-4 23l-10 14l-15 37l-37 29l-16 67l-29 25 l-16 26q-51 16 -51 84z" />
<glyph unicode="w" horiz-adv-x="1388" d="M-6 819l29 37q12 23 51 29l43 6l14 -21l27 -12l18 -37l17 -14l-7 -33l9 -20l-7 -19l21 -33l-4 -30l26 -92l-4 -23l13 -55l28 -66l13 -78l20 -24v-49l14 -43l2 -17l29 19l47 75l15 35l16 29q0 20 8 31h12l7 37l22 4q4 16 19 24v4q0 12 12 25l-4 14l10 4l-2 13q18 33 41 49 v41l29 16l8 6l4 4q-10 20 -10 45q0 37 32 72q18 8 45 8q16 0 25 -2l39 -35l20 -30l13 -49l18 -33l-4 -23l14 -45v-18l35 -62v-6l8 -6l41 -98l2 -27l21 -22l47 -107l10 19l37 75l23 19l16 43l20 10v31q12 10 33 20q12 6 12 10l-2 43l25 25l10 6l31 51v6q4 23 27 52l-4 22 l36 45l19 45q-23 61 -23 105q0 63 66 71l55 -16l8 12l15 -18l20 -14l-6 -23l25 -29l-11 -39l4 -20l-24 -80l-4 -29l-29 -30l-10 -39l-23 -33l-32 -72l-39 -65l-60 -88l-10 -27l-31 -55l-35 -72l-61 -110l-12 -50l-33 -47l-61 21l-35 20l-33 97l-41 69v21l-25 57l-10 12 l-86 181l-26 43l-23 -35l-33 -27l-47 -65l-33 -35l-18 -54l-45 -55l-4 -18l-31 -64v-30l-20 -29l-2 -29l-21 -6l-45 -47l8 4q-20 -12 -55 -16l-14 16l-31 12v23l-12 16l-13 56l-16 36v27l-2 8l-31 88l-8 56l-21 22l5 27l-21 49v18l-16 45l-29 39l4 45l-2 15l-23 53l-4 33 l-12 20q-12 20 -18 41z" />
<glyph unicode="x" horiz-adv-x="985" d="M-119 -150l13 48l20 20l4 23l23 18l14 39q2 -2 7 -2t13 -4l25 53l16 8l23 43l10 47l29 11q6 18 24 34v5q0 29 31 49q23 0 25 41l14 8l6 16l10 4q14 25 35 35l19 43l12 8v29l22 8l23 17l8 28q4 10 21 23l-15 18l-4 15l-8 4l-39 73l-35 60l-24 51l-43 47l12 27l-12 55 l76 16l65 -12l8 -37l41 -43l-4 -18l19 -41l30 -41l4 -41l17 -39l16 16v17q12 4 17 6l8 2q14 14 20 29v8l23 10l-2 6q10 10 34 29v20l27 2l25 17l6 24q10 4 31 13v6l8 -2l6 -17q25 51 51 64l16 18l35 6l68 19l29 -47l18 -17q0 -61 -55 -80l-6 -2l-129 -106l-19 -31l-31 -12 l-24 -27l-29 -32l-41 -17l-8 -22h-12l26 -39l8 -33l9 -12l20 -11q8 -16 21 -49l2 -10l49 -31l12 -51l31 -24l20 -31l33 -21l6 -14l17 -10l8 -10l22 -7l27 -41l22 4l35 -18l113 -12l4 -47q-49 -57 -88 -58h-4l-33 -16l-37 18l-30 9l-50 36l-49 9l-61 53l-62 80l-63 63l-2 13 q-35 41 -53 73l-7 15l-20 18q-4 18 -10 27l-11 -11h-16l-22 -34l-7 -17l-30 -20l-11 -43l-34 -27q-6 -31 -23 -49l-24 -10l-3 -19l-26 -37l-43 -34v-7l-66 -67l-51 -72l-22 -35l-21 -14l-78 -68z" />
<glyph unicode="y" horiz-adv-x="1353" d="M96 -444q0 33 15 79v19l20 10l12 35l9 -4l20 33l37 28l29 8l55 46l53 -5q20 20 53 21q47 -23 47 -55q0 -20 -18 -41l-29 -15l-30 -22l-31 -8l-19 -35h-30l-13 -21l-26 -22l2 -31l-16 -29l8 -20l14 -33l45 -29l10 -30l56 -43l30 -2l37 -29h37l23 -23l28 3l17 -13l98 4 l63 21l39 -2l43 24q16 6 29 7q4 2 14 8l11 16l20 -6l8 8v17q2 12 27 20q8 20 33 35q6 10 10 45l29 16l6 15q8 16 16 34l2 7l6 79l9 7v32l-9 31l13 25q-4 41 -4 55q0 18 2 41.5t2 28.5v104l-15 27l15 43l-4 41v104l-7 27l9 14v27q0 14 2 18l-17 47v72l-22 -37l-25 -18 l-24 -25l-17 -6l-6 -25l-18 -10l-2 -6l-29 -25l-39 -47l-55 -57l-21 -6l-6 -11l-61 -45h-19l-20 -20l-9 -21l-45 -14l-8 -14l-30 -4l-43 -29l-35 -8l-17 -12l-22 -5l-6 -4q-26 -28 -80 -28h-4q-61 0 -97 39l-45 67l-2 39l-24 74v61l-8 25l12 20l-10 45l14 13l2 20l12 25 l-4 43l8 16v14q0 43 15 101l-6 55l6 51l-19 74l4 14l-8 13l25 65q8 33 8 66q25 12 49 12q18 0 37 -6l18 -41l35 -25q-6 -31 -10 -49l18 -31l-8 -20l27 -23l-25 -45l13 -53l-15 -22l2 -5l-12 -88v-79l-12 -13l-9 -71l-18 -23q0 -10 2 -27v-20l14 -37l-14 -27l4 -32l-4 -8 l4 -25l19 -16l14 4l2 -13l14 21h60q12 12 30 20q47 33 84 37l2 27q57 31 146 80l8 16q-6 -4 -10 -6q6 4 29 18l8 27l14 22l29 11l16 24l10 -2l13 8l24 27l10 2l2 6l37 39l23 37q23 6 39 29l28 59l-4 64l21 8v6l-12 37l2 8q-14 23 -15 35q0 23 25 55v-6l8 20l2 9v-7 q16 41 82 43l66 -63l6 -53l20 -35l-12 -33l2 -14v-10q-4 -6 -10 -19l6 -12v-33l-8 -33l8 -45v-32l6 -15l-4 -39l14 -51q-6 -23 -18 -51l2 -12l14 -74l-14 -78l6 -37l-12 -26l8 -91l-8 -14v-59l-2 -47l6 -21l-4 -129l16 -37l-12 -16l6 -35l-10 -10l10 -35l-19 -21v-14l-8 -18 q-6 -35 -45 -101l-14 -51q-16 -8 -21 -12l-6 -6l-18 -25l-21 -31l-34 -18q-25 -45 -58 -51q-10 -10 -14 -12l-6 -7l-29 -12l-16 -16h-21l-10 -17l-37 9l-39 -25l-37 8l-67 -10l-15 2l-10 -4l-67 12h-31l-12 12l-82 27l-70 10l-10 19l-37 4l-12 35l-25 6l-16 30l-39 15 l-33 47l-59 37l4 39q-4 2 -19 80z" />
<glyph unicode="z" horiz-adv-x="1138" d="M-43 805l33 45l22 -4l15 6l39 4l30 -10h31l23 -15h53l26 -8l37 8l29 -8q10 4 27 4q16 0 24 -4l-2 4l35 -4h92l121 6l12 -4l21 9h43l73 16l37 6l31 -4l43 14l35 -2q29 4 41 4q70 0 76 -94l-37 -20l-21 -21l-31 -10l-65 -59l-14 -5l-43 -53q-35 -10 -60 -37l-8 -26l-33 -29 l-39 -55l-24 -10l-86 -101l-31 -12l-25 -33l-12 -4q-20 -23 -47 -45l-18 -31l-45 -35l-37 -43l-27 -22l-2 -6l70 8l20 8l51 4l21 -10l104 8l99 -16q16 4 24 4q12 0 25 -6l28 16l43 -16l31 8l41 -6h16q10 8 31 14q12 16 27 23l8 16l4 4v14l31 48l57 -7q37 -49 37 -86 q0 -27 -12 -39l-41 -51l-13 -32l-34 -11l-11 -18l-53 -12h-41l-80 10l-30 -12l-39 12l-56 -10l-14 16l-16 -4q-16 -4 -47 -4l-39 6l-68 4l-51 -4q-41 14 -60 14q-20 0 -65 -16l-45 16q-8 -2 -23 -2q-18 0 -26 8l-33 -34l-31 -9q-35 -23 -57 -30l-47 22l-21 35l2 43l15 27 l26 20l13 21l30 26l23 6l12 11q10 10 25 22l2 4l4 6l4 6q4 5 8 9l12 6l62 49l6 10q33 33 53 37l11 14l4 13l24 24l15 23l26 4q4 8 15 29q12 2 16 16q23 25 43 31l2 10l31 18l32 43l15 9q-8 0 -17 -2l68 51l12 24l25 17l33 51l30 20l6 13h-36l-27 -9l-37 7l-33 -11l-20 11 l-60 -21q-27 8 -59 8q-25 0 -53 -6l-23 10l-43 -6l-16 6l-37 -10l-70 15l-53 -5l-31 11l-57 10l-41 -10l-31 26z" />
<glyph unicode="{" horiz-adv-x="843" d="M158 608l71 35l72 10l6 -8l12 4l-8 23l47 18l7 33l-7 35l21 41l-4 20l8 27l-10 59l14 15l-4 38l-2 3l18 51l-8 47l17 28l6 41l-11 39l33 21l-6 43l41 8q12 14 29 27l14 37l59 14l101 14l18 -4l25 21l57 -17l29 -49l-17 -78l-57 -26l-41 12l-29 -6l-14 6l-47 -6l-6 -2 l-4 -23l-27 -18l-10 -19l2 -32l-16 -35l4 -58l-19 -57l8 -76l-14 -6l-2 -24l10 -66l-10 -18l8 -31l-4 -4l10 -10l-28 -62l-6 -8l14 -27l-37 -24l10 -15l17 -41v-45l-6 -28l10 -37l-15 -31l-8 -31l19 -45l-9 -28l-6 -52l-4 -6l10 -20l3 -39l4 -49l-4 -17l16 -45l-4 -28l2 -17 h31l2 -14h6l37 -29l24 -6l21 -4l35 20l6 -8l30 -4l39 17l51 -70l-14 -51l-47 -56l-41 11l-6 -4l-68 6l-20 8l-23 -8l-65 24l-10 17h-27l-33 28l-59 45l-21 78l6 25q-10 27 -10 47q0 18 6 31l-6 26l-20 29l12 49l-10 53l8 43l2 25l-10 33l14 30l2 21l-14 33l14 30l-10 -2 l-8 27l-21 -6l-4 4l-51 -2l-68 22z" />
<glyph unicode="|" horiz-adv-x="1024" d="M438 -483v2048h150v-2048h-150z" />
<glyph unicode="}" horiz-adv-x="843" d="M51 1233l12 51l50 47h41l4 4l67 -4l21 -6l22 6l66 -24l10 -17h27l35 -24l57 -45l24 -78l-6 -25q10 -23 11 -51q0 -20 -5 -29l7 -24l20 -29l-12 -49l10 -55l-6 -43v-23l10 -31l-12 -34l-2 -17l12 -33l-12 -34l10 -15l10 -8l17 8l6 -6l41 -2l80 -16l28 -80l-69 -35l-74 -12 l-6 8l-13 -2l9 -27l-43 -16l-11 -35l11 -35l-21 -39l4 -20l-8 -29l12 -59l-14 -15l2 -36l-14 -56l10 -45l-16 -33l-4 -38l4 -41l-25 -17l-10 -39l-25 -14l-28 -29l-15 -35l-57 -16l-43 -6l-57 -10l-19 4l-27 -21l-57 15l-29 49l17 78l57 28l41 -12l27 8l14 -6l47 6l6 2l4 23 l27 20l8 17l-2 32l17 35l-7 60l17 55l-8 76l14 6v24l-8 66l8 20l-8 29l4 6l-10 10l26 60l6 10l-14 27l39 24l-12 13l-17 41l-2 45l6 28l-14 43l16 27l9 31l-19 45l6 26l4 52l5 6l-9 22l-4 39l-4 49l2 17l-16 43l6 30l-6 17l-29 -2l-4 16l-43 27l-22 6l-23 4l-33 -21l-8 7 l-31 6l-39 -19z" />
<glyph unicode="~" d="M178 451v155q211 143 387 144q113 0 301.5 -68t276.5 -68q168 0 387 156v-156q-203 -141 -389 -141q-86 0 -289 70q-190 66 -289 65q-162 0 -385 -157z" />
<glyph unicode="&#xa1;" horiz-adv-x="638" d="M186 1069l17 -12q0 2 4 22l51 41l37 -10l31 14l28 -16h41l27 -80l-16 -49l-31 -29l-10 -2l-21 -20q-18 0 -43 10q-33 0 -49 10q10 8 22 10l-45 7l-14 26zM238 160l4 8l8 35l6 -2l8 24h-6q-2 14 -6 35l6 21q-2 12 -2 32q0 12 2 19l4 20l2 54l6 110l-14 21l14 51l-12 43 l10 20q-6 16 -6 29v10l-10 37l12 6l-2 10q0 14 6 27l-2 14q10 55 62 56q59 0 59 -76v-43l6 -45l13 -41l-11 -23l8 -20l-8 -53l21 -11l-13 -45l5 -20v-35l4 -12q-6 -27 -13 -51l4 -7v-12l13 -22l-17 -29l9 -23l-7 -20v-53l-2 -29q0 -23 -2 -31l13 -14v-25l20 -18l-20 -86 l-45 -2q-12 -4 -37 -4q-8 0 -74 20l-10 29q-2 12 -2 35q0 14 2 18l4 10l4 9z" />
<glyph unicode="&#xa2;" horiz-adv-x="1267" d="M84 313l12 121v21l15 63v8l18 43v54h14q10 23 29 43l23 51l10 8q10 2 22 14l-12 15l35 34l-4 7q6 43 47 45q0 -2 2 -4q4 6 22 34l23 7l4 18h55l29 16l2 23l-6 29v22q0 6 -3 32.5t-3 49.5q0 14 4 55l-4 -2q-10 45 -10 58v4q0 20 26 43l49 16h54l12 -33l8 -67l-22 -19 l10 -12l-6 -16v-23l-11 -10l2 -53q-6 -33 -6 -50q0 -37 62 -36h41q-2 4 -2 12l2 63l8 23l-8 37l16 43l-8 43l10 6l-10 20l8 23l39 53l20 -6q86 0 86 -88l-6 -31v-30l-12 -11v-12l-10 -25l6 -22l-25 -57l4 -33l11 -27l-15 -20l11 -13l32 -20l25 -27l22 -14l17 -14l41 -13 l2 -24l24 -17l3 -59l-11 -45l-16 -27l-37 -10q-8 -6 -18 -6q-20 0 -43 27q-16 10 -70 79q2 -23 4 -59l-12 -113l-2 -86l-4 -53q2 -10 2 -29q0 -29 -9 -47l11 -18l-21 -39l-2 -39l4 -8l6 2l19 12l29 8q14 8 34 13q37 18 99 43q8 10 34 22q35 23 54 25l6 4q16 18 45 18h10 l6 17l49 20q12 10 27 31q18 12 35 12q55 0 55 -55q0 -20 -8 -37l-27 -12q-10 -14 -34 -31q-10 -20 -37 -27l-68 -47l-49 -22l-33 -27l-39 -16l-43 -35l-55 -8l-51 -33l-19 2l-32 -31l-19 2v-8l-2 -33l2 -51l-2 -10v-115l2 -55l6 -27l-2 -10q2 -10 2 -29q0 -29 -8 -47 q-12 -8 -24 -20q-37 0 -58 27v110l-4 19l4 38l-8 25l8 53l6 45l-8 52l2 18l-29 -14l-38 8l-48 -10l-10 -39l4 -60l-8 -67l-12 -45l14 -29l2 -25l-35 -12q-35 6 -34 113v63l-13 51l9 37l-19 8h-35l-14 -4l-70 17q-37 14 -47 43l-47 18l-20 49l-33 47l-23 52l6 24zM229 350 l7 -14v-17l14 -28v-25l8 -16l6 -25l15 -12l6 -10l26 -19l54 -22l32 -4l19 10l-13 41l11 27v6l-6 22l12 49l-6 88l8 2l-6 39l4 56l-8 43l8 22l-4 45l4 47l-6 19l12 24l-6 45l4 29l-16 -4l-15 -49l-24 -19q-47 -55 -86 -145v-8q0 -41 -33 -72q0 -29 -21 -74l15 -28zM483 215 l4 -47q12 -4 33 -4q16 0 25 2q31 0 45 18l20 39l2 62l-8 24l8 64l-8 24l12 4l-12 25l6 74l11 14l-11 33l13 71l-11 60l9 43l-9 22q0 10 2 21v14q0 4 -2 4h-2l-30 9l-68 -15l-10 -37l22 -43l-18 -32l6 -15l-10 -65l10 -27l-14 -29l8 -36l-14 -29l20 -47l-6 -19l4 -18l-18 -37 l20 -51l-10 -15v-30z" />
<glyph unicode="&#xa3;" horiz-adv-x="1378" d="M6 547q0 18 6 39q33 16 49 16l41 16l41 9l43 -9l39 5l64 -7l24 5l-4 6l39 16l2 8l-4 15l16 22l-6 12l11 25v33l8 4l31 29v8q0 41 28 71l6 19l11 16l6 35q27 8 57 55l4 33l45 21l10 4v22q12 -4 19 -10q4 41 63 43l62 12h14q33 16 78 27q8 0 41 -4l14 8l56 -16h8 q27 0 45 -17l16 -4q-29 14 -47 23l92 -43l15 -21l22 -12h16l29 -43l25 -31l4 -29q29 -29 31 -47l-13 -16l13 -27l-25 -28l-53 -6l-76 47l-21 59l-12 -2l-33 51h-14l-22 10l-27 -16l-27 29l-22 -6l-31 12l-53 -14l-8 2l-17 -7q-14 -12 -35 -22l-22 -25l-21 -6l-20 -31l-23 -8 l-2 -24l-24 -21q-6 -33 -31 -57v-23l-29 -34q0 -16 -4 -33l25 -29l-60 -43v-25l23 9l25 -4q4 0 12 2h10q18 0 39 -7q20 8 51 9h17l8 -6l94 12l53 2q25 0 53 -2q8 2 23 2q12 0 25 -6h18l39 4l25 -8l16 6l27 -13l-3 7q29 6 56 6q4 0 45 -4q16 8 37 8q10 -2 57 -2l53 -43 l-55 -55l-43 -7l-25 7h-18q-14 -6 -37 -7l-18 -6l-19 6q-10 -2 -30 -2q-16 0 -25 2l-82 -14l-27 6q-72 -6 -120 -20q-4 4 -11 9l-8 5l-14 -6l-60 -4q-18 8 -38 8q-6 0 -93 -14l-28 6l-54 -19h-8q-29 0 -39 25v-57l-22 -21l4 -35l-39 -57l-8 -29l-49 -143l14 -14h6q4 0 10 2 h9q8 0 28 -4l15 12l32 -17h6l5 5q47 0 86 -27l45 6l43 -12q37 12 57 12q12 0 20 -14l13 4l22 -8l72 10l2 -12l41 -13q29 6 53 6q29 0 64 -10q8 8 32 15q47 10 62 10q12 0 16 -2q25 25 56 30l36 37l23 9l39 51h45l37 -51l-21 -50v-22l-39 -33l-24 -43l-45 -18l-19 -23 q-25 0 -32 -2l-33 -27l-19 9q-12 -2 -28 -2l-8 -9h-23q-20 -12 -55 -18l-86 18q-4 0 -25 -8l-72 6l-34 -16l-19 18l-12 -2l-51 17l-41 2l-29 -25l-27 25l-77 18l-23 -8l-41 14l-24 -2l-7 2l-10 -4l-33 2l-12 -6l-39 14l-31 -8q-29 -63 -69 -63h-4q-25 -4 -41 -4h-15 q-10 2 -16 2l-49 10l-21 35l2 37l-4 8q-4 12 -4 18q0 37 72 72q18 0 26.5 16.5t24.5 34.5l8 35l27 43h-4l35 102l24 39v54l23 6q0 16 2 24l-8 -2l-37 10l-43 -10l-33 10l-49 -6l-29 -16l-41 22l-33 21z" />
<glyph unicode="&#xa4;" horiz-adv-x="1241" d="M80 428l207 205q-84 106 -84 252q0 139 84 252l-207 206l82 80l205 -204q115 86 254 86q143 0 256 -86l204 204l82 -80l-205 -206q82 -109 82 -252t-82 -252l205 -205l-82 -82l-204 205q-117 -86 -254 -86q-141 0 -256 86l-205 -205zM319 887q0 -127 89.5 -216t214.5 -89 t214 89t89 216q0 125 -89 214t-214 89t-214.5 -89t-89.5 -214z" />
<glyph unicode="&#xa5;" horiz-adv-x="1144" d="M53 924q0 78 53 80l15 -3l24 19l33 -21q47 -6 94 -41q0 -37 35 -57l19 -37l16 -14l49 -82l31 -43l8 -14q29 -37 44 -67t42 -56l39 30l14 9q4 23 35 32l4 31h39q12 18 35 33q12 14 37 35l16 30l27 11q25 29 47 47q18 6 18 35l45 14q18 12 33 35h2q10 0 25 18l8 -4 q-2 4 -2 12q0 16 8 31l12 33q51 41 95 41q47 0 71 -39l45 -12l-22 -82l-10 -4l-9 -29l-55 -14q-14 -20 -47 -43l2 -11l-33 -24l-22 -29l-39 -16l-10 -17l-23 -30l-18 -11l-19 -45l-39 -4l-14 -18l-37 -21l-8 -10q-70 -39 -88 -92l-33 -8l-8 -6l-10 -11v-6l32 6l13 -6l37 6 l26 -12l13 16l24 -6l25 -4l34 19l33 -9l25 13l31 -31l14 -43l-31 -39h-45l-49 -20l-37 14l-61 -23q-66 2 -82 31q-2 -18 -8 -26l-15 -25l2 -37l4 2q8 -12 11 -16l22 4l33 -10h47l31 18l24 -12q10 2 23 2q12 0 16 -2l47 10l15 -14q-18 0 49 6l43 -35v-10q0 -47 -84 -64l-70 8 l-45 -16l-92 8l-16 -12h-45l-7 -43l15 -31l-13 -26l2 -11l15 -32l-15 -35l-4 -19l7 -24l-9 -47l-14 -47l-4 -31l12 -51q-18 -47 -20 -80l8 -43l-8 -19l2 -14q4 -29 4 -96v-27l-12 -8l4 -35l-6 -39v-20q0 -51 -62 -51q-55 0 -55 75l10 19l-8 28l4 43l-23 33l5 43l10 10l-2 13 l6 16l-8 10l8 37l-12 43l16 41l-12 47l18 76q-6 8 -6 25v6l2 10l-12 16l6 58l-14 43l12 12v39l-12 41l12 10l2 21l-4 28q-4 -8 -39 -22l-21 6l-37 -18l-26 4l-29 -21l-51 17l-102 -17l-27 23l-57 32l16 56l31 12l39 23l59 -9l43 9q57 -4 53 -5q18 0 29 2h18l19 11l24 -6 l23 10l22 -10l11 41l-8 47l-60 -11l-8 4l-8 -10l-47 8l-74 -28h-105q-12 12 -16 24q-43 16 -43 54q0 55 78 55q25 0 39 -2q16 4 28 16q20 -14 46 -14h8l6 2q6 2 24 2h15q16 4 30 4q12 0 19 -2q4 2 14 2q12 0 19 -2l12 2l-2 4l-8 8l-10 23l-25 14l-6 15l-35 20v8l-4 2l-10 37 l-7 12l-22 19l-8 24l-45 37l4 15l-21 18l-20 23q-14 10 -17 26l-51 6v23l-14 8v10h-16l-23 78z" />
<glyph unicode="&#xa6;" horiz-adv-x="1024" d="M438 -350v758h150v-758h-150zM438 674v758h150v-758h-150z" />
<glyph unicode="&#xa7;" horiz-adv-x="940" d="M29 195v16q0 49 75 78l50 18l32 -22l52 -17l2 -82l-41 -36l-2 -17q8 -12 14 -24l33 -7l12 -28l6 -4h43l21 -23l32 -2l48 -16l32 4q33 12 62 12l12 -2l6 10h19h4q0 -2 2 -2q4 2 4 6v6q-2 2 -2 5l45 18l26 23l11 24l35 27l2 10l4 41q0 6 -13 20l-22 25l-60 35l-45 4l-32 29 l-86 8q-8 4 -68 14q-39 8 -59 27q-10 12 -35 28q-92 6 -92 64q0 2 2 6v6q0 16 -26 64.5t-26 95.5q0 10 5 43q66 43 65 59q0 18 -37 76q-14 47 -14 72q0 18 20 80l21 6q2 14 4 47l55 31q27 31 51 51l43 10q20 23 70 23h17q14 10 40 10q23 0 46 -8l36 10l66 -14l24 -17l68 -10 l19 -39l55 -33v-33l20 -24q29 -35 29 -84l-12 -29q-47 -109 -119 -108q-49 0 -82 67v45l20 33l-12 29l17 39q-37 10 -58 26l-18 6l-17 -4h-8l-22 -14q-53 0 -90 14q-41 -18 -72 -59q-43 -8 -43 -55v-9q-27 -8 -27 -12v2l2 -16l13 -17l26 -38h8q39 0 66 -25l33 -4 q31 -25 59 -25h8l131 -28l64 -41l49 -6l25 -29l36 -21l35 -55l4 -59q11 -27 11 -47q0 -55 -64 -105l29 -24l4 -43l26 -33l-8 -25l4 -53l-36 -86l-31 -27l-29 -49q-16 -29 -141 -71l-45 -25l-35 4l-37 -29l-24 13q-33 -16 -74 -23l-35 25l-27 -11l-55 31q-49 27 -100.5 54.5 t-81.5 62.5q-47 55 -47 156zM258 594q0 -55 96 -109q2 -2 8 -2q4 0 10.5 2t8.5 2l41 -6t84 -8l16 -12l47 -6l13 -13h6q41 0 65 -28h4l11 -4q18 28 18 65q0 27 -47 70l-59 22l-37 13l-21 -5l-67 29q-59 2 -114.5 30t-64.5 28q-18 -57 -18 -68z" />
<glyph unicode="&#xa8;" horiz-adv-x="1024" d="M227 1147l11 33q16 35 49 49l8 8q8 8 27 23l32 -13l17 6l12 -12q18 0 33 -20l28 -15l29 -59l-12 -8l6 -23l-12 -6v-14l-29 -13l-25 -28l-34 -2l-19 -4l4 2q-18 -6 -30 -7q-20 0 -31 19q-4 0 -15 10l-14 8q4 4 4 6v5h-8l-8 4l-12 16l6 12zM555 1157l12 12l-4 11l25 24v4 q4 4 12 13l21 12q10 16 34 16q14 0 25 -4l10 -6h37l25 -29l26 -12v-14l15 -8l-7 -23l11 -8l-27 -58l-14 -4l-2 -8l-17 -8q-10 -14 -16 -14h-4l-29 -15l-8 9l-37 -13q-8 18 -42 37t-38 41z" />
<glyph unicode="&#xa9;" horiz-adv-x="555" d="M68 1243q0 86 66.5 153.5t158.5 67.5t158.5 -66.5t66.5 -158.5q0 -94 -66.5 -159.5t-162.5 -65.5q-88 0 -154.5 67.5t-66.5 161.5zM102 1239q0 -78 56.5 -134t134.5 -56t135 55t57 135t-56 135.5t-136 55.5t-135.5 -56.5t-55.5 -134.5zM178 1241q0 59 33 96t86 37 q96 0 100 -86h-55q-4 45 -47 45q-57 0 -57 -92q0 -90 57 -90q45 0 49 49h55q0 -98 -108 -98q-113 0 -113 139z" />
<glyph unicode="&#xaa;" horiz-adv-x="583" d="M23 346v74l24 2l10 8l15 -20l16 12l16 -12l31 16l35 -10l27 4l2 -17l18 7l8 18l33 -12l25 18l28 -4q16 8 25 8l20 -2l27 -14l39 -4l31 10q20 -10 51 -10q23 0 33 4q51 -6 51 -45q0 -15 2 -21l-53 -61l-31 18l-74 -16l-70 10q-20 -4 -30 -4q-14 0 -31 6l-16 2l-52 -4 l-83 -14q-20 10 -41 10q-8 0 -25 -4l-41 23zM35 641l10 25l2 22l8 35v6q-2 2 -2 4q0 18 10 43l9 15l-9 14v8q0 23 17 33q2 4 14 22l-6 11l10 12q0 27 19 47l-4 27l6 2l4 14l8 23q14 23 21 49q16 2 26 12q4 6 15 20l28 -8l37 21l117 -4v-11l16 -4q16 0 31 -8l18 -20l19 -19 l14 17l47 8l17 -27l26 -18l-2 -27l8 -27l-20 -20l-4 -23v-8q-4 -29 -10 -33q4 -8 4 -12t-4 -16l2 -4l-5 -11q-2 -4 -6 -18l2 -16l11 -17l-13 -12v-18l-10 -17l8 -20l-14 -17q4 -23 4 -39q0 4 -2 23l12 -2l-18 -31l6 -12l10 -8l-6 -25l31 -8l-8 -16l14 2q-6 -33 -18 -60 l-19 -4l-10 4l-8 -8l-15 -4l-61 24l-14 15l-9 24l-8 9l-2 49l10 55l15 64l-4 14l-15 -12l-28 -60l-31 -24l-10 -15l-23 -37l-6 -16l-43 -27l-16 -16l-27 -16l-35 -11l-12 -10l-19 19l-49 -11l-35 17q-16 35 -22 67l6 2l-2 9zM154 694q2 -4 6 -4l6 -16l8 -8l19 2l53 32l30 29 l7 10v17l14 12l78 104l4 23l6 2l8 12l4 23l11 8l-9 4l-32 14l-17 17l-8 4l-23 -8l-12 10h-8l-20 -8v-15q-16 -6 -29 -20l-27 -33l4 -26l-14 -21l2 -4q-16 -14 -16 -35v-8l-9 -8v-21l-8 -8l-4 -6v-23l-6 -4l-2 -14l-10 -14q-6 -12 -6 -19z" />
<glyph unicode="&#xab;" horiz-adv-x="856" d="M39 479l24 27l29 20l14 2l15 21l14 4l2 16l45 29l21 10v17l82 67l22 27q8 10 25 18q0 14 10 21l45 8l12 12l9 37l41 25q16 10 16 28v9q49 23 72 22q41 0 86 -84l-27 -47l-27 -33l-24 -4l-19 -20l-20 -11v-16l-31 -8q-27 -27 -47 -37l-20 -23l-27 -10l-2 -10l-31 -21 l-24 -12l-29 -37l-29 -14l-22 -10l-4 -6v-27l-7 -2l13 -37l18 -14l6 -39l19 -37l10 -31l27 -30l6 -13l26 -6l-8 -31q12 -23 31 -63l14 -10l31 -39l23 -15l-5 -59l-77 -39l-37 57l-25 15q-33 35 -33 51v6l-28 45q-4 6 -17 23q-27 16 -34 41l2 -4l-9 28l-26 25l-4 10l-25 16 l-2 7l-29 8l2 43l-55 47l-2 20zM324 381v33l26 12v14l8 23l23 8l-2 12l33 13l24 -2q2 2 8 2h11q12 29 53 69l45 45q8 23 35 27q4 6 10 14l47 54l4 -11l21 29v4q10 18 35 21l32 -5l41 -10l23 -26l18 -25q0 -47 -67 -70l-2 6l-15 -32l-18 -21l-39 -12l-23 -31h-28l-58 -61 l-34 -25h-11v-6l21 -47q14 -25 18 -27q8 -16 8 -24q0 -6 -2 -10l13 -17l4 -8l12 4l12 -49l17 -29l6 -16l35 -31l-2 -41q39 -23 51 -69l-68 -39l-28 28l-25 19q-31 68 -82 100l-2 23l-57 49v16l-17 17l-2 10l-6 2l-24 39l-35 4q-47 6 -47 47z" />
<glyph unicode="&#xac;" d="M254 721v139h1198v-502h-137v363h-1061z" />
<glyph unicode="&#xad;" horiz-adv-x="733" d="M53 422v41l27 2l20 27l52 -21l18 6q10 -2 29 -2h10l12 4v-8l21 -6l14 10l27 -4h43l94 4l4 -10l8 2l8 -6l27 8q16 -8 41 -8q16 0 35 6l32 -8h25q70 0 78 -39l-45 -33l-58 6l-26 -4l-55 -6l-70 4q-16 -4 -47 -4h-27l-49 -6l-14 4l-76 -8q-12 8 -21 8q-12 0 -28 -10l-35 6 h-39z" />
<glyph unicode="&#xae;" horiz-adv-x="555" d="M68 1243q0 86 66.5 153.5t158.5 67.5t158.5 -66.5t66.5 -158.5q0 -94 -66.5 -159.5t-162.5 -65.5q-88 0 -154.5 67.5t-66.5 161.5zM102 1239q0 -78 56.5 -134t134.5 -56t135 55t57 135t-56 135.5t-136 55.5t-135.5 -56.5t-55.5 -134.5zM203 1118v242h88q102 0 102 -70 q0 -51 -51 -65l53 -107h-57l-47 99h-35v-99h-53zM256 1253h35q49 0 49 33q0 37 -51 37h-33v-70z" />
<glyph unicode="&#xaf;" horiz-adv-x="1024" d="M199 1139v43l28 2l19 26l51 -20l20 6q14 0 43 4l9 -4l8 -12l10 8l16 2l27 -4h41l102 4l5 -14h8l28 8q16 -8 41 -8q16 0 35 6l31 -8q98 -2 104 -39l-47 -33l-57 6l-82 -12l-66 6l-45 -6l-30 2l-49 -6l-15 2l-78 -6q-8 6 -18 6q-14 0 -29 -8l-37 6h-39z" />
<glyph unicode="&#xb0;" horiz-adv-x="483" d="M27 883l12 22l4 29l14 4q2 8 15 16q0 29 37 41l4 6l32 5l33 36l15 -6l10 8l18 -4l6 4l64 -14l10 2l29 -20h10q27 -6 51 -31l8 -16l37 -31l23 -39l-6 -10q6 -9 6 -23q0 -23 -35 -92l-25 -14l-32 -25l-23 -8l-68 -33l-79 10l-72 -8l-47 41q-33 29 -37 88q0 8 2 27zM147 827 l13 -30l-4 -13l2 -4l32 4l33 -8q25 12 47 12q6 4 41 13l15 18l-9 23l15 14q-12 27 -17 51q-10 2 -22 8l-6 29q-8 0 -19 2h-14q-18 0 -59 -31l-9 -14l-6 -10z" />
<glyph unicode="&#xb1;" d="M254 29v141h1198v-141h-1198zM254 713v139h528v340h142v-340h528v-139h-528v-340h-142v340h-528z" />
<glyph unicode="&#xb2;" horiz-adv-x="841" d="M-10 520q23 18 59 41l21 12l16 -4l8 6q33 4 39 5h6q14 2 35 2q18 0 23 -2l32 -11l35 -6l43 -14q25 6 29 6v4q23 10 39 14h4l8 17l35 16l20 8q2 12 15 21l2 8q16 6 22 6q4 0 6 -2l17 15v10l10 -4l4 28l31 4q8 14 26 21l17 10l6 14q0 8 4 15l4 6q0 16 8 22l-4 21l11 12v19 l-21 28q-8 18 -65 37h-11l-24 15h-25l-6 8l-8 -2l-25 6l-12 -2l-16 4l-31 -4l-4 4l-13 -6l-12 6q-16 -2 -29 -2q-12 -6 -26 -6l-23 -13l-30 -4l-2 -4l-17 -6l-4 2q-4 -2 -12 -14h-6v-8l-19 -2v-15l-33 -10q-6 -2 -9 -9t-19 -20l-53 -4l-25 21l-12 30v11q0 23 20 37 q6 23 33 26l2 8h18v4l70 29h10l6 2v4q37 14 70 15h16q33 16 64 16h12l41 -4l37 4l37 -8q10 0 31 -6l8 -2h-2l16 -9q27 -4 39 -10l10 -10l11 2l18 -18l37 -13l53 -49l8 -25l21 -6l-6 -18q2 -8 2 -23v-12l6 -18l-8 -17l2 -14q0 -4 -29 -49l-14 -23q-12 -20 -33 -28l-14 -27 l-15 -4l-4 -6q-8 -14 -43 -25q-16 -10 -20 -22l-25 -15q-2 2 -6 2h-8q-6 -2 -11 -2h-6l-32 -22l8 -2q-2 -6 -29 -17q-8 -4 -31 -12l47 -2l27 -12h27l4 -6l26 -2q0 -10 13 -11q2 0 6 2h6q4 -2 4 -10l-2 -2q4 0 14 -6l21 12l12 -6l29 -2l26 4l19 -8l33 -6l20 6h19q12 6 30 6 q20 0 31 -4l14 -21l-8 -26l-20 -6l6 -2q-23 -14 -53 -21l-13 2q-16 -10 -30 -10q-2 0 -9 2h-8q-4 -2 -6 -2t-4 2h-6l-12 4h-19l-25 8l-12 -8l-12 6l-21 -4q-8 4 -8 12h-14q-18 0 -29 9h-4q-4 0 -16 4l-6 -2l-4 -2q-16 10 -50 22q-16 0 -43 10h-28l-4 9l-35 -2q-18 6 -19 8v4 l-4 -8l-16 -4h-2q-14 -10 -37 -15h-2l-10 -10h-9q-12 0 -28 -4v-10l-33 -2q-14 -10 -27 -11q-4 0 -16 4l-14 -6l-37 2l-55 21l-21 14l-8 23v26l4 27zM70 487l10 -10l-2 -10l24 -6l37 4l41 6l29 12l29 17l-21 8l-41 8l-22 -4h-39l-25 -6z" />
<glyph unicode="&#xb3;" horiz-adv-x="815" d="M4 477q0 41 41 45q16 8 33 8h10l39 2q45 -12 45 -34q0 -12 -10 -21q10 0 16 -2l27 4q14 0 31 -10q25 6 49 6h24q16 8 23 8q8 0 20 -6q16 8 27 10l24 -14l5 4q12 0 28 4h17l26 17q12 -2 29 -2q10 0 31 12h12l4 6l31 21l18 -3q20 10 49 27q2 8 2 16q0 10 -20 13l-25 16 l-28 4l-41 -8l-11 12l-12 -2l-14 15l-6 -4q-10 2 -25 4q-8 0 -27 -7q-2 2 -6 5.5t-8 7.5l-6 -2q-10 -4 -47 -8l-10 8l-31 2l-27 10h-28l-31 12l-23 19l-10 26l14 29l31 8q20 12 58 21l32 10l76 12l12 10h25l12 13q-4 0 10 -4q25 23 60 22q4 4 12 6l2 2q18 12 35 21v8 q-8 12 -76 27l-33 -2q-25 4 -36 4q-12 0 -29 -4h-16l-25 -7l-23 7l-12 -11l-37 -2l-14 -2l-33 -10q-14 -10 -26 -10q-8 0 -21 6q-2 -6 -8 -12h-8q-16 0 -39 -31q-8 0 -12 2l-11 -20l-51 20l-14 14l6 9l-10 -3q-8 16 -9 21q0 6 2 8l9 25l8 6q10 10 26 10h5l10 12l22 -4 q18 12 37 13h8q0 8 9 14h26l13 6l20 2l20 -12l-2 10h21l18 6q16 4 47 8l15 -2q20 6 57 7h19l-7 -5h7q14 0 20 -4l16 4l27 -2h29q18 2 24 2v-10l31 -10l37 -6l18 -23l25 -18l12 -27l-6 -26v-2q-4 -12 -14 -27q-20 -29 -54 -37l-10 -12l-35 -17l-32 -4l-19 -12l-28 -8l-23 -8 l-27 4l-32 -11l32 -10h37l21 2h14q16 0 31 -8q23 -8 57 -8q4 -4 8 -6h4q8 0 15 -2l30 -2l21 -15h16l33 -28l8 -31l19 -16l-6 -15l6 -18l-23 -21l-8 -22l-27 -13v-8l-24 -4l-17 -18q-10 0 -36 -8q-14 -4 -33 -11q-18 -12 -43 -12q-29 -14 -66 -20l-16 4l-60 -15h-28l-25 6 q-4 0 -18 -6l-35 -2l-23 2l-14 -4l-16 4l-4 2q-12 -4 -15 -4q-16 0 -24 2l-13 -2q-8 0 -12 2q-2 -2 -6 -2q-6 0 -23 6l-22 -8l-16 15l-9 -7l-16 7q-12 -6 -23 -7q-10 0 -20 13q-37 4 -37 63z" />
<glyph unicode="&#xb4;" horiz-adv-x="1024" d="M356 1036l29 56l10 34l47 21l29 43l14 2l11 14v21l26 26l23 -14q25 29 33 45q37 20 38 31q6 27 39 41l31 28l43 5l19 -5q67 -14 73 -57l-10 -24l-10 -50h-8q-47 0 -68 -43l-18 13l-68 -56h-6l-17 -18l5 -12l-37 -13v-12l-31 -10l-12 -17l-9 -24l-10 -4v-13l-37 -12 l-53 -45z" />
<glyph unicode="&#xb5;" horiz-adv-x="1169" d="M-102 -326q0 45 59 244q80 260 121 455l108 512h168l-100 -475q-18 -88 -18 -134q0 -147 161 -147q186 0 236 227l112 529h173l-115 -533q-18 -86 -19 -127q0 -100 103 -100q94 0 139 94q8 16 33 92q12 37 33 37q22 0 22 -29q0 -88 -49 -188q-76 -156 -215 -156 q-170 0 -170 209v13q-100 -221 -295 -222q-195 0 -219 220q-33 -141 -62 -340q-23 -162 -38 -205q-25 -70 -80 -70q-88 0 -88 94z" />
<glyph unicode="&#xb6;" horiz-adv-x="964" d="M117 659q8 33 24 58l6 28l21 25l-2 12l10 25l23 22l18 39l19 6l28 56l23 14l32 35l33 6q20 37 70 39l43 20q18 -6 33 -6q8 0 45 9q23 -6 28 -7h4l23 7l39 -7q4 -4 8 -4q8 0 19 11l41 -5l16 -10l24 10q12 -12 23 -12q8 0 20 6l17 -4l24 6q29 -18 29 -49q0 -6 -4 -22 l-16 -2l4 -9q-14 -31 -41 -30h-10l-15 -8l8 -48l-20 -82l14 -75l-22 -43l4 -101l-19 -55l17 -8q-23 -74 -23 -96q0 -10 6 -33l-12 -51l14 -52l-22 -57l-4 -108l-15 -29l5 -156l-25 -74l8 -124q-6 -68 -47 -115l-29 63l9 88l-13 17l11 63l-3 39l9 29l-11 41l15 41l4 92l-8 51 l10 49q-8 63 -8 101q0 35 16 94l-6 29l14 26l-10 68l14 39l-6 43l8 26l3 37q6 111 6 94q0 61 -4 95l-7 49l7 37v14l8 2l-21 10l-55 -14q-6 16 -16 16q-4 0 -17 -4v-6l10 -10l-2 -33l4 -37l-12 -31l6 -41v-45l11 -14l-23 -63l6 -66q-14 -12 -14 -31q0 -12 10 -32v-109 l-16 -57l4 -72q-6 -20 -6 -43q0 -25 10 -55q-14 -2 -14 -19l2 -26v-54q0 -51 -2 -84l-31 -120l18 -37l-10 -37v-47l-53 -21l-10 37l-21 31l10 29l-8 32l17 49q2 6 2 19q0 18 -11 43l15 82l-11 20l11 64q2 4 2 12q0 12 -13 25l5 186q4 25 4 43v16q-2 10 -2 17q10 41 10 67 h-15l-6 -14l-45 -22q-14 -6 -28 -11q-6 0 -15 -2l-37 -12h-10q-31 0 -43 18q-12 0 -18 -8q-88 8 -113 58q-6 10 -6 22q0 4 4 16l2 15l-6 24l8 31z" />
<glyph unicode="&#xb7;" horiz-adv-x="532" d="M145 532q0 8 5 37l8 9l-2 12q14 27 37 41l10 6l4 4q18 18 39 21q12 -2 35 -7l36 -6l27 -31l27 -14v-16l12 -10l-2 -25l10 -8l-26 -66l-33 -18q-43 -25 -66 -31h-8l6 2l-49 2q-70 31 -70 98z" />
<glyph unicode="&#xb8;" horiz-adv-x="1024" d="M348 -162l4 17l17 10l8 18v4l20 -4l6 19l-2 8l9 14v25l6 2l-6 12l14 23l8 51l21 -4h82q0 -16 2 -37v-23l-21 -36l8 -31l25 -8q16 4 20 4q23 0 47 -19h23l16 -14l31 -2l33 -47l24 -31v-59l-6 -62l-32 -35l-23 -10l-18 -29l-78 -6q-20 -16 -47 -16l-146 14l-35 72l68 23 l25 -13l2 10h6l20 -6q8 2 19 2q8 0 10 -2l14 -4q12 8 21 10q33 16 59 17l2 20l8 21l-16 4q0 29 2 43l-10 -8l-53 6l-31 -12l-12 2l-50 -25l-39 14q-25 2 -30 31l-15 -6v29l7 10z" />
<glyph unicode="&#xb9;" horiz-adv-x="710" d="M-6 834q18 33 41 32q10 0 26 -4l17 -12q16 10 28 10q16 16 66 17h6q12 0 24.5 9t20.5 11l-6 4l43 8l6 9q-2 2 -7 6t-7 6l45 18h14l6 -6q6 0 7 -4q-2 6 -2 20q0 18 16 35l49 11h53q39 -33 39 -50q0 -14 -16 -24l-33 -25v-2q-2 -2 -2 -4q0 4 2 -8l-6 -2l-8 2l2 -35l-8 -6 q-2 -4 -7 -10l-4 -4v-5q0 -6 4 -10q-6 -31 -24 -73l6 -9l-14 -26l2 -17l-6 -24l6 -10l-8 -21q4 -20 4 -23q0 -2 -2 -8q8 -25 8 -28l-15 -7v-2q4 -6 5 -20q0 -14 -5 -21l15 -8q-2 -6 -8 -22l-2 4v-25l8 13l22 -7l41 7v-7l60 15l-13 -27q8 2 17 2q10 0 30 -6h5q31 6 47 6 q18 0 49 -8l8 8q35 -16 35 -39q0 -18 -27 -30h-59l-56 -11l-40 6l-19 5l6 6l-24 -11q-4 0 -15 3h-14q-6 6 -6 16l-25 -19l-26 3h-13l-12 -3q-12 0 -37 5l-35 -7l-2 7l-14 -2l-23 -3l-28 -12l-6 6q-6 -2 -23 -2h-10l-4 4q-12 -4 -19 -4q-8 0 -20 4q-12 -4 -14 -4 q-43 0 -54 19l-24 8v22q-4 8 -4 15q0 20 18 24l35 9l6 2h12q14 0 23 -9l14 7l25 2l26 8l41 -2q25 -8 49 -13l3 5l-15 20l4 18q-4 6 -4 17q0 8 4 12q-4 16 -4 35q0 14 15 27l-3 22q2 2 5 6q0 4 -13 10l-4 41l4 2l11 19l-11 22l17 17l6 24v7q0 12 6 24q-4 8 -4 12q0 2 2 7v4 l-6 -2q-12 -4 -21 -5l-28 -10h-4q-12 -10 -35 -10h-6q-8 -10 -25 -25l-25 11l-12 -2q-23 -4 -49 -25q-14 16 -35 21l-41 12z" />
<glyph unicode="&#xba;" horiz-adv-x="542" d="M33 346v74l26 2l11 8l14 -20l14 12l19 -12l28 16l37 -10l27 4l2 -17l16 7l9 18l32 -12l27 18l29 -4q10 6 18 6h8l29 -14l20 -4l33 10q8 -8 21 -8q8 0 14 2q47 -6 49 -45l4 -21l-55 -61l-31 18l-18 -4l-23 -12l-35 10q-20 -4 -30 -4q-16 0 -33 6l-14 2l-54 -4l-65 -14 q-25 10 -41 10q-8 0 -25 -4l-43 23zM39 659l8 17l-8 29l8 18v10q-2 8 -2 10q0 27 14 41q0 6 17 50l6 10v8l10 25l-4 8l-4 -4q0 2 16 47l25 45l6 18q8 0 12 -2l11 8l4 4v15l28 33l7 2l10 8l18 10l-2 6q20 20 45 21q18 0 27 -4l4 -2l37 8l33 -23h6l20 -8h19q25 -31 43 -49 l6 -4l28 -37l25 -62v-10l14 -45l-8 -20l4 -6l-10 -52l-6 -10q-2 -14 -12 -41l-13 -14l-12 -33l-8 -4l-4 -10l-17 -11l-8 -18l-12 -6l-2 -17l-27 -8q-20 -27 -45 -32q-18 -25 -45 -25q-20 -8 -31 -8h-6q-2 -2 -26 -19l-39 19l-37 -6h-45q-4 0 -11 4l-24 20l-33 31l8 22z M160 649l6 -8l4 -4l10 4h21l4 10h51v8l12 5l6 6l7 4l6 20h26l19 15l16 20l14 4l3 8l-15 29l37 12l4 4q-2 4 -2 11q0 12 10 26l4 8l-6 7q-8 8 -8 20q0 6 2 10l-8 13v18q-10 4 -18 21q-8 8 -11 18l-18 27l-6 8l-13 2l-22 -37l-35 -12l-10 -4l-4 -17l-10 -6l-9 -29l-10 -6 q2 -12 4 -33l-20 -12q0 -12 -13 -28v-7l-14 -16l-2 -8v-19l-8 -24v-43l-4 -19v-6z" />
<glyph unicode="&#xbb;" horiz-adv-x="856" d="M39 223q0 45 67 68l3 -4l14 32l20 21l39 12l21 31h28l60 61l35 25h8v4l-21 49q-25 33 -24 47q0 10 2 15l-15 16l-2 8l-14 -4l-10 47l-19 31l-4 16l-34 31l2 41q-39 25 -52 70l68 37l29 -29l22 -17q33 -72 82 -100l4 -22l58 -50v-18l16 -14v-11l8 -2l25 -39l32 -6 q49 -8 50 -45v-35l-27 -10v-16l-8 -23l-23 -6l2 -12l-32 -14l-27 4l-16 -4q-6 -16 -56 -68l-43 -45q-12 -27 -37 -29q-6 -6 -10 -14l-47 -51l-2 8l-23 -27v-4q-16 -23 -34 -20l-33 2l-41 12l-23 27zM236 88l26 49l27 31l26 6l17 21l22 10v16l29 8q20 20 49 37l19 23l28 10 l2 8l31 21l25 12l26 39l31 12l20 12l7 7v26h6l-15 37l-16 14l-8 41l-19 35l-8 31l-29 33l-4 10l-26 6l6 31q-20 41 -29 65l-16 11l-31 38l-22 13l6 61l76 37l38 -57l25 -13q33 -35 33 -51v-6l26 -47q4 -6 17 -23q29 -18 37 -40l-2 4l8 -29l26 -23l2 -12l25 -14l2 -6l31 -9 l-4 -45l55 -49l4 -18l4 -35l-22 -29l-29 -18l-16 -2l-13 -21l-14 -4l-4 -16l-43 -29l-23 -10v-16l-82 -70l-20 -27q-18 -14 -25 -16q0 -8 -12 -21l-43 -8l-12 -12l-8 -39l-43 -25q-16 -10 -17 -28v-8q-45 -23 -71 -23q-41 0 -86 84z" />
<glyph unicode="&#xbc;" horiz-adv-x="2072" d="M-6 846q18 31 39 31q10 0 26 -5l17 -12q12 10 26 10q10 10 62 17h6q12 0 24.5 8t18.5 10l-6 4l41 9l6 8q-4 2 -12 10l41 18h16l4 -6q6 -2 6 -6q-2 8 -2 21q0 18 15 32l49 11h49q37 -31 37 -48q0 -12 -15 -22l-32 -23v-14l-4 -2l-11 2l4 -33l-8 -4q-4 -10 -6 -10l-4 -4v-4 q0 -2 4 -10q-6 -27 -23 -68l7 -8l-15 -25l2 -14l-6 -25l4 -10l-8 -18q4 -8 4 -21v-8q8 -20 8 -27l-14 -6v-2q2 -6 2 -18t-2 -19l14 -8q-4 -8 -8 -20l-4 2l2 -21l8 10l23 -6l37 6v-6l57 15l-10 -25h12q18 0 31 -4h4q37 4 47 4q12 0 45 -6l6 6q35 -12 35 -35q0 -18 -25 -28 h-57l-53 -11l-39 6l-18 5l8 4l-25 -9q-4 0 -14 2h-14q-4 8 -7 15l-20 -17l-27 2h-12q-8 -2 -12 -2q-12 0 -33 5l-35 -7l-2 7l-14 -3l-23 -2l-24 -10l-7 6q-16 -4 -22 -4h-10l-2 4q-8 -2 -19 -2q-14 0 -20 2q-4 0 -13 -4q-41 0 -51 19q-14 2 -24 8v18q-4 12 -4 15q0 20 18 24 l33 6l6 2h10q16 0 25 -8q4 4 12 6l23 2l26 9l39 -2q14 -6 47 -11l2 2l-14 21l4 16q-4 6 -4 15q0 8 4 12q-4 14 -4 33q0 16 14 24l-2 23q2 2 2 4q0 6 -10 10l-4 37l4 2l10 16l-10 23l16 14l4 25v6q0 12 9 22q-4 4 -4 13v8l-5 -2q-12 -4 -20 -4l-27 -10h-4q-14 -8 -32 -9h-7 q-18 -18 -24 -22l-23 10l-12 -2q-25 -6 -47 -25q-14 14 -33 19l-39 12zM561 -123l33 82l-2 23l22 24q6 31 25 55q8 25 10 37l29 41l12 27l2 29l23 34l16 19q2 16 21.5 38.5t21.5 37.5l12 28q41 96 68 123q6 8 14 8v35l37 49l17 64l14 4l6 39l29 10l8 6l12 66q8 4 25 8 q12 37 31 70l30 28q16 37 41 84l41 64q35 39 43 73q29 39 35 47q16 18 33 21h-6q27 8 53 8q37 0 57 -24q47 -21 47 -56q0 -23 -20 -45q-8 -35 -55 -47l-23 2l-25 -18l-14 -49l-20 -23l6 -22l-29 -13q-14 -14 -31 -30l-2 -19l-24 -22q-12 -14 -19 -41l-26 -29l-4 -35l-25 -22 l-14 -33l-13 -37l-26 -25l-29 -65l-16 -10l-2 -41l-31 -21l6 -45h-10q-23 0 -29 -12q-2 -4 -7 -11.5t-9 -11.5q-6 -33 -35 -55v-18q0 -20 -25 -45l-4 -17l-22 -8q0 -16 4 -21q-6 -6 -19 -30v-21l-16 -20l-16 -33l-17 -16l-4 -9l-2 -22l-35 -78l-14 -37l-72 -61 q-10 -2 -28 -2q-39 0 -64 16zM1272 223q12 25 39 37v4l14 12l31 13l45 2v-6l29 18l20 -2l6 12l12 9l-2 12l33 8q6 14 19 23l2 2q6 6 16 14l4 4q8 4 8 8l15 10l8 15l14 6q6 20 14 22q2 8 15 21q-2 0 -4 2q2 4 12 14q2 4 23 13v22l22 12q14 45 41 45q8 0 27 -6l8 -12l6 -4 q4 -2 4 -12v-31q-6 -10 -14 -27l-4 -2l-4 -18l-17 -6l-4 -11q-2 -14 -43 -55q0 -20 -27 -33l-4 -2q-12 -14 -18 -18q-10 -12 -29 -21l-8 -6l-2 -8l-18 -8l-7 -4l9 -2l20 2l19 -8q18 -8 24 -9h4q66 -8 51 -8q4 0 17 4l20 -4l4 8v11l15 14q0 2 2 8v8l-2 25l10 2l-4 8 q10 10 12 17l-8 16q6 6 20 14v37l7 2l-2 6l14 15q-8 12 -8 18t2 10l8 13l-2 14l6 25l-2 16q12 33 51 33q29 -14 45 -39q6 -14 6 -37l-12 -12l2 -31l-4 -8l-4 -10l-8 -15l2 -20l-8 -6l-2 -11l-11 -20l2 -19l-14 -47l-27 -51l2 -4l37 -12l19 2q10 0 14 -2l59 18l13 8l33 9 q16 16 40 16h7l24 -19q-2 -37 -35 -49l-4 -14q-29 -18 -45 -18q-8 -8 -35 -13l-10 -4l-35 -8l-16 -2l-16 6l-19 2l-18 -4l-25 8v-2l-10 -10l2 -12l-2 -13v-8l-10 -18l8 -4l-8 -7l8 -22l-12 -12l8 -17l-8 -20q4 -4 4 -12t-4 -11l2 -12v-6l30 -45l-16 -12q-14 -10 -33 -11 q-23 0 -41 8l-2 29l-12 12v15l-16 12l6 10l-6 6l6 13l-6 20l-7 10l13 17l-4 12l6 31q-4 8 -4 14q0 4 4 12l2 11q2 4 2 16v12l-21 11q-37 0 -63 8h-33l-8 4l-25 -6l-14 10l-29 -2l-10 6h-10q-12 -2 -29 -2q-27 -10 -34 -11t-17 -7l-4 -9l-15 -2q-10 -6 -30 -6h-13 q-12 -4 -20 -4q-10 0 -23 4l-4 6l-8 2z" />
<glyph unicode="&#xbd;" horiz-adv-x="2066" d="M-6 846q18 31 39 31q10 0 26 -5l17 -12q12 10 26 10q10 10 62 17h6q12 0 24.5 8t18.5 10l-6 4l41 9l6 8q-4 2 -12 10l41 18h16l4 -6q6 -2 6 -6q-2 8 -2 21q0 18 15 32l49 11h49q37 -31 37 -48q0 -12 -15 -22l-32 -23v-14l-4 -2l-11 2l4 -33l-8 -4q-4 -10 -6 -10l-4 -4v-4 q0 -2 4 -10q-6 -27 -23 -68l7 -8l-15 -25l2 -14l-6 -25l4 -10l-8 -18q4 -8 4 -21v-8q8 -20 8 -27l-14 -6v-2q2 -6 2 -18t-2 -19l14 -8q-4 -8 -8 -20l-4 2l2 -21l8 10l23 -6l37 6v-6l57 15l-10 -25h12q18 0 31 -4h4q37 4 47 4q12 0 45 -6l6 6q35 -12 35 -35q0 -18 -25 -28 h-57l-53 -11l-39 6l-18 5l8 4l-25 -9q-4 0 -14 2h-14q-4 8 -7 15l-20 -17l-27 2h-12q-8 -2 -12 -2q-12 0 -33 5l-35 -7l-2 7l-14 -3l-23 -2l-24 -10l-7 6q-16 -4 -22 -4h-10l-2 4q-8 -2 -19 -2q-14 0 -20 2q-4 0 -13 -4q-41 0 -51 19q-14 2 -24 8v18q-4 12 -4 15q0 20 18 24 l33 6l6 2h10q16 0 25 -8q4 4 12 6l23 2l26 9l39 -2q14 -6 47 -11l2 2l-14 21l4 16q-4 6 -4 15q0 8 4 12q-4 14 -4 33q0 16 14 24l-2 23q2 2 2 4q0 6 -10 10l-4 37l4 2l10 16l-10 23l16 14l4 25v6q0 12 9 22q-4 4 -4 13v8l-5 -2q-12 -4 -20 -4l-27 -10h-4q-14 -8 -32 -9h-7 q-18 -18 -24 -22l-23 10l-12 -2q-25 -6 -47 -25q-14 14 -33 19l-39 12zM561 -123l33 82l-2 23l22 24q6 31 25 55q8 25 10 37l29 41l12 27l2 29l23 34l16 19q2 16 21.5 38.5t21.5 37.5l12 28q41 96 68 123q6 8 14 8v35l37 49l17 64l14 4l6 39l29 10l8 6l12 66q8 4 25 8 q12 37 31 70l30 28q16 37 41 84l41 64q35 39 43 73q29 39 35 47q16 18 33 21h-6q27 8 53 8q37 0 57 -24q47 -21 47 -56q0 -23 -20 -45q-8 -35 -55 -47l-23 2l-25 -18l-14 -49l-20 -23l6 -22l-29 -13q-14 -14 -31 -30l-2 -19l-24 -22q-12 -14 -19 -41l-26 -29l-4 -35l-25 -22 l-14 -33l-13 -37l-26 -25l-29 -65l-16 -10l-2 -41l-31 -21l6 -45h-10q-23 0 -29 -12q-2 -4 -7 -11.5t-9 -11.5q-6 -33 -35 -55v-18q0 -20 -25 -45l-4 -17l-22 -8q0 -16 4 -21q-6 -6 -19 -30v-21l-16 -20l-16 -33l-17 -16l-4 -9l-2 -22l-35 -78l-14 -37l-72 -61 q-10 -2 -28 -2q-39 0 -64 16zM1255 109q41 35 56 36l18 11l17 -2l6 4q55 6 39 6h4q0 -2 2 -2q25 4 33 4q16 0 22 -2l31 -12l33 -5l43 -14q10 6 26 6l-2 4q14 6 39 15h4l8 14l33 14l21 9q0 12 12 18l2 10l20 4q6 0 7 -2l14 15v10l10 -6l6 28l29 2q4 10 24 21l17 8l4 14 q8 29 8 19v2q0 12 8 18l-4 21l10 10v19l-18 26q-8 14 -63 35l-11 -2l-22 14h-23l-6 8l-8 -2l-25 7l-10 -3l-16 5l-29 -5l-6 5l-10 -7l-11 7q-16 -2 -28 -2q-12 -6 -27 -7l-20 -10l-29 -4l-4 -6l-14 -4l-5 2l-12 -12h-4v-9l-18 -4v-12l-31 -8q-6 -4 -9 -10.5t-20 -18.5 l-49 -4l-22 21l-15 28v10q0 20 21 35q6 18 30 25l2 6h17l2 4l68 27h8l6 2v4q37 14 65 14h9q6 -2 8 -2q29 16 59 16h12l39 -4l35 4l37 -8q14 0 29 -6l8 -2h-2l16 -8q20 0 37 -8q2 -2 10 -11l11 3l16 -17l35 -10l49 -47l8 -23l21 -6l-7 -18q2 -6 3 -19v-12l8 -18l-11 -15 l3 -12q0 -8 -27 -47l-14 -21q-10 -16 -33 -26l-13 -27l-12 -2l-4 -6q-10 -14 -41 -23q-16 -10 -20 -22l-23 -14q-2 2 -8 2h-8q-4 -2 -8 -2q-2 0 -2 2h-5l-30 -21l8 -4q0 -2 -29 -14q-6 -2 -28 -11l47 -4l22 -10h25l6 -6l24 -2q2 -8 13 -8q8 0 12 2q2 -4 2 -11v-2q4 0 12 -6 l21 11l12 -5l27 -2l24 4l19 -8l31 -6l20 6h18q10 6 29 6q20 0 29 -4l12 -18l-6 -25l-19 -8h5q-20 -16 -50 -18h-14q-16 -8 -29 -8h-30l-13 4h-18l-21 8l-14 -6l-10 4l-21 -4q-4 4 -8 12h-14q-14 0 -25 8h-6q-10 0 -14 2l-6 -2h-4q-16 8 -45 21q-14 0 -43 8h-27l-4 8l-35 -2 q-14 6 -16 10v2l-4 -8l-15 -4l-4 2q-10 -10 -35 -14h-2l-8 -11h-10q-8 0 -25 -4l-2 -8l-31 -2q-14 -10 -24 -10q-4 0 -17 4l-12 -4h-35l-55 18l-18 15l-9 22v25l5 24zM1329 78l10 -12l-2 -9l23 -6l37 4l39 6l28 11l25 16l-19 6l-38 8l-21 -2h-37l-24 -6z" />
<glyph unicode="&#xbe;" horiz-adv-x="2174" d="M4 514q0 37 39 41q16 8 33 8h8l37 2q45 -12 45 -33q0 -8 -12 -18q4 0 16 -4l25 6q14 0 30 -10q16 4 45 4h25q10 8 20 8q12 0 21 -6q8 6 24 10l25 -12l4 2q4 2 13.5 4t13.5 2h16l25 14q12 -2 26 -2q6 0 31 11h12l4 6l29 20l19 -2q39 16 44 23.5t5 17.5q0 6 -23 10l-22 15 l-27 4l-39 -6l-10 12l-10 -2l-17 12l-4 -4q-25 4 -24 4q-6 0 -23 -6q-4 4 -14 10l-8 -2q-8 -2 -46 -6l-8 8l-30 2l-23 11l-29 -2l-28 12l-25 18l-8 25l12 27l31 8q25 12 55 18l31 10l72 11l14 8h22l13 12q4 0 8 -4q29 23 57 23l4 2t7 4l4 2l11 7q11 7 21 11v6q-10 14 -71 25 l-33 -2q-25 4 -35 4q-18 0 -29 -2h-14l-24 -6l-21 6l-10 -10l-35 -2l-16 -2l-31 -9q-12 -12 -25 -12q4 0 -20 6q0 -4 -6 -10h-8q-18 0 -37 -29q-10 0 -15 2l-8 -20l-49 20l-12 13l4 8l-8 -2q-8 10 -9 18q0 6 2 8l7 23l8 6q10 10 26 10h4l11 11l20 -2q12 10 35 10h8q0 8 6 14 h27l12 6l21 2l18 -12l-2 10h19l18 4q23 4 45 9l14 -3q18 6 56 7h16l-6 -4h6q14 0 21 -5l14 5l27 -3h26q18 2 23 3v-11l28 -8l37 -6l17 -23l24 -14l12 -27l-6 -24v-2q-4 -10 -14 -25q-20 -27 -51 -35l-10 -12l-33 -14l-31 -4l-16 -11l-29 -8l-20 -8l-27 4l-31 -8l33 -10h35 l16 2h14q16 0 33 -8.5t51 -8.5q4 -2 11 -6l2 2q2 0 14 -4l29 -2l20 -12h15l32 -27l6 -28l19 -17l-4 -12l4 -16l-21 -21l-8 -20l-26 -11v-10l-23 -4l-14 -14q-23 -8 -68 -19q-12 -8 -41 -12q-20 -10 -61 -18l-17 4l-57 -15l-27 2l-24 4q-4 0 -19 -4l-32 -4l-21 2l-12 -4 q-12 4 -19 6h-2q-6 0 -14 -4q-6 0 -22 4l-13 -2h-18q-12 0 -21 4l-22 -8l-15 15l-8 -7l-16 7q-12 -6 -21 -7q-10 0 -18 11q-37 6 -37 61zM662 -123l32 82l-2 23l23 24q6 31 24 55q8 25 11 37l28 41l13 27l2 29l22 34l16 19q2 16 21.5 38.5t21.5 37.5l13 28q41 96 67 123 q6 8 15 8v35l37 49l16 64l14 4l6 39l29 10l8 6l13 66q8 4 24 8q12 37 31 70l31 28q16 37 41 84l41 64q35 39 43 73q29 39 34 47q16 18 33 21h-6q27 8 53 8q37 0 58 -24q47 -21 47 -56q0 -23 -21 -45q-8 -35 -55 -47l-23 2l-24 -18l-15 -49l-20 -23l6 -22l-29 -13l-30 -30 l-2 -19l-25 -22q-12 -14 -18 -41l-27 -29l-4 -35l-25 -22l-14 -33l-12 -37l-27 -25l-29 -65l-16 -10l-2 -41l-31 -21l6 -45h-10q-23 0 -28 -12q-2 -4 -7.5 -11.5t-9.5 -11.5q-6 -33 -35 -55v-18q0 -20 -24 -45l-4 -17l-23 -8q0 -16 4 -21q-6 -6 -18 -30v-21l-17 -20l-16 -33 l-16 -16l-4 -9l-3 -22l-34 -78l-15 -37l-71 -61q-10 -2 -29 -2q-39 0 -63 16zM1372 223q12 25 39 37v4l14 12l31 13l45 2v-6l29 18l20 -2l6 12l13 9l-2 12l32 8q6 14 19 23l2 2q6 6 16 14l4 4q8 4 9 8l14 10l8 15l15 6q6 20 14 22q2 8 14 21q-2 0 -4 2q2 4 12 14q2 4 23 13 v22l22 12q14 45 41 45q8 0 27 -6l8 -12l6 -4q4 -2 4 -12v-31q-6 -10 -14 -27l-4 -2l-4 -18l-16 -6l-5 -11q-2 -14 -43 -55q0 -20 -26 -33l-4 -2q-12 -14 -19 -18q-10 -12 -28 -21l-9 -6l-2 -8l-18 -8l-6 -4l8 -2l20 2l19 -8q18 -8 24 -9h5q66 -8 51 -8q4 0 16 4l21 -4l4 8 v11l14 14q0 2 2 8v8l-2 25l10 2l-4 8q10 10 12 17l-8 16q6 6 21 14v37l6 2l-2 6l14 15q-8 12 -8 18t2 10l8 13l-2 14l6 25l-2 16q12 33 52 33q29 -14 45 -39q6 -14 6 -37l-13 -12l2 -31l-4 -8l-4 -10l-8 -15l2 -20l-8 -6l-2 -11l-10 -20l2 -19l-15 -47l-26 -51l2 -4l37 -12 l18 2q10 0 14 -2l60 18l12 8l33 9q16 16 41 16h6l25 -19q-2 -37 -35 -49l-4 -14q-29 -18 -45 -18q-8 -8 -35 -13l-10 -4l-35 -8l-17 -2l-16 6l-18 2l-19 -4l-25 8v-2l-10 -10l2 -12l-2 -13v-8l-10 -18l8 -4l-8 -7l8 -22l-12 -12l8 -17l-8 -20q4 -4 4 -12t-4 -11l2 -12v-6 q12 -18 31 -45l-17 -12q-14 -10 -32 -11q-23 0 -41 8l-2 29l-13 12v15l-16 12l6 10l-6 6l6 13l-6 20l-6 10l12 17l-4 12l6 31q-4 8 -4 14q0 4 4 12l2 11q2 4 2 16v12l-20 11q-37 0 -64 8h-33l-8 4l-24 -6l-15 10l-28 -2l-11 6h-10q-12 -2 -29 -2q-27 -10 -33.5 -11t-17.5 -7 l-4 -9l-14 -2q-10 -6 -31 -6h-12q-12 -4 -21 -4q-10 0 -22 4l-4 6l-8 2z" />
<glyph unicode="&#xbf;" horiz-adv-x="802" d="M70 231l16 48q4 16 4 28l-8 41q45 33 72 62l8 12l24 35h17l24 20l6 15l19 12v16l49 10l16 35h7v4l14 9l-4 8l53 39l10 24l19 35l-8 37l6 10l-19 12l-20 2q-43 18 -43 60q0 2 2 8v8l16 33l80 2l47 -33l23 -24q20 -12 30 -35l27 -6v-41l-6 -23l18 -26l-10 -33l-2 -25 l-31 -32q-4 -14 -20 -23q-4 -4 -8 -12q-6 -20 -25 -43h-6l-10 -21l-17 -6q-14 -25 -41 -33v6q-16 -16 -18 -22q2 0 2 2h2q4 -4 4 -6q0 -8 -6 -21l-33 -14l-8 -10l-39 -17v-18l-29 -14l-6 -29q-10 -2 -35 -10l3 -25l8 -26l-4 -17l12 -18h4l37 -23l4 -16l20 -19l17 -14l8 -2 l20 4l29 -4l4 8q27 0 37 -2l10 -2q23 0 54 10l4 2q8 -8 14 -20q6 16 31 20q80 25 96 25q45 0 68 -59q-49 -51 -107 -58l-12 10l-8 -28l-13 -4l-28 -29h-29l-14 -10l-43 -10l-33 10q-6 -2 -21 -2q-16 0 -24 2l-23 -10q-45 25 -35 24q-4 0 -4 -4l-22 4h-17l-4 4l-39 2l-16 25 l-4 4l-27 24l-34 46l-29 45l-21 20l-4 29zM328 1036v8q0 37 30 52l29 6l53 14l43 -12l43 -21l29 -34l-18 -31l8 -43l-21 -31l-24 -22l-49 16l-9 -4l-34 12l-58 33z" />
<glyph unicode="&#xc0;" horiz-adv-x="1488" d="M-88 -10l25 51v31l8 10l4 41l63 8l17 10q25 14 28 43q37 10 45 41q55 29 72 90l35 13l51 75q-16 23 -24 58l43 35v39l79 -7l21 11q10 35 41 49l4 39l43 22q6 4 22 10v13q0 18 9 33q43 31 45 83l28 7l11 18l14 2l39 74l10 -4l17 8v55h14q51 55 51 72l10 8l-10 31 q49 59 80 61l39 33l45 -45l57 -31l6 -53q10 -12 17 -25q29 -35 33 -71l12 -51l31 -46l18 -67l4 -33l37 -45l-8 -14l16 -15v-41l4 -30q-6 -31 -6 -23l10 -10l13 -16q27 2 39 6h61q16 -4 25 -4q12 0 25 9t42 9q20 0 62 -20l61 -5q4 -16 4 -24q0 -31 -31 -47l-30 10l-58 -41 l-47 6l-20 -10l-45 -4v8l-54 -12l-2 -12l4 -48l27 -36l4 -37l47 -66l-4 -22l19 -19l49 -76l35 -34l8 -17l37 -18l14 -33l55 -33q-2 -51 -67 -71l-78 36h-23l-26 21h-33l-25 41l-20 10l-27 47l-37 39v16l-16 15l-4 33l-27 24l-43 96l-18 23l-8 57l-27 35l-43 6l-47 -26 l-10 10l-33 -21l-10 23q-10 -2 -31 -2q-23 0 -33 2h-16l-43 -23l-47 7h-8l-33 -19l-27 10q-39 0 -57 9h-10l-54 -25l-20 22l-37 11l-8 -6q-45 -59 -66 -84l-33 -9q-78 -113 -98 -120l-8 -2l-66 -80h-8l-41 -64l-78 -43q-20 -4 -32 -4q-39 0 -74 29zM549 1478l14 17l19 31 l32 10l29 28l45 -20l29 -8l22 -31l41 -43l21 -37l22 -16l13 -25l26 -10l15 -20l28 -13l8 -10q16 -8 31 -25l6 -4q27 -12 33 -26l23 -45l-33 -47l-70 18l-14 10q-6 6 -17 15q-35 4 -43 20q-4 0 -19 3t-28 3l-18 25q-14 10 -21 22q-14 4 -36 25q-33 12 -48 37l-20 20 q-20 4 -43 37l-2 6l-41 10zM553 528h18q37 -12 62 -12h8q12 6 25 6q14 0 32 -8l9 -2q12 2 38 2q33 0 50 -2l71 8l47 -24q35 14 41 28q0 -2 2 -2v-2h-2l-22 23l24 20q-16 14 -16 43l-14 8l-11 84l-24 35l-6 35l-4 8h-15l-6 74l-18 27l-11 4l-6 8l-8 -15l-49 -61l-16 -35 l-41 -37l-9 -36l-47 -21q-10 -61 -61 -88l-14 -41z" />
<glyph unicode="&#xc1;" horiz-adv-x="1488" d="M-88 -10l25 51v31l8 10l4 41l63 8l17 10q25 14 28 43q37 10 45 41q55 29 72 90l35 13l51 75q-16 23 -24 58l43 35v39l79 -7l21 11q10 35 41 49l4 39l43 22q6 4 22 10v13q0 18 9 33q43 31 45 83l28 7l11 18l14 2l39 74l10 -4l17 8v55h14q51 55 51 72l10 8l-10 31 q49 59 80 61l39 33l45 -45l57 -31l6 -53q10 -12 17 -25q29 -35 33 -71l12 -51l31 -46l18 -67l4 -33l37 -45l-8 -14l16 -15v-41l4 -30q-6 -31 -6 -23l10 -10l13 -16q27 2 39 6h61q16 -4 25 -4q12 0 25 9t42 9q20 0 62 -20l61 -5q4 -16 4 -24q0 -31 -31 -47l-30 10l-58 -41 l-47 6l-20 -10l-45 -4v8l-54 -12l-2 -12l4 -48l27 -36l4 -37l47 -66l-4 -22l19 -19l49 -76l35 -34l8 -17l37 -18l14 -33l55 -33q-2 -51 -67 -71l-78 36h-23l-26 21h-33l-25 41l-20 10l-27 47l-37 39v16l-16 15l-4 33l-27 24l-43 96l-18 23l-8 57l-27 35l-43 6l-47 -26 l-10 10l-33 -21l-10 23q-10 -2 -31 -2q-23 0 -33 2h-16l-43 -23l-47 7h-8l-33 -19l-27 10q-39 0 -57 9h-10l-54 -25l-20 22l-37 11l-8 -6q-45 -59 -66 -84l-33 -9q-78 -113 -98 -120l-8 -2l-66 -80h-8l-41 -64l-78 -43q-20 -4 -32 -4q-39 0 -74 29zM553 528h18 q37 -12 62 -12h8q12 6 25 6q14 0 32 -8l9 -2q12 2 38 2q33 0 50 -2l71 8l47 -24q35 14 41 28q0 -2 2 -2v-2h-2l-22 23l24 20q-16 14 -16 43l-14 8l-11 84l-24 35l-6 35l-4 8h-15l-6 74l-18 27l-11 4l-6 8l-8 -15l-49 -61l-16 -35l-41 -37l-9 -36l-47 -21q-10 -61 -61 -88 l-14 -41zM696 1214l29 56l10 34l47 21l29 43l14 2l11 14v21l26 26l23 -14q25 29 33 45q37 20 38 31q6 27 39 41l31 28l43 5l19 -5q67 -14 73 -57l-10 -24l-10 -50h-8q-47 0 -68 -43l-18 13l-68 -56h-6l-17 -18l5 -12l-37 -13v-12l-31 -10l-12 -17l-9 -24l-10 -4v-13l-37 -12 l-53 -45z" />
<glyph unicode="&#xc2;" horiz-adv-x="1488" d="M-88 -10l25 51v31l8 10l4 41l63 8l17 10q25 14 28 43q37 10 45 41q55 29 72 90l35 13l51 75q-16 23 -24 58l43 35v39l79 -7l21 11q10 35 41 49l4 39l43 22q6 4 22 10v13q0 18 9 33q43 31 45 83l28 7l11 18l14 2l39 74l10 -4l17 8v55h14q51 55 51 72l10 8l-10 31 q49 59 80 61l39 33l45 -45l57 -31l6 -53q10 -12 17 -25q29 -35 33 -71l12 -51l31 -46l18 -67l4 -33l37 -45l-8 -14l16 -15v-41l4 -30q-6 -31 -6 -23l10 -10l13 -16q27 2 39 6h61q16 -4 25 -4q12 0 25 9t42 9q20 0 62 -20l61 -5q4 -16 4 -24q0 -31 -31 -47l-30 10l-58 -41 l-47 6l-20 -10l-45 -4v8l-54 -12l-2 -12l4 -48l27 -36l4 -37l47 -66l-4 -22l19 -19l49 -76l35 -34l8 -17l37 -18l14 -33l55 -33q-2 -51 -67 -71l-78 36h-23l-26 21h-33l-25 41l-20 10l-27 47l-37 39v16l-16 15l-4 33l-27 24l-43 96l-18 23l-8 57l-27 35l-43 6l-47 -26 l-10 10l-33 -21l-10 23q-10 -2 -31 -2q-23 0 -33 2h-16l-43 -23l-47 7h-8l-33 -19l-27 10q-39 0 -57 9h-10l-54 -25l-20 22l-37 11l-8 -6q-45 -59 -66 -84l-33 -9q-78 -113 -98 -120l-8 -2l-66 -80h-8l-41 -64l-78 -43q-20 -4 -32 -4q-39 0 -74 29zM498 1214q0 51 43 70 l4 12h6v6l10 2l17 9q23 37 73 77l4 11l13 4l4 6l24 20q37 16 37 21q-2 2 -10 2q0 20 35 33q8 6 14 28q8 6 31 47l18 -4q18 14 45 15h9l36 -4l25 -45l35 -41l4 -9l20 -12l7 -24l20 -17q2 -12 16 -29q16 -4 23 -18l41 -33v-22l16 -8l15 -15l30 -10l54 -53l-39 -33l-41 -14 l-70 10q-45 23 -78 65q-35 6 -47 35l-12 8l-27 27l-33 18v19l-24 24l2 7l-6 10l-10 -21l-17 -4v-6l-8 -4v-6l-41 -31v-16l-33 -10l-8 -15l-10 -6l-6 -6l-29 -16l6 2q-10 -10 -20 -17l-13 -4l-22 -29l-21 -14l-37 -43zM553 528h18q37 -12 62 -12h8q12 6 25 6q14 0 32 -8l9 -2 q12 2 38 2q33 0 50 -2l71 8l47 -24q35 14 41 28q0 -2 2 -2v-2h-2l-22 23l24 20q-16 14 -16 43l-14 8l-11 84l-24 35l-6 35l-4 8h-15l-6 74l-18 27l-11 4l-6 8l-8 -15l-49 -61l-16 -35l-41 -37l-9 -36l-47 -21q-10 -61 -61 -88l-14 -41z" />
<glyph unicode="&#xc3;" horiz-adv-x="1488" d="M-88 -10l25 51v31l8 10l4 41l63 8l17 10q25 14 28 43q37 10 45 41q55 29 72 90l35 13l51 75q-16 23 -24 58l43 35v39l79 -7l21 11q10 35 41 49l4 39l43 22q6 4 22 10v13q0 18 9 33q43 31 45 83l28 7l11 18l14 2l39 74l10 -4l17 8v55h14q51 55 51 72l10 8l-10 31 q49 59 80 61l39 33l45 -45l57 -31l6 -53q10 -12 17 -25q29 -35 33 -71l12 -51l31 -46l18 -67l4 -33l37 -45l-8 -14l16 -15v-41l4 -30q-6 -31 -6 -23l10 -10l13 -16q27 2 39 6h61q16 -4 25 -4q12 0 25 9t42 9q20 0 62 -20l61 -5q4 -16 4 -24q0 -31 -31 -47l-30 10l-58 -41 l-47 6l-20 -10l-45 -4v8l-54 -12l-2 -12l4 -48l27 -36l4 -37l47 -66l-4 -22l19 -19l49 -76l35 -34l8 -17l37 -18l14 -33l55 -33q-2 -51 -67 -71l-78 36h-23l-26 21h-33l-25 41l-20 10l-27 47l-37 39v16l-16 15l-4 33l-27 24l-43 96l-18 23l-8 57l-27 35l-43 6l-47 -26 l-10 10l-33 -21l-10 23q-10 -2 -31 -2q-23 0 -33 2h-16l-43 -23l-47 7h-8l-33 -19l-27 10q-39 0 -57 9h-10l-54 -25l-20 22l-37 11l-8 -6q-45 -59 -66 -84l-33 -9q-78 -113 -98 -120l-8 -2l-66 -80h-8l-41 -64l-78 -43q-20 -4 -32 -4q-39 0 -74 29zM516 1278q0 29 45 55 l27 29l22 10q12 14 45 35l15 2q27 10 49 37l45 8l22 -4l9 2q23 -31 53 -39l24 -14l31 -41l37 -19l4 -10l62 10l8 33v27l20 36q14 25 54 25q29 0 60.5 -27.5t35.5 -64.5q-4 -25 -10 -31v-10q0 -12 -9 -23l-37 -26l-40 -8l-13 -15l-12 -16l-51 -14l-62 -11l-84 31q-8 8 -8 10 v2l-55 31l-2 29l-15 -6v24q-12 6 -30 6l-45 -28q-18 -12 -33 -33q-18 -29 -27 -37q-25 -25 -65 -25l-37 4q-33 37 -33 56zM553 528h18q37 -12 62 -12h8q12 6 25 6q14 0 32 -8l9 -2q12 2 38 2q33 0 50 -2l71 8l47 -24q35 14 41 28q0 -2 2 -2v-2h-2l-22 23l24 20 q-16 14 -16 43l-14 8l-11 84l-24 35l-6 35l-4 8h-15l-6 74l-18 27l-11 4l-6 8l-8 -15l-49 -61l-16 -35l-41 -37l-9 -36l-47 -21q-10 -61 -61 -88l-14 -41z" />
<glyph unicode="&#xc4;" horiz-adv-x="1488" d="M-88 -10l25 51v31l8 10l4 41l63 8l17 10q25 14 28 43q37 10 45 41q55 29 72 90l35 13l51 75q-16 23 -24 58l43 35v39l79 -7l21 11q10 35 41 49l4 39l43 22q6 4 22 10v13q0 18 9 33q43 31 45 83l28 7l11 18l14 2l39 74l10 -4l17 8v55h14q51 55 51 72l10 8l-10 31 q49 59 80 61l39 33l45 -45l57 -31l6 -53q10 -12 17 -25q29 -35 33 -71l12 -51l31 -46l18 -67l4 -33l37 -45l-8 -14l16 -15v-41l4 -30q-6 -31 -6 -23l10 -10l13 -16q27 2 39 6h61q16 -4 25 -4q12 0 25 9t42 9q20 0 62 -20l61 -5q4 -16 4 -24q0 -31 -31 -47l-30 10l-58 -41 l-47 6l-20 -10l-45 -4v8l-54 -12l-2 -12l4 -48l27 -36l4 -37l47 -66l-4 -22l19 -19l49 -76l35 -34l8 -17l37 -18l14 -33l55 -33q-2 -51 -67 -71l-78 36h-23l-26 21h-33l-25 41l-20 10l-27 47l-37 39v16l-16 15l-4 33l-27 24l-43 96l-18 23l-8 57l-27 35l-43 6l-47 -26 l-10 10l-33 -21l-10 23q-10 -2 -31 -2q-23 0 -33 2h-16l-43 -23l-47 7h-8l-33 -19l-27 10q-39 0 -57 9h-10l-54 -25l-20 22l-37 11l-8 -6q-45 -59 -66 -84l-33 -9q-78 -113 -98 -120l-8 -2l-66 -80h-8l-41 -64l-78 -43q-20 -4 -32 -4q-39 0 -74 29zM553 528h18 q37 -12 62 -12h8q12 6 25 6q14 0 32 -8l9 -2q12 2 38 2q33 0 50 -2l71 8l47 -24q35 14 41 28q0 -2 2 -2v-2h-2l-22 23l24 20q-16 14 -16 43l-14 8l-11 84l-24 35l-6 35l-4 8h-15l-6 74l-18 27l-11 4l-6 8l-8 -15l-49 -61l-16 -35l-41 -37l-9 -36l-47 -21q-10 -61 -61 -88 l-14 -41zM567 1325l11 33q16 35 49 49l8 8q8 8 27 23l32 -13l17 6l12 -12q18 0 33 -20l28 -15l29 -59l-12 -8l6 -23l-12 -6v-14l-29 -13l-25 -28l-34 -2l-19 -4l4 2q-18 -6 -30 -7q-20 0 -31 19q-4 0 -15 10l-14 8q4 4 4 6v5h-8l-8 4l-12 16l6 12zM895 1335l12 12l-4 11 l25 24v4q4 4 12 13l21 12q10 16 34 16q14 0 25 -4l10 -6h37l25 -29l26 -12v-14l15 -8l-7 -23l11 -8l-27 -58l-14 -4l-2 -8l-17 -8q-10 -14 -16 -14h-4l-29 -15l-8 9l-37 -13q-8 18 -42 37t-38 41z" />
<glyph unicode="&#xc5;" horiz-adv-x="1488" d="M-88 -10l25 51v31l8 10l4 41l63 8l17 10q25 14 28 43q37 10 45 41q55 29 72 90l35 13l51 75q-16 23 -24 58l43 35v39l79 -7l21 11q10 35 41 49l4 39l43 22q6 4 22 10v13q0 18 9 33q43 31 45 83l28 7l11 18l14 2l39 74l10 -4l17 8v55h14q51 55 51 72l10 8l-10 31 q49 59 80 61l39 33l45 -45l57 -31l6 -53q10 -12 17 -25q29 -35 33 -71l12 -51l31 -46l18 -67l4 -33l37 -45l-8 -14l16 -15v-41l4 -30q-6 -31 -6 -23l10 -10l13 -16q27 2 39 6h61q16 -4 25 -4q12 0 25 9t42 9q20 0 62 -20l61 -5q4 -16 4 -24q0 -31 -31 -47l-30 10l-58 -41 l-47 6l-20 -10l-45 -4v8l-54 -12l-2 -12l4 -48l27 -36l4 -37l47 -66l-4 -22l19 -19l49 -76l35 -34l8 -17l37 -18l14 -33l55 -33q-2 -51 -67 -71l-78 36h-23l-26 21h-33l-25 41l-20 10l-27 47l-37 39v16l-16 15l-4 33l-27 24l-43 96l-18 23l-8 57l-27 35l-43 6l-47 -26 l-10 10l-33 -21l-10 23q-10 -2 -31 -2q-23 0 -33 2h-16l-43 -23l-47 7h-8l-33 -19l-27 10q-39 0 -57 9h-10l-54 -25l-20 22l-37 11l-8 -6q-45 -59 -66 -84l-33 -9q-78 -113 -98 -120l-8 -2l-66 -80h-8l-41 -64l-78 -43q-20 -4 -32 -4q-39 0 -74 29zM553 528h18 q37 -12 62 -12h8q12 6 25 6q14 0 32 -8l9 -2q12 2 38 2q33 0 50 -2l71 8l47 -24q35 14 41 28q0 -2 2 -2v-2h-2l-22 23l24 20q-16 14 -16 43l-14 8l-11 84l-24 35l-6 35l-4 8h-15l-6 74l-18 27l-11 4l-6 8l-8 -15l-49 -61l-16 -35l-41 -37l-9 -36l-47 -21q-10 -61 -61 -88 l-14 -41zM643 1360l10 80v14l4 8l15 8q6 45 41 51q14 10 33 15l20 20l43 11l25 -3h12q18 0 33 -8h10q-18 0 80 -26l26 -33l47 -43l7 -33q12 -26 12 -53q0 -55 -98 -117l-11 -2q-25 -31 -65 -31h-6q-49 -12 -58 -12q-10 0 -22 12q-14 -6 -33 -6q-16 0 -35 6l-55 19 q-2 29 -21 55q-8 12 -8 35v10l4 -4zM764 1366l2 -45l10 -10l31 6l22 -9h21l45 27l20 -4h7l6 10l-10 27l12 10q-14 47 -15 45l-2 10q-25 14 -38 31q-4 -2 -15 -2q-16 0 -35 -22l-2 -17l-43 -10l-10 -14z" />
<glyph unicode="&#xc6;" horiz-adv-x="2265" d="M-63 86l36 27l17 16l33 39q16 18 34 29q2 16 21 24q27 14 33 21l18 24l31 13l10 12l16 2l17 22q31 10 61 25l25 27l33 10q10 29 34 33l9 2l10 2l26 28l29 11q33 27 47 32q20 18 39 37h-2q-2 -2 -16 -12l45 12l43 47l41 9l28 30h13l10 21l88 47q12 12 53 41l35 28l33 13 q31 23 43 24h6q49 49 90 49q47 57 70 66l14 12l31 19l16 24l27 9l33 24l18 12l4 23l33 43h24q55 45 80 45h15q20 0 41 -35l22 -6l90 8h37l51 15l29 -9l55 4l29 -10q16 6 37 8l45 4l14 9q53 -6 107 -13q45 -6 57 -22l49 4l17 -21q41 -18 40 -61v-8l-81 -39q-25 18 -33 22 l-33 -10l-29 8l-41 -14l-47 6l-14 -8l-49 -2l-37 -12l-105 -4l-49 4h-24l-19 -11l-51 -8l-18 8l-33 -8l-18 8q-10 -10 -11 -16q0 -2 2 -5t2 -7v-2l-14 -62l-12 -26l-8 -37l-11 -17l-14 -63l-16 -53l-2 -15h22l43 -6h27l49 12l24 -6l19 9l39 -9q4 0 24 13q33 -8 43 -9 q14 0 40 9.5t85 9.5l-2 2q0 8 41 4l27 -2q16 6 28 6h11l6 6l57 -12l23 8l47 8l55 -6q80 0 82 -61q-33 -63 -84 -64q-4 0 -6 6q-12 -4 -18 -4q-4 0 -9 2h-6h-22l-17 -14l-43 2l-39 -16l-32 12l-29 -6q-20 -16 -37 -21l-78 2q-12 -4 -33 -4l-6 2l-49 -4l-33 2l-39 -14l-26 4 l-8 -2h-31q-12 -10 -39 -10l-29 6q-12 -4 -22 -6l-51 2l-33 -6l-2 -11q-2 -10 -2 -38q0 -84 33 -158h-5l35 -29l31 -4l33 -22h30l35 10h68l76 16l37 12l20 5q31 25 61 24h7q18 10 43 12l71 33l43 6l29 15l18 4q23 16 50 24q18 18 57 23q35 31 72 31q61 -1 61 -64 q0 -37 -39 -57q-14 -31 -57 -39l-8 2q-49 -25 -125 -55l-19 -17h-31l-18 -16l-35 -2l-37 -19q-10 0 -18 -4l-4 8l-12 -20q2 0 -15 2q-4 0 -4 -2l2 -2q-25 -20 -47 -23l-29 -2q-16 -6 -28 -10l-17 -16l-37 2l-8 -8h-49q-25 -6 -57 -29l-53 6l-31 -4l-43 8l-29 10l-102 47 l-62 78l-28 68l-21 106v91q0 10 -6 10l-29 -8l-84 2l-59 -17l-47 -6l-23 6l-35 -14l-28 6l-43 -14l-4 4l-6 -2l-50 6l-24 -14l-31 10q-12 -2 -37 -2l-24 -10l-23 -7l-45 -28l-47 -33l-37 -19l-82 -53l-45 -35l-106 -57l-33 -31l-76 -47l-63 -57l-31 -12l-8 -15 q-20 -12 -39 -12q-53 0 -55 86zM868 569h47l76 15l88 4l58 6l45 4l2 4q2 10 2 39l12 16l14 64q18 82 19 78l14 41l-43 -15l-20 -39q-12 -16 -37 -26l-33 -25l-25 -24l-16 -6l-4 -5q-25 -20 -43 -20l-16 -23l-37 -22l-39 -23l-41 -34z" />
<glyph unicode="&#xc7;" horiz-adv-x="1288" d="M88 403l10 33v49l17 11l2 12l26 94l27 60l16 43q6 27 26.5 56.5t20.5 39.5q0 14 -10 26l41 21q10 12 29 29l8 47l31 14l10 41q35 2 66.5 31.5t48.5 33.5l16 17l53 14l33 21l37 -21q47 10 61 10h23l12 -4l25 -4q43 -18 98 -33l27 -24l121 -68l14 -30l20 -19l15 -43l12 -31 l8 -38l-2 -54q0 -4 -2 -18t-43 -98q-20 -14 -51 -15q-16 0 -27 2l-41 29l-22 29l-10 36l-5 39l5 35l-5 41l2 29l-12 22l-31 23q-35 10 -47 16t-14 17h-39l-16 14l-27 -16l-22 16l-11 -8l-24 4l-23 -12l-41 2l-26 -35l-58 -55l-49 -68l-10 -4l-14 -45l-25 -19v-18l-39 -59 l-18 -84l2 -9l-19 -32l8 -33l-18 -19v-10l-8 -6l2 -57l-8 -47l16 -25l4 -14l19 -17v-28l22 -31l-8 -16l29 -29l2 -10l73 -27l-2 -14l54 -4l20 -17l47 14l23 -26l12 6q23 16 45 16q8 0 25 -4l26 4l15 -10l18 4q10 0 31 4q20 27 71 27q18 16 58 16q20 18 59 31q18 0 39 10 l16 27l31 8l29 12l24 29l78 47l68 76l47 31l43 -25v4q6 -10 6 -47q0 -4 -6 -20l4 -15q-6 -57 -65 -69l-13 -25l-69 -45l-17 -22l-35 -31q-23 -4 -47 -10q-55 -55 -127 -74l-39 -21q-12 -8 -47 -8t-63 -20l-39 -29l-39 8q-37 -10 -61 -10q-53 -25 -58 -68h12q25 0 37 11 q23 6 29 6q25 0 49 -19l27 -2l14 -16l27 -6l61 -105l-16 -53l-2 -55l-35 -37l-10 -12l-27 -11l-20 -28q-35 0 -64 -4q-23 -16 -43 -17q-8 0 -24 4l-70 8l-76 23l-16 45l4 49q20 14 47 15q10 0 27 -5l14 -14l22 2q6 0 24.5 -6t20.5 -6q16 8 25 8l4 6h29q16 8 24 8l5 23l10 16 q-16 14 -17 29q0 12 9 27q-8 -6 -19 -7l-45 13l-37 -15l-6 5l-16 -19l-60 -2l-16 10l-29 -2l-20 33l12 53l23 31q10 16 32 45l-2 16l17 25l-45 -2l-25 10l-20 -8l-62 25l-27 20l-51 12l-10 25l-27 6q-35 8 -45 51l2 6q-20 25 -38 74q-18 6 -36 43t-18 76v53q-8 18 -8 55z " />
<glyph unicode="&#xc8;" horiz-adv-x="1271" d="M141 920q0 31 39 69l15 15l18 8q33 14 51 14h10q4 2 21 2h8l21 33l92 -6l6 -6q18 4 55 4l41 10h10q27 8 52 33l30 -17h11q10 0 23 -2t18 -2l204 19l21 -9l28 7l17 16l41 -23l14 11l45 -19l31 8l16 -10l66 6l14 -10l33 -6q47 -8 47 -45q0 -25 -17.5 -43.5t-35.5 -18.5h-8 l-23 -12l-41 12l-18 -2q-6 -2 -17 -2q-20 0 -37 9l-6 8q-20 -4 -26 -4q-8 0 -21 4q-20 -14 -76 -25q-29 0 -63 2q0 2 8 15l-53 -15q-2 2 -4 2q-14 0 -53 -32l-27 12l-12 -8l-50 14l-28 -14h-41l-62 -13l-51 -22l-14 8l-27 -18h-26l-7 -11l7 -24l-35 -41l16 -2v-58l23 -24 l-19 -17q-20 -35 -20 -47q0 -8 12 -12l25 8q10 2 20 2q31 -4 45 -8l37 14l33 -10l18 4l23 -2l33 6q16 -4 26 -4q8 0 33 15q16 -8 47 -9q4 0 14 2h17h4q-4 0 -8 3h6q12 0 74 -7q6 2 63 4q33 2 41 3q31 0 59 -3l19 3q29 16 53 16q18 0 37 -6l29 6l24 -10l82 20v-18 q0 -47 -29 -86q-55 -23 -92 -23q-8 0 -22.5 4t-18.5 4l-53 -26l-49 4l-29 -10l-14 4l-37 -21l-31 10q-55 0 -88 -2l8 2l-36 -12h-7l-14 -12l-29 8l-16 -14l-45 18l-27 -16q-49 14 -57 14q-23 0 -55 -14l-92 -8l-9 4l-34 -6l-3 -9l21 -102l-8 -10l8 -21l-2 -26q10 -31 14 -62 l25 -24l-4 -13l41 -51q63 -45 96 -45h4q4 0 10 2h8q8 0 23 -6l18 2q27 6 76 14l23 13l4 8l14 2l17 10l10 -6l33 10l26 17l10 14l35 27l27 4l49 36q51 8 74 82l6 -2l2 6l27 3l38 32l15 2q6 2 14 2q39 0 47 -75l-90 -107l-22 -6l-9 -12l-38 -41l-56 -33l-45 -43l-14 2l-17 -16 l-92 -35l-37 -41l-26 10l-10 -18l-19 6l-10 -10l-68 12l-69 -29l-70 23l-88 41q-113 53 -174 295l2 22l-18 47l18 21l-12 57l-2 18l-35 39v25q0 59 33 82q6 16 22 31l-4 6v57l-6 29l26 65l7 33l-21 -2h-8q-29 0 -49.5 19.5t-20.5 46.5zM436 1478l14 17l19 31l32 10l29 28 l45 -20l29 -8l22 -31l41 -43l21 -37l22 -16l13 -25l26 -10l15 -20l28 -13l8 -10q16 -8 31 -25l6 -4q27 -12 33 -26l23 -45l-33 -47l-70 18l-14 10q-6 6 -17 15q-35 4 -43 20q-4 0 -19 3t-28 3l-18 25q-14 10 -21 22q-14 4 -36 25q-33 12 -48 37l-20 20q-20 4 -43 37l-2 6 l-41 10z" />
<glyph unicode="&#xc9;" horiz-adv-x="1271" d="M141 920q0 31 39 69l15 15l18 8q33 14 51 14h10q4 2 21 2h8l21 33l92 -6l6 -6q18 4 55 4l41 10h10q27 8 52 33l30 -17h11q10 0 23 -2t18 -2l204 19l21 -9l28 7l17 16l41 -23l14 11l45 -19l31 8l16 -10l66 6l14 -10l33 -6q47 -8 47 -45q0 -25 -17.5 -43.5t-35.5 -18.5h-8 l-23 -12l-41 12l-18 -2q-6 -2 -17 -2q-20 0 -37 9l-6 8q-20 -4 -26 -4q-8 0 -21 4q-20 -14 -76 -25q-29 0 -63 2q0 2 8 15l-53 -15q-2 2 -4 2q-14 0 -53 -32l-27 12l-12 -8l-50 14l-28 -14h-41l-62 -13l-51 -22l-14 8l-27 -18h-26l-7 -11l7 -24l-35 -41l16 -2v-58l23 -24 l-19 -17q-20 -35 -20 -47q0 -8 12 -12l25 8q10 2 20 2q31 -4 45 -8l37 14l33 -10l18 4l23 -2l33 6q16 -4 26 -4q8 0 33 15q16 -8 47 -9q4 0 14 2h17h4q-4 0 -8 3h6q12 0 74 -7q6 2 63 4q33 2 41 3q31 0 59 -3l19 3q29 16 53 16q18 0 37 -6l29 6l24 -10l82 20v-18 q0 -47 -29 -86q-55 -23 -92 -23q-8 0 -22.5 4t-18.5 4l-53 -26l-49 4l-29 -10l-14 4l-37 -21l-31 10q-55 0 -88 -2l8 2l-36 -12h-7l-14 -12l-29 8l-16 -14l-45 18l-27 -16q-49 14 -57 14q-23 0 -55 -14l-92 -8l-9 4l-34 -6l-3 -9l21 -102l-8 -10l8 -21l-2 -26q10 -31 14 -62 l25 -24l-4 -13l41 -51q63 -45 96 -45h4q4 0 10 2h8q8 0 23 -6l18 2q27 6 76 14l23 13l4 8l14 2l17 10l10 -6l33 10l26 17l10 14l35 27l27 4l49 36q51 8 74 82l6 -2l2 6l27 3l38 32l15 2q6 2 14 2q39 0 47 -75l-90 -107l-22 -6l-9 -12l-38 -41l-56 -33l-45 -43l-14 2l-17 -16 l-92 -35l-37 -41l-26 10l-10 -18l-19 6l-10 -10l-68 12l-69 -29l-70 23l-88 41q-113 53 -174 295l2 22l-18 47l18 21l-12 57l-2 18l-35 39v25q0 59 33 82q6 16 22 31l-4 6v57l-6 29l26 65l7 33l-21 -2h-8q-29 0 -49.5 19.5t-20.5 46.5zM583 1214l29 56l10 34l47 21l29 43 l14 2l11 14v21l26 26l23 -14q25 29 33 45q37 20 38 31q6 27 39 41l31 28l43 5l19 -5q67 -14 73 -57l-10 -24l-10 -50h-8q-47 0 -68 -43l-18 13l-68 -56h-6l-17 -18l5 -12l-37 -13v-12l-31 -10l-12 -17l-9 -24l-10 -4v-13l-37 -12l-53 -45z" />
<glyph unicode="&#xca;" horiz-adv-x="1271" d="M141 920q0 31 39 69l15 15l18 8q33 14 51 14h10q4 2 21 2h8l21 33l92 -6l6 -6q18 4 55 4l41 10h10q27 8 52 33l30 -17h11q10 0 23 -2t18 -2l204 19l21 -9l28 7l17 16l41 -23l14 11l45 -19l31 8l16 -10l66 6l14 -10l33 -6q47 -8 47 -45q0 -25 -17.5 -43.5t-35.5 -18.5h-8 l-23 -12l-41 12l-18 -2q-6 -2 -17 -2q-20 0 -37 9l-6 8q-20 -4 -26 -4q-8 0 -21 4q-20 -14 -76 -25q-29 0 -63 2q0 2 8 15l-53 -15q-2 2 -4 2q-14 0 -53 -32l-27 12l-12 -8l-50 14l-28 -14h-41l-62 -13l-51 -22l-14 8l-27 -18h-26l-7 -11l7 -24l-35 -41l16 -2v-58l23 -24 l-19 -17q-20 -35 -20 -47q0 -8 12 -12l25 8q10 2 20 2q31 -4 45 -8l37 14l33 -10l18 4l23 -2l33 6q16 -4 26 -4q8 0 33 15q16 -8 47 -9q4 0 14 2h17h4q-4 0 -8 3h6q12 0 74 -7q6 2 63 4q33 2 41 3q31 0 59 -3l19 3q29 16 53 16q18 0 37 -6l29 6l24 -10l82 20v-18 q0 -47 -29 -86q-55 -23 -92 -23q-8 0 -22.5 4t-18.5 4l-53 -26l-49 4l-29 -10l-14 4l-37 -21l-31 10q-55 0 -88 -2l8 2l-36 -12h-7l-14 -12l-29 8l-16 -14l-45 18l-27 -16q-49 14 -57 14q-23 0 -55 -14l-92 -8l-9 4l-34 -6l-3 -9l21 -102l-8 -10l8 -21l-2 -26q10 -31 14 -62 l25 -24l-4 -13l41 -51q63 -45 96 -45h4q4 0 10 2h8q8 0 23 -6l18 2q27 6 76 14l23 13l4 8l14 2l17 10l10 -6l33 10l26 17l10 14l35 27l27 4l49 36q51 8 74 82l6 -2l2 6l27 3l38 32l15 2q6 2 14 2q39 0 47 -75l-90 -107l-22 -6l-9 -12l-38 -41l-56 -33l-45 -43l-14 2l-17 -16 l-92 -35l-37 -41l-26 10l-10 -18l-19 6l-10 -10l-68 12l-69 -29l-70 23l-88 41q-113 53 -174 295l2 22l-18 47l18 21l-12 57l-2 18l-35 39v25q0 59 33 82q6 16 22 31l-4 6v57l-6 29l26 65l7 33l-21 -2h-8q-29 0 -49.5 19.5t-20.5 46.5zM385 1214q0 51 43 70l4 12h6v6l10 2 l17 9q23 37 73 77l4 11l13 4l4 6l24 20q37 16 37 21q-2 2 -10 2q0 20 35 33q8 6 14 28q8 6 31 47l18 -4q18 14 45 15h9l36 -4l25 -45l35 -41l4 -9l20 -12l7 -24l20 -17q2 -12 16 -29q16 -4 23 -18l41 -33v-22l16 -8l15 -15l30 -10l54 -53l-39 -33l-41 -14l-70 10 q-45 23 -78 65q-35 6 -47 35l-12 8l-27 27l-33 18v19l-24 24l2 7l-6 10l-10 -21l-17 -4v-6l-8 -4v-6l-41 -31v-16l-33 -10l-8 -15l-10 -6l-6 -6l-29 -16l6 2q-10 -10 -20 -17l-13 -4l-22 -29l-21 -14l-37 -43z" />
<glyph unicode="&#xcb;" horiz-adv-x="1271" d="M141 920q0 31 39 69l15 15l18 8q33 14 51 14h10q4 2 21 2h8l21 33l92 -6l6 -6q18 4 55 4l41 10h10q27 8 52 33l30 -17h11q10 0 23 -2t18 -2l204 19l21 -9l28 7l17 16l41 -23l14 11l45 -19l31 8l16 -10l66 6l14 -10l33 -6q47 -8 47 -45q0 -25 -17.5 -43.5t-35.5 -18.5h-8 l-23 -12l-41 12l-18 -2q-6 -2 -17 -2q-20 0 -37 9l-6 8q-20 -4 -26 -4q-8 0 -21 4q-20 -14 -76 -25q-29 0 -63 2q0 2 8 15l-53 -15q-2 2 -4 2q-14 0 -53 -32l-27 12l-12 -8l-50 14l-28 -14h-41l-62 -13l-51 -22l-14 8l-27 -18h-26l-7 -11l7 -24l-35 -41l16 -2v-58l23 -24 l-19 -17q-20 -35 -20 -47q0 -8 12 -12l25 8q10 2 20 2q31 -4 45 -8l37 14l33 -10l18 4l23 -2l33 6q16 -4 26 -4q8 0 33 15q16 -8 47 -9q4 0 14 2h17h4q-4 0 -8 3h6q12 0 74 -7q6 2 63 4q33 2 41 3q31 0 59 -3l19 3q29 16 53 16q18 0 37 -6l29 6l24 -10l82 20v-18 q0 -47 -29 -86q-55 -23 -92 -23q-8 0 -22.5 4t-18.5 4l-53 -26l-49 4l-29 -10l-14 4l-37 -21l-31 10q-55 0 -88 -2l8 2l-36 -12h-7l-14 -12l-29 8l-16 -14l-45 18l-27 -16q-49 14 -57 14q-23 0 -55 -14l-92 -8l-9 4l-34 -6l-3 -9l21 -102l-8 -10l8 -21l-2 -26q10 -31 14 -62 l25 -24l-4 -13l41 -51q63 -45 96 -45h4q4 0 10 2h8q8 0 23 -6l18 2q27 6 76 14l23 13l4 8l14 2l17 10l10 -6l33 10l26 17l10 14l35 27l27 4l49 36q51 8 74 82l6 -2l2 6l27 3l38 32l15 2q6 2 14 2q39 0 47 -75l-90 -107l-22 -6l-9 -12l-38 -41l-56 -33l-45 -43l-14 2l-17 -16 l-92 -35l-37 -41l-26 10l-10 -18l-19 6l-10 -10l-68 12l-69 -29l-70 23l-88 41q-113 53 -174 295l2 22l-18 47l18 21l-12 57l-2 18l-35 39v25q0 59 33 82q6 16 22 31l-4 6v57l-6 29l26 65l7 33l-21 -2h-8q-29 0 -49.5 19.5t-20.5 46.5zM454 1325l11 33q16 35 49 49l8 8 q8 8 27 23l32 -13l17 6l12 -12q18 0 33 -20l28 -15l29 -59l-12 -8l6 -23l-12 -6v-14l-29 -13l-25 -28l-34 -2l-19 -4l4 2q-18 -6 -30 -7q-20 0 -31 19q-4 0 -15 10l-14 8q4 4 4 6v5h-8l-8 4l-12 16l6 12zM782 1335l12 12l-4 11l25 24v4q4 4 12 13l21 12q10 16 34 16 q14 0 25 -4l10 -6h37l25 -29l26 -12v-14l15 -8l-7 -23l11 -8l-27 -58l-14 -4l-2 -8l-17 -8q-10 -14 -16 -14h-4l-29 -15l-8 9l-37 -13q-8 18 -42 37t-38 41z" />
<glyph unicode="&#xcc;" horiz-adv-x="571" d="M31 1478l14 17l19 31l32 10l29 28l45 -20l29 -8l22 -31l41 -43l21 -37l22 -16l13 -25l26 -10l15 -20l28 -13l8 -10q16 -8 31 -25l6 -4q27 -12 33 -26l23 -45l-33 -47l-70 18l-14 10q-6 6 -17 15q-35 4 -43 20q-4 0 -19 3t-28 3l-18 25q-14 10 -21 22q-14 4 -36 25 q-33 12 -48 37l-20 20q-20 4 -43 37l-2 6l-41 10zM160 897h26l25 61l4 -4l12 33l-10 -12v55h35l6 19l39 14q51 -4 80 -16q31 -29 31 -68v-10l-7 -2l-12 -78l2 -45l8 -6l-20 -47l4 -35l-18 -39q-8 -27 -15 -43q6 -12 6 -27q0 -16 -8 -31l19 -69h-25l-2 -4l14 -29l-14 -55h-6 l-10 -41q10 0 14 2l-6 -41l14 -37l-14 -29l2 -63l-6 -27q18 -20 18 -39q0 -12 -9 -26.5t-9 -18.5l18 -13q19 -13 35 -36l-25 -20l31 -17q-8 -82 -59 -82t-68 45l-10 15q-33 45 -33 63l-41 43l19 21l-13 16l4 43l-4 14q-6 20 -6 33q0 12 6 27l-4 16l-2 66l6 8l-4 117l17 98 l-9 102l7 11l-11 6l13 41v14l-15 2l10 45q-25 29 -30 80z" />
<glyph unicode="&#xcd;" horiz-adv-x="571" d="M160 897h26l25 61l4 -4l12 33l-10 -12v55h35l6 19l39 14q51 -4 80 -16q31 -29 31 -68v-10l-7 -2l-12 -78l2 -45l8 -6l-20 -47l4 -35l-18 -39q-8 -27 -15 -43q6 -12 6 -27q0 -16 -8 -31l19 -69h-25l-2 -4l14 -29l-14 -55h-6l-10 -41q10 0 14 2l-6 -41l14 -37l-14 -29 l2 -63l-6 -27q18 -20 18 -39q0 -12 -9 -26.5t-9 -18.5l18 -13q19 -13 35 -36l-25 -20l31 -17q-8 -82 -59 -82t-68 45l-10 15q-33 45 -33 63l-41 43l19 21l-13 16l4 43l-4 14q-6 20 -6 33q0 12 6 27l-4 16l-2 66l6 8l-4 117l17 98l-9 102l7 11l-11 6l13 41v14l-15 2l10 45 q-25 29 -30 80zM178 1214l29 56l10 34l47 21l29 43l14 2l11 14v21l26 26l23 -14q25 29 33 45q37 20 38 31q6 27 39 41l31 28l43 5l19 -5q67 -14 73 -57l-10 -24l-10 -50h-8q-47 0 -68 -43l-18 13l-68 -56h-6l-17 -18l5 -12l-37 -13v-12l-31 -10l-12 -17l-9 -24l-10 -4v-13 l-37 -12l-53 -45z" />
<glyph unicode="&#xce;" horiz-adv-x="571" d="M-20 1214q0 51 43 70l4 12h6v6l10 2l17 9q23 37 73 77l4 11l13 4l4 6l24 20q37 16 37 21q-2 2 -10 2q0 20 35 33q8 6 14 28q8 6 31 47l18 -4q18 14 45 15h9l36 -4l25 -45l35 -41l4 -9l20 -12l7 -24l20 -17q2 -12 16 -29q16 -4 23 -18l41 -33v-22l16 -8l15 -15l30 -10 l54 -53l-39 -33l-41 -14l-70 10q-45 23 -78 65q-35 6 -47 35l-12 8l-27 27l-33 18v19l-24 24l2 7l-6 10l-10 -21l-17 -4v-6l-8 -4v-6l-41 -31v-16l-33 -10l-8 -15l-10 -6l-6 -6l-29 -16l6 2q-10 -10 -20 -17l-13 -4l-22 -29l-21 -14l-37 -43zM160 897h26l25 61l4 -4l12 33 l-10 -12v55h35l6 19l39 14q51 -4 80 -16q31 -29 31 -68v-10l-7 -2l-12 -78l2 -45l8 -6l-20 -47l4 -35l-18 -39q-8 -27 -15 -43q6 -12 6 -27q0 -16 -8 -31l19 -69h-25l-2 -4l14 -29l-14 -55h-6l-10 -41q10 0 14 2l-6 -41l14 -37l-14 -29l2 -63l-6 -27q18 -20 18 -39 q0 -12 -9 -26.5t-9 -18.5l18 -13q19 -13 35 -36l-25 -20l31 -17q-8 -82 -59 -82t-68 45l-10 15q-33 45 -33 63l-41 43l19 21l-13 16l4 43l-4 14q-6 20 -6 33q0 12 6 27l-4 16l-2 66l6 8l-4 117l17 98l-9 102l7 11l-11 6l13 41v14l-15 2l10 45q-25 29 -30 80z" />
<glyph unicode="&#xcf;" horiz-adv-x="571" d="M49 1325l11 33q16 35 49 49l8 8q8 8 27 23l32 -13l17 6l12 -12q18 0 33 -20l28 -15l29 -59l-12 -8l6 -23l-12 -6v-14l-29 -13l-25 -28l-34 -2l-19 -4l4 2q-18 -6 -30 -7q-20 0 -31 19q-4 0 -15 10l-14 8q4 4 4 6v5h-8l-8 4l-12 16l6 12zM160 897h26l25 61l4 -4l12 33 l-10 -12v55h35l6 19l39 14q51 -4 80 -16q31 -29 31 -68v-10l-7 -2l-12 -78l2 -45l8 -6l-20 -47l4 -35l-18 -39q-8 -27 -15 -43q6 -12 6 -27q0 -16 -8 -31l19 -69h-25l-2 -4l14 -29l-14 -55h-6l-10 -41q10 0 14 2l-6 -41l14 -37l-14 -29l2 -63l-6 -27q18 -20 18 -39 q0 -12 -9 -26.5t-9 -18.5l18 -13q19 -13 35 -36l-25 -20l31 -17q-8 -82 -59 -82t-68 45l-10 15q-33 45 -33 63l-41 43l19 21l-13 16l4 43l-4 14q-6 20 -6 33q0 12 6 27l-4 16l-2 66l6 8l-4 117l17 98l-9 102l7 11l-11 6l13 41v14l-15 2l10 45q-25 29 -30 80zM377 1335l12 12 l-4 11l25 24v4q4 4 12 13l21 12q10 16 34 16q14 0 25 -4l10 -6h37l25 -29l26 -12v-14l15 -8l-7 -23l11 -8l-27 -58l-14 -4l-2 -8l-17 -8q-10 -14 -16 -14h-4l-29 -15l-8 9l-37 -13q-8 18 -42 37t-38 41z" />
<glyph unicode="&#xd0;" horiz-adv-x="1304" d="M-4 979q43 37 92 43q61 16 109 16q8 0 23.5 -7t25.5 -7q27 0 65 12l15 -12l16 -6l27 6l80 -18l26 -17l45 -4l35 -20l12 -2l35 -23l21 -2l22 -10h8q33 0 58 -19q49 -8 90 -53q16 -2 40.5 -17.5t39.5 -15.5h2l57 -41l53 -45l-4 -8l47 4l19 -14l8 -31q45 -37 106 -110 q2 -8 2 -15l33 -18v-49l-2 -2q0 -2 21 -19q0 -16 2 -20l4 -4q16 -16 18 -22.5t2 -20.5v-11l-10 -20l-4 -31l-41 -55l-14 -31l-43 -18l-15 -19l-55 -16l-35 -21h-20l-11 -18l-45 -6q-8 4 -22 8q-29 -33 -55 -33h-7q-8 8 -10 8q-10 0 -26 -14l-35 4l-13 -6l-38 4l10 -6 q-49 -12 -70 -12q-8 0 -12 2q-59 -18 -94 -19q-4 0 -11 2h-10l-33 -8l-26 10l-15 -6l-34 -24l-27 6l-20 8l-9 -2v-14l-26 -33l-13 -33l-59 -74l-29 25h-43l13 72l-2 24l-13 10q-10 -4 -30 -16h-54l-39 27l-14 47l27 26q31 31 94 48v4q-4 12 -4 18q0 16 8 31l-6 94l8 25v43 l10 22l-16 29q-16 -6 -33 -17l-47 19l-84 -17l-29 41l19 88l41 -10l51 21l107 4q-10 33 -15 63l6 47v31l-18 45v64l-23 28l-8 2l-41 -16l-74 -6q-37 0 -53 69zM358 340l17 -29l-4 -41l12 -24l-12 -29l2 -8l18 2l70 10q25 8 53 8q29 0 51 -8q39 0 90 29q98 6 76 6 q8 0 18.5 -2t14.5 -2q20 0 29 10l32 8q31 20 56 21q12 0 26 -6q12 6 25 6l16 18l37 4l12 6l31 21h10l56 39v16l-7 39l-63 80h-18l-25 55q-45 20 -59 33l-7 25l-8 8l-63 18l-17 33l-141 80h-10q-45 0 -84 27l12 6l-41 8h-8l-25 6l7 -4q-29 0 -50 10v6l-24 17h-25 q-25 18 -51 18h-4l-14 -31l-7 2q12 -33 21 -49l-10 -16q16 -39 16 -55q0 2 -6 -29l18 -53l-18 -6l2 -13v-20l37 4l16 -10q6 0 31 -4l10 22l35 -16l23 10l59 -16l43 6l43 -41l-10 -76l-49 -23l-54 17l-43 -8l-45 6l-35 -8l9 6q-33 -12 -78 -13l-8 -22l6 -45z" />
<glyph unicode="&#xd1;" horiz-adv-x="1599" d="M195 373l16 24l10 35l-10 57l16 60l-12 39l16 96l-4 70l9 59l-9 18l4 119q-4 20 -4 29q0 14 6 27q6 33 50 34l18 -4l16 21q47 -25 66 -70h18l7 -63l26 -19l2 -24l31 -19l16 -57l11 -10l57 -39q20 -10 24 -37l5 -8l49 -31l55 -55l147 -115q43 -8 70 -51l62 -19l51 -41 l24 -6l62 -28l59 -19q33 -31 62 -43l6 31l20 41l-8 8l10 113l19 34v7l-25 32l25 84l-8 70l18 123l-27 26l27 80l-16 19l20 26l-6 23l98 47l10 -23l62 -10q-16 -39 -16 -59q0 -10 2 -17q16 -23 18 -40l-12 -33l28 -47l-6 -11q-16 -98 -35 -118l-4 -13v-96l-20 -41l6 -24 l-21 -82l9 -23l-15 -72l2 -34l-14 -45l18 -54l-34 -47l8 -26l-17 -29l7 -6l6 -94l26 -48l-34 -26l-21 -33l-76 21l-12 92l-12 4q-8 72 -8 147l-7 10l-34 7l-11 -13l-30 35l-29 -8l-45 33q-49 4 -72 8l-18 16l-8 -2l-148 88l-12 15l-45 16l-27 35l-22 10l-33 29l-96 39 l-62 73l-33 4l-20 29q-45 29 -80 68v-19l-16 -88l18 -59l-31 -100l7 -31q8 -14 8 -37q0 -27 -8 -45l18 -4l-25 -72v-45l-8 -43l15 -27l-27 -34q6 -8 6 -23q-12 -45 -43 -84h-37q-63 0 -65 88l22 70l-10 33l12 30q-2 10 -2 29q0 14 2 20l-14 19v14q0 10 2 25v22q0 20 -16 62z M495 1278q0 29 45 55l27 29l22 10q12 14 45 35l15 2q27 10 49 37l45 8l22 -4l9 2q23 -31 53 -39l24 -14l31 -41l37 -19l4 -10l62 10l8 33v27l20 36q14 25 54 25q29 0 60.5 -27.5t35.5 -64.5q-4 -25 -10 -31v-10q0 -12 -9 -23l-37 -26l-40 -8l-13 -15l-12 -16l-51 -14 l-62 -11l-84 31q-8 8 -8 10v2l-55 31l-2 29l-15 -6v24q-12 6 -30 6l-45 -28q-18 -12 -33 -33q-18 -29 -27 -37q-25 -25 -65 -25l-37 4q-33 37 -33 56z" />
<glyph unicode="&#xd2;" horiz-adv-x="1474" d="M88 332l27 82l-4 49l10 10v39l29 29v20l12 23v20l8 10l-10 23l33 22l38 82l84 121l21 10q6 10 18 27l21 16v33l31 6q31 25 67 37l10 13q18 8 107 20l55 8l66 -8l39 2h55l12 -2l6 -2h11l12 4l65 -2l-4 -12l31 -8q12 4 12 16q10 -18 45 -19l17 -16h61l137 -59l17 -45 l12 -19l37 -14l55 -90l33 -41q55 -129 55 -154v-22l-20 -43l-8 -68l-21 -18q-12 -82 -63 -105l-15 -6l-123 -86l-36 -20l-60 -66l-37 6l-22 -16l-41 -15l-103 -53q-12 4 -32 19q-14 -20 -45 -27h-9l-41 -33l-8 4h-39l-18 -14l-78 2l-102 -16h-13q-14 0 -34 -4l-58 8l-10 10 l-82 12l-35 17h-49v22l-39 41l-51 23l-23 63l-2 47l-12 15zM231 283l7 -15l6 -30l24 -27l4 -27l21 -20q57 -33 102 -35l86 23l19 -19h24l4 4l62 10l65 -10q16 16 39 17q47 29 80 28l43 25l33 2l27 20l63 2q8 2 18 2l5 7q14 20 43 26l24 58l17 -11l16 9l29 26l10 -4l35 25 l61 61l27 8l12 31l16 10l-4 19l17 30l-11 58l11 16l-15 35q2 4 2 12q0 6 -4 10l-37 25l-12 33l-16 6l-6 29l-52 47l-30 24l-13 -6q-47 43 -174 72q-16 0 -20 2l-10 -6l-37 10l-21 -10q-31 10 -37 10q-2 0 -15 -4t-24 -4q-10 0 -16 2q-14 -27 -67 -47l-27 4l-29 -15l-37 5 q-37 -29 -86 -60l-10 -14l-10 -45l-47 -21l-8 -10q-12 -25 -33 -45v-35l-29 -12l-6 -4l-18 -62l-29 -16q-6 -104 -35 -145q-16 -23 -18 -62zM479 1478l14 17l19 31l32 10l29 28l45 -20l29 -8l22 -31l41 -43l21 -37l22 -16l13 -25l26 -10l15 -20l28 -13l8 -10q16 -8 31 -25 l6 -4q27 -12 33 -26l23 -45l-33 -47l-70 18l-14 10q-6 6 -17 15q-35 4 -43 20q-4 0 -19 3t-28 3l-18 25q-14 10 -21 22q-14 4 -36 25q-33 12 -48 37l-20 20q-20 4 -43 37l-2 6l-41 10z" />
<glyph unicode="&#xd3;" horiz-adv-x="1474" d="M88 332l27 82l-4 49l10 10v39l29 29v20l12 23v20l8 10l-10 23l33 22l38 82l84 121l21 10q6 10 18 27l21 16v33l31 6q31 25 67 37l10 13q18 8 107 20l55 8l66 -8l39 2h55l12 -2l6 -2h11l12 4l65 -2l-4 -12l31 -8q12 4 12 16q10 -18 45 -19l17 -16h61l137 -59l17 -45 l12 -19l37 -14l55 -90l33 -41q55 -129 55 -154v-22l-20 -43l-8 -68l-21 -18q-12 -82 -63 -105l-15 -6l-123 -86l-36 -20l-60 -66l-37 6l-22 -16l-41 -15l-103 -53q-12 4 -32 19q-14 -20 -45 -27h-9l-41 -33l-8 4h-39l-18 -14l-78 2l-102 -16h-13q-14 0 -34 -4l-58 8l-10 10 l-82 12l-35 17h-49v22l-39 41l-51 23l-23 63l-2 47l-12 15zM231 283l7 -15l6 -30l24 -27l4 -27l21 -20q57 -33 102 -35l86 23l19 -19h24l4 4l62 10l65 -10q16 16 39 17q47 29 80 28l43 25l33 2l27 20l63 2q8 2 18 2l5 7q14 20 43 26l24 58l17 -11l16 9l29 26l10 -4l35 25 l61 61l27 8l12 31l16 10l-4 19l17 30l-11 58l11 16l-15 35q2 4 2 12q0 6 -4 10l-37 25l-12 33l-16 6l-6 29l-52 47l-30 24l-13 -6q-47 43 -174 72q-16 0 -20 2l-10 -6l-37 10l-21 -10q-31 10 -37 10q-2 0 -15 -4t-24 -4q-10 0 -16 2q-14 -27 -67 -47l-27 4l-29 -15l-37 5 q-37 -29 -86 -60l-10 -14l-10 -45l-47 -21l-8 -10q-12 -25 -33 -45v-35l-29 -12l-6 -4l-18 -62l-29 -16q-6 -104 -35 -145q-16 -23 -18 -62zM626 1214l29 56l10 34l47 21l29 43l14 2l11 14v21l26 26l23 -14q25 29 33 45q37 20 38 31q6 27 39 41l31 28l43 5l19 -5 q67 -14 73 -57l-10 -24l-10 -50h-8q-47 0 -68 -43l-18 13l-68 -56h-6l-17 -18l5 -12l-37 -13v-12l-31 -10l-12 -17l-9 -24l-10 -4v-13l-37 -12l-53 -45z" />
<glyph unicode="&#xd4;" horiz-adv-x="1474" d="M88 332l27 82l-4 49l10 10v39l29 29v20l12 23v20l8 10l-10 23l33 22l38 82l84 121l21 10q6 10 18 27l21 16v33l31 6q31 25 67 37l10 13q18 8 107 20l55 8l66 -8l39 2h55l12 -2l6 -2h11l12 4l65 -2l-4 -12l31 -8q12 4 12 16q10 -18 45 -19l17 -16h61l137 -59l17 -45 l12 -19l37 -14l55 -90l33 -41q55 -129 55 -154v-22l-20 -43l-8 -68l-21 -18q-12 -82 -63 -105l-15 -6l-123 -86l-36 -20l-60 -66l-37 6l-22 -16l-41 -15l-103 -53q-12 4 -32 19q-14 -20 -45 -27h-9l-41 -33l-8 4h-39l-18 -14l-78 2l-102 -16h-13q-14 0 -34 -4l-58 8l-10 10 l-82 12l-35 17h-49v22l-39 41l-51 23l-23 63l-2 47l-12 15zM231 283l7 -15l6 -30l24 -27l4 -27l21 -20q57 -33 102 -35l86 23l19 -19h24l4 4l62 10l65 -10q16 16 39 17q47 29 80 28l43 25l33 2l27 20l63 2q8 2 18 2l5 7q14 20 43 26l24 58l17 -11l16 9l29 26l10 -4l35 25 l61 61l27 8l12 31l16 10l-4 19l17 30l-11 58l11 16l-15 35q2 4 2 12q0 6 -4 10l-37 25l-12 33l-16 6l-6 29l-52 47l-30 24l-13 -6q-47 43 -174 72q-16 0 -20 2l-10 -6l-37 10l-21 -10q-31 10 -37 10q-2 0 -15 -4t-24 -4q-10 0 -16 2q-14 -27 -67 -47l-27 4l-29 -15l-37 5 q-37 -29 -86 -60l-10 -14l-10 -45l-47 -21l-8 -10q-12 -25 -33 -45v-35l-29 -12l-6 -4l-18 -62l-29 -16q-6 -104 -35 -145q-16 -23 -18 -62zM428 1214q0 51 43 70l4 12h6v6l10 2l17 9q23 37 73 77l4 11l13 4l4 6l24 20q37 16 37 21q-2 2 -10 2q0 20 35 33q8 6 14 28 q8 6 31 47l18 -4q18 14 45 15h9l36 -4l25 -45l35 -41l4 -9l20 -12l7 -24l20 -17q2 -12 16 -29q16 -4 23 -18l41 -33v-22l16 -8l15 -15l30 -10l54 -53l-39 -33l-41 -14l-70 10q-45 23 -78 65q-35 6 -47 35l-12 8l-27 27l-33 18v19l-24 24l2 7l-6 10l-10 -21l-17 -4v-6l-8 -4 v-6l-41 -31v-16l-33 -10l-8 -15l-10 -6l-6 -6l-29 -16l6 2q-10 -10 -20 -17l-13 -4l-22 -29l-21 -14l-37 -43z" />
<glyph unicode="&#xd5;" horiz-adv-x="1474" d="M88 332l27 82l-4 49l10 10v39l29 29v20l12 23v20l8 10l-10 23l33 22l38 82l84 121l21 10q6 10 18 27l21 16v33l31 6q31 25 67 37l10 13q18 8 107 20l55 8l66 -8l39 2h55l12 -2l6 -2h11l12 4l65 -2l-4 -12l31 -8q12 4 12 16q10 -18 45 -19l17 -16h61l137 -59l17 -45 l12 -19l37 -14l55 -90l33 -41q55 -129 55 -154v-22l-20 -43l-8 -68l-21 -18q-12 -82 -63 -105l-15 -6l-123 -86l-36 -20l-60 -66l-37 6l-22 -16l-41 -15l-103 -53q-12 4 -32 19q-14 -20 -45 -27h-9l-41 -33l-8 4h-39l-18 -14l-78 2l-102 -16h-13q-14 0 -34 -4l-58 8l-10 10 l-82 12l-35 17h-49v22l-39 41l-51 23l-23 63l-2 47l-12 15zM231 283l7 -15l6 -30l24 -27l4 -27l21 -20q57 -33 102 -35l86 23l19 -19h24l4 4l62 10l65 -10q16 16 39 17q47 29 80 28l43 25l33 2l27 20l63 2q8 2 18 2l5 7q14 20 43 26l24 58l17 -11l16 9l29 26l10 -4l35 25 l61 61l27 8l12 31l16 10l-4 19l17 30l-11 58l11 16l-15 35q2 4 2 12q0 6 -4 10l-37 25l-12 33l-16 6l-6 29l-52 47l-30 24l-13 -6q-47 43 -174 72q-16 0 -20 2l-10 -6l-37 10l-21 -10q-31 10 -37 10q-2 0 -15 -4t-24 -4q-10 0 -16 2q-14 -27 -67 -47l-27 4l-29 -15l-37 5 q-37 -29 -86 -60l-10 -14l-10 -45l-47 -21l-8 -10q-12 -25 -33 -45v-35l-29 -12l-6 -4l-18 -62l-29 -16q-6 -104 -35 -145q-16 -23 -18 -62zM446 1278q0 29 45 55l27 29l22 10q12 14 45 35l15 2q27 10 49 37l45 8l22 -4l9 2q23 -31 53 -39l24 -14l31 -41l37 -19l4 -10l62 10 l8 33v27l20 36q14 25 54 25q29 0 60.5 -27.5t35.5 -64.5q-4 -25 -10 -31v-10q0 -12 -9 -23l-37 -26l-40 -8l-13 -15l-12 -16l-51 -14l-62 -11l-84 31q-8 8 -8 10v2l-55 31l-2 29l-15 -6v24q-12 6 -30 6l-45 -28q-18 -12 -33 -33q-18 -29 -27 -37q-25 -25 -65 -25l-37 4 q-33 37 -33 56z" />
<glyph unicode="&#xd6;" horiz-adv-x="1474" d="M88 332l27 82l-4 49l10 10v39l29 29v20l12 23v20l8 10l-10 23l33 22l38 82l84 121l21 10q6 10 18 27l21 16v33l31 6q31 25 67 37l10 13q18 8 107 20l55 8l66 -8l39 2h55l12 -2l6 -2h11l12 4l65 -2l-4 -12l31 -8q12 4 12 16q10 -18 45 -19l17 -16h61l137 -59l17 -45 l12 -19l37 -14l55 -90l33 -41q55 -129 55 -154v-22l-20 -43l-8 -68l-21 -18q-12 -82 -63 -105l-15 -6l-123 -86l-36 -20l-60 -66l-37 6l-22 -16l-41 -15l-103 -53q-12 4 -32 19q-14 -20 -45 -27h-9l-41 -33l-8 4h-39l-18 -14l-78 2l-102 -16h-13q-14 0 -34 -4l-58 8l-10 10 l-82 12l-35 17h-49v22l-39 41l-51 23l-23 63l-2 47l-12 15zM231 283l7 -15l6 -30l24 -27l4 -27l21 -20q57 -33 102 -35l86 23l19 -19h24l4 4l62 10l65 -10q16 16 39 17q47 29 80 28l43 25l33 2l27 20l63 2q8 2 18 2l5 7q14 20 43 26l24 58l17 -11l16 9l29 26l10 -4l35 25 l61 61l27 8l12 31l16 10l-4 19l17 30l-11 58l11 16l-15 35q2 4 2 12q0 6 -4 10l-37 25l-12 33l-16 6l-6 29l-52 47l-30 24l-13 -6q-47 43 -174 72q-16 0 -20 2l-10 -6l-37 10l-21 -10q-31 10 -37 10q-2 0 -15 -4t-24 -4q-10 0 -16 2q-14 -27 -67 -47l-27 4l-29 -15l-37 5 q-37 -29 -86 -60l-10 -14l-10 -45l-47 -21l-8 -10q-12 -25 -33 -45v-35l-29 -12l-6 -4l-18 -62l-29 -16q-6 -104 -35 -145q-16 -23 -18 -62zM497 1325l11 33q16 35 49 49l8 8q8 8 27 23l32 -13l17 6l12 -12q18 0 33 -20l28 -15l29 -59l-12 -8l6 -23l-12 -6v-14l-29 -13 l-25 -28l-34 -2l-19 -4l4 2q-18 -6 -30 -7q-20 0 -31 19q-4 0 -15 10l-14 8q4 4 4 6v5h-8l-8 4l-12 16l6 12zM825 1335l12 12l-4 11l25 24v4q4 4 12 13l21 12q10 16 34 16q14 0 25 -4l10 -6h37l25 -29l26 -12v-14l15 -8l-7 -23l11 -8l-27 -58l-14 -4l-2 -8l-17 -8 q-10 -14 -16 -14h-4l-29 -15l-8 9l-37 -13q-8 18 -42 37t-38 41z" />
<glyph unicode="&#xd7;" d="M293 141l469 469l-469 469l98 99l469 -469l469 469l98 -99l-469 -469l469 -469l-98 -96l-469 467l-469 -467z" />
<glyph unicode="&#xd8;" horiz-adv-x="1474" d="M100 367l19 65l-2 12l28 29l5 53l-15 52l25 16q2 29 10 61l33 37q4 23 18 31l-18 31l28 28l13 43h43q-12 16 -13 45l31 21v37l45 6l10 24q23 27 80 46q12 47 66 51q31 2 46 10t28 35q45 10 155 35q12 -4 19 -5q16 0 30 13l41 -13l58 15l39 -8q18 41 47 88q0 20 16 41 l4 22l25 15l4 8l8 18l-6 43l35 17l4 6v4q0 84 55 84h12l66 -15l74 -61l-21 -45v-37l-33 -16l-2 -4q-16 -45 -43 -62v-6q0 -39 -28 -68l-6 -24l-15 -6l-8 -13q-8 -8 -29 -39h21l43 -26l49 -60l57 -47l25 -55q74 -74 88 -158l2 -75l16 -37l-2 -27l9 -24l-17 -33v-49l-41 -99 l-26 -90l-37 -37l-33 -55q-45 -35 -83 -85t-50 -54l-66 -47l-73 -58q-45 -29 -66 -28h-10l-21 -19l-53 -16q-16 0 -22 4q-16 -10 -56 -21l-4 -12l-80 -6l-20 8l-8 -8q-2 0 -9 -2h-7h-9q-6 2 -10 2q2 0 4 -2q0 -2 -29 -8l-31 14h-34l-29 12l-12 -2l-27 -24l-33 -70l-10 -47 l-47 -84l-55 -113l-74 -120q-76 0 -84 61l33 68v47l45 39l12 49l8 4l6 47l45 57v33l21 31l6 33l14 2l7 30l-7 4l-6 7l-30 24l-54 37l-63 59l-19 35l-18 47l-6 39l-17 68v88zM248 324l10 -129l4 -5l14 -55l25 -12q10 -37 24.5 -48.5t53.5 -17.5l10 -6l8 55l29 25l6 37l25 41 v27l49 53l8 41l29 35l6 34l2 -10q0 45 24 82l11 2l2 43l24 4q2 25 26 51.5t24 44.5q0 2 -5 19l41 31l17 67l57 90l10 76l39 16l15 62l8 10q-23 0 -39 6l-8 -2h-17l-18 -16q-12 0 -19 14l-32 -26l-6 2l-46 -50l-61 -30l-29 -11l-20 7l-37 -35v12l-12 -6l-6 -23l-35 -22 l-15 -45l-51 -29l-35 -76l-26 -39l-15 -24l-28 -100l-15 -43l5 -56l-19 -30l-4 -33zM506 20h6l35 9q25 -8 45 -9q8 0 20 5q41 4 58 4h8q4 -2 6 -2q6 0 43 24q37 8 57 8h13l4 2q31 10 61 25l4 -4l-2 18l19 6l12 21l45 14l14 13q27 2 33 32l19 9q27 33 61 53l27 57l26 -8 q6 6 6 16q6 35 33 54v12l17 6q0 41 26 61v31l23 58l30 104l-28 88l-2 18l-8 5l-33 69l-74 92l-78 56h-12l-23 -45l-53 -88l-24 -33l-23 -53l-49 -84l-6 -5l-21 -47l-41 -88l-24 -24l-13 -72l-26 -22l-21 -48l-16 -10q-4 -8 -16 -24l14 -19l-31 -24v-21l-41 -59l-18 -41 l-25 -15l-12 -36l-37 -60z" />
<glyph unicode="&#xd9;" horiz-adv-x="1509" d="M172 520q4 33 23 49l-7 9l9 43l-15 26v43l15 21l-7 30l15 58l-10 71l8 29l-8 39l20 23q12 23 39 22h16l49 -14q20 -8 31 -35q16 -10 33 -53l-21 -29q-27 -100 -26 -129v-6q4 -29 22 -45q-29 -121 -28 -197v-14l18 -25l-8 -45l-4 -61l12 -37l-31 -27q33 -76 33 -106h56 q4 8 12 18l31 2l24 29q20 18 41 29q12 16 37 22l53 33l-2 20l47 9l35 36l2 4l4 3l15 16l16 -8l20 16l17 41l16 -2q20 16 45 31l6 8l13 12v33l34 10l23 27l23 10l4 29h14q8 10 27 18v21l26 8l35 65l16 50l7 47l22 34l4 25l4 53l15 37l51 43l59 -31l15 -16q33 -20 59 -47 l-19 -33l3 -26q-6 -39 -37 -54l-15 -26v-33l-14 -33l2 -55q-8 -12 -18 -12q-2 0 -7 2q31 -18 31 -60q0 -14 -2 -20l-16 -2l6 -21l-6 -53l14 -33l-6 -45q2 -8 2 -26q16 -20 16 -41v-9q-2 -4 -2 -8l9 -24q14 -66 49 -144l20 -30l6 -13l21 -20l47 -45l33 -6l12 20l33 -12l8 4 q25 18 55 18q14 0 80 -10l14 -51l-28 -53l-58 -17q-37 -20 -65 -24l-25 -17q-4 0 -14 -2h-16q-78 0 -121 51l-13 15l-14 2q-41 6 -63 35q-14 25 -31 51l-10 14l-15 51l-24 35l-17 53l-18 37l-33 185v63l-12 -12l-31 -21q-2 -35 -31 -34l-20 -23l-29 -16l-20 -21 q-8 -27 -37 -39l-25 -26l-32 -15l-25 -30l-166 -117l-72 -43l-45 -33l-28 -8l-51 -41l-41 -19l-68 2l-39 43l-29 19v37l-16 14l-20 125l-7 16l-8 88l12 39l-6 25l6 31l-8 90zM434 1478l14 17l19 31l32 10l29 28l45 -20l29 -8l22 -31l41 -43l21 -37l22 -16l13 -25l26 -10 l15 -20l28 -13l8 -10q16 -8 31 -25l6 -4q27 -12 33 -26l23 -45l-33 -47l-70 18l-14 10q-6 6 -17 15q-35 4 -43 20q-4 0 -19 3t-28 3l-18 25q-14 10 -21 22q-14 4 -36 25q-33 12 -48 37l-20 20q-20 4 -43 37l-2 6l-41 10z" />
<glyph unicode="&#xda;" horiz-adv-x="1509" d="M172 520q4 33 23 49l-7 9l9 43l-15 26v43l15 21l-7 30l15 58l-10 71l8 29l-8 39l20 23q12 23 39 22h16l49 -14q20 -8 31 -35q16 -10 33 -53l-21 -29q-27 -100 -26 -129v-6q4 -29 22 -45q-29 -121 -28 -197v-14l18 -25l-8 -45l-4 -61l12 -37l-31 -27q33 -76 33 -106h56 q4 8 12 18l31 2l24 29q20 18 41 29q12 16 37 22l53 33l-2 20l47 9l35 36l2 4l4 3l15 16l16 -8l20 16l17 41l16 -2q20 16 45 31l6 8l13 12v33l34 10l23 27l23 10l4 29h14q8 10 27 18v21l26 8l35 65l16 50l7 47l22 34l4 25l4 53l15 37l51 43l59 -31l15 -16q33 -20 59 -47 l-19 -33l3 -26q-6 -39 -37 -54l-15 -26v-33l-14 -33l2 -55q-8 -12 -18 -12q-2 0 -7 2q31 -18 31 -60q0 -14 -2 -20l-16 -2l6 -21l-6 -53l14 -33l-6 -45q2 -8 2 -26q16 -20 16 -41v-9q-2 -4 -2 -8l9 -24q14 -66 49 -144l20 -30l6 -13l21 -20l47 -45l33 -6l12 20l33 -12l8 4 q25 18 55 18q14 0 80 -10l14 -51l-28 -53l-58 -17q-37 -20 -65 -24l-25 -17q-4 0 -14 -2h-16q-78 0 -121 51l-13 15l-14 2q-41 6 -63 35q-14 25 -31 51l-10 14l-15 51l-24 35l-17 53l-18 37l-33 185v63l-12 -12l-31 -21q-2 -35 -31 -34l-20 -23l-29 -16l-20 -21 q-8 -27 -37 -39l-25 -26l-32 -15l-25 -30l-166 -117l-72 -43l-45 -33l-28 -8l-51 -41l-41 -19l-68 2l-39 43l-29 19v37l-16 14l-20 125l-7 16l-8 88l12 39l-6 25l6 31l-8 90zM581 1214l29 56l10 34l47 21l29 43l14 2l11 14v21l26 26l23 -14q25 29 33 45q37 20 38 31 q6 27 39 41l31 28l43 5l19 -5q67 -14 73 -57l-10 -24l-10 -50h-8q-47 0 -68 -43l-18 13l-68 -56h-6l-17 -18l5 -12l-37 -13v-12l-31 -10l-12 -17l-9 -24l-10 -4v-13l-37 -12l-53 -45z" />
<glyph unicode="&#xdb;" horiz-adv-x="1509" d="M172 520q4 33 23 49l-7 9l9 43l-15 26v43l15 21l-7 30l15 58l-10 71l8 29l-8 39l20 23q12 23 39 22h16l49 -14q20 -8 31 -35q16 -10 33 -53l-21 -29q-27 -100 -26 -129v-6q4 -29 22 -45q-29 -121 -28 -197v-14l18 -25l-8 -45l-4 -61l12 -37l-31 -27q33 -76 33 -106h56 q4 8 12 18l31 2l24 29q20 18 41 29q12 16 37 22l53 33l-2 20l47 9l35 36l2 4l4 3l15 16l16 -8l20 16l17 41l16 -2q20 16 45 31l6 8l13 12v33l34 10l23 27l23 10l4 29h14q8 10 27 18v21l26 8l35 65l16 50l7 47l22 34l4 25l4 53l15 37l51 43l59 -31l15 -16q33 -20 59 -47 l-19 -33l3 -26q-6 -39 -37 -54l-15 -26v-33l-14 -33l2 -55q-8 -12 -18 -12q-2 0 -7 2q31 -18 31 -60q0 -14 -2 -20l-16 -2l6 -21l-6 -53l14 -33l-6 -45q2 -8 2 -26q16 -20 16 -41v-9q-2 -4 -2 -8l9 -24q14 -66 49 -144l20 -30l6 -13l21 -20l47 -45l33 -6l12 20l33 -12l8 4 q25 18 55 18q14 0 80 -10l14 -51l-28 -53l-58 -17q-37 -20 -65 -24l-25 -17q-4 0 -14 -2h-16q-78 0 -121 51l-13 15l-14 2q-41 6 -63 35q-14 25 -31 51l-10 14l-15 51l-24 35l-17 53l-18 37l-33 185v63l-12 -12l-31 -21q-2 -35 -31 -34l-20 -23l-29 -16l-20 -21 q-8 -27 -37 -39l-25 -26l-32 -15l-25 -30l-166 -117l-72 -43l-45 -33l-28 -8l-51 -41l-41 -19l-68 2l-39 43l-29 19v37l-16 14l-20 125l-7 16l-8 88l12 39l-6 25l6 31l-8 90zM383 1214q0 51 43 70l4 12h6v6l10 2l17 9q23 37 73 77l4 11l13 4l4 6l24 20q37 16 37 21 q-2 2 -10 2q0 20 35 33q8 6 14 28q8 6 31 47l18 -4q18 14 45 15h9l36 -4l25 -45l35 -41l4 -9l20 -12l7 -24l20 -17q2 -12 16 -29q16 -4 23 -18l41 -33v-22l16 -8l15 -15l30 -10l54 -53l-39 -33l-41 -14l-70 10q-45 23 -78 65q-35 6 -47 35l-12 8l-27 27l-33 18v19l-24 24 l2 7l-6 10l-10 -21l-17 -4v-6l-8 -4v-6l-41 -31v-16l-33 -10l-8 -15l-10 -6l-6 -6l-29 -16l6 2q-10 -10 -20 -17l-13 -4l-22 -29l-21 -14l-37 -43z" />
<glyph unicode="&#xdc;" horiz-adv-x="1509" d="M172 520q4 33 23 49l-7 9l9 43l-15 26v43l15 21l-7 30l15 58l-10 71l8 29l-8 39l20 23q12 23 39 22h16l49 -14q20 -8 31 -35q16 -10 33 -53l-21 -29q-27 -100 -26 -129v-6q4 -29 22 -45q-29 -121 -28 -197v-14l18 -25l-8 -45l-4 -61l12 -37l-31 -27q33 -76 33 -106h56 q4 8 12 18l31 2l24 29q20 18 41 29q12 16 37 22l53 33l-2 20l47 9l35 36l2 4l4 3l15 16l16 -8l20 16l17 41l16 -2q20 16 45 31l6 8l13 12v33l34 10l23 27l23 10l4 29h14q8 10 27 18v21l26 8l35 65l16 50l7 47l22 34l4 25l4 53l15 37l51 43l59 -31l15 -16q33 -20 59 -47 l-19 -33l3 -26q-6 -39 -37 -54l-15 -26v-33l-14 -33l2 -55q-8 -12 -18 -12q-2 0 -7 2q31 -18 31 -60q0 -14 -2 -20l-16 -2l6 -21l-6 -53l14 -33l-6 -45q2 -8 2 -26q16 -20 16 -41v-9q-2 -4 -2 -8l9 -24q14 -66 49 -144l20 -30l6 -13l21 -20l47 -45l33 -6l12 20l33 -12l8 4 q25 18 55 18q14 0 80 -10l14 -51l-28 -53l-58 -17q-37 -20 -65 -24l-25 -17q-4 0 -14 -2h-16q-78 0 -121 51l-13 15l-14 2q-41 6 -63 35q-14 25 -31 51l-10 14l-15 51l-24 35l-17 53l-18 37l-33 185v63l-12 -12l-31 -21q-2 -35 -31 -34l-20 -23l-29 -16l-20 -21 q-8 -27 -37 -39l-25 -26l-32 -15l-25 -30l-166 -117l-72 -43l-45 -33l-28 -8l-51 -41l-41 -19l-68 2l-39 43l-29 19v37l-16 14l-20 125l-7 16l-8 88l12 39l-6 25l6 31l-8 90zM452 1325l11 33q16 35 49 49l8 8q8 8 27 23l32 -13l17 6l12 -12q18 0 33 -20l28 -15l29 -59 l-12 -8l6 -23l-12 -6v-14l-29 -13l-25 -28l-34 -2l-19 -4l4 2q-18 -6 -30 -7q-20 0 -31 19q-4 0 -15 10l-14 8q4 4 4 6v5h-8l-8 4l-12 16l6 12zM780 1335l12 12l-4 11l25 24v4q4 4 12 13l21 12q10 16 34 16q14 0 25 -4l10 -6h37l25 -29l26 -12v-14l15 -8l-7 -23l11 -8 l-27 -58l-14 -4l-2 -8l-17 -8q-10 -14 -16 -14h-4l-29 -15l-8 9l-37 -13q-8 18 -42 37t-38 41z" />
<glyph unicode="&#xdd;" horiz-adv-x="1394" d="M31 1038l10 54h25q14 12 45 12t86 -19l14 -32l33 -11l37 -57l53 -39l2 -18l43 -68l31 -22l112 -156l37 -47q74 -76 115 -123v6q0 25 24 51l-2 -10q14 33 35 53q6 29 29 45q4 14 39 45l18 9l6 8q18 53 74 53l4 -8l19 35q25 6 20 6q18 23 31 37l14 26q35 45 88 54v24l14 17 l21 16l12 43q6 -10 17 -10q18 0 32 49l62 26l33 33l57 -4l43 12l18 -43q7 -33 7 -53q0 -12 -23 -30.5t-25 -40.5q-10 -18 -28 -33q-6 -25 -41 -31l-37 -29l-27 -49h-20q-14 -20 -37 -39q-6 -2 -35 -16l-43 -47l-57 -41l-19 -6l-18 -33l-45 -27l-23 -22l-20 -51l-76 -84 l-24 -37l-11 -21l13 -20l-17 -37l10 -35l-16 -47l4 -29l14 -57q-31 -37 -30 -68q0 -14 5 -42.5t5 -41.5l-16 -90l4 -51l-8 -18l14 -74l-17 -25l15 -36l-12 -19l8 -16q6 -12 6 -27v-10l-14 -51l12 -56l-19 -39l19 -24v-14q0 -82 -23.5 -116t-85.5 -34l-18 98l-19 60l-2 39 l-26 16l18 41l-8 29l8 61l-12 66l6 51v14q-2 10 -2 17q0 6 2 14v12l-10 94l10 45l-6 50l12 81l-18 33l10 49l-2 39l-16 37q16 37 16 58q0 12 -4 18l-8 37l-13 35l-20 16l-12 18q-35 18 -93 91l-32 20l-29 53l-82 74l-16 29l-33 41l-62 49v20l-30 21q-8 51 -43 51 q-84 47 -86 143zM542 1214l29 56l10 34l47 21l29 43l14 2l11 14v21l26 26l23 -14q25 29 33 45q37 20 38 31q6 27 39 41l31 28l43 5l19 -5q67 -14 73 -57l-10 -24l-10 -50h-8q-47 0 -68 -43l-18 13l-68 -56h-6l-17 -18l5 -12l-37 -13v-12l-31 -10l-12 -17l-9 -24l-10 -4v-13 l-37 -12l-53 -45z" />
<glyph unicode="&#xde;" horiz-adv-x="1159" d="M-18 858l22 27q8 35 45 45q68 14 74 18h12q8 -2 12 -2l15 -2l-6 -6l43 10l4 -2q33 0 57 -8l8 20v7l27 65l4 2v6q0 61 72 62q104 0 104 -82q0 -37 -29 -74l-4 -16l70 -10q18 0 59 -15h4l50 -14l61 -4l6 -8h43l45 -31l45 -2l11 -17q43 0 71 -26l37 -2l21 -31l22 -14h35 l25 -37l77 -49v-29l50 -68l-31 -61l-37 -35v-26q-33 -10 -41 -13l-6 -4q-8 -25 -31 -26q-27 -27 -86 -44q-31 -31 -68 -36v-13h-65l-25 -14l-10 -2q-10 -10 -24 -16l-21 -15h-45l-27 -22l-88 -19q-20 -4 -47 -4l-43 -33q-20 14 -33 15q-2 0 -14 -4l-14 -9l-23 -6v-34l-12 2 v-43l8 -21v-37l4 -10q6 -16 6 -35q0 -61 -90 -61h-12q-8 2 -12 2l-84 8l24 100l-12 54v41l-45 12l-49 2l-29 16l-39 82l47 10l60 -10l43 12l-2 7l2 26l-10 27l12 33l-2 16v53l12 25l6 119l12 12l-4 78l7 49l4 63l-15 9v-11h-49l-37 -20l-43 -6l-53 -27l-37 49q-25 33 -24 82 zM358 307l7 -6l28 16h39q27 20 68 25l28 10q10 -8 19 -8q4 0 8 4l78 35l26 2l31 21h15l4 6l122 32l7 -14l16 10l4 17l27 18h12q6 -2 8 -2q12 25 21.5 35t15.5 10q4 -2 4 -6q14 14 29 16l2 9l12 10l4 16l-12 29l-14 18l-17 2l-39 33l-73 31q-45 29 -95 45l-49 -2l-39 18 l-47 -4l-28 19h-33l-29 16h-8q-6 -2 -10 -2q-25 0 -51 16l-35 9q-6 -12 -6 -19q0 -14 16 -39l-12 -43l-4 -49l-21 -23l6 -26l-14 -47l4 -39l-6 -35l6 -33l-16 -18q0 -6 4 -37l-6 -18l6 -27z" />
<glyph unicode="&#xdf;" horiz-adv-x="1253" d="M-176 748q14 37 49 55l6 12h6q18 0 49 26.5t64 26.5h10q8 -2 12 -2q35 18 80 37l19 -14l-2 10q8 2 20 12l47 11l72 10q6 0 14.5 -2t10.5 -2q6 0 8 8l2 49l22 166l-8 27q12 59 17 131l8 30v25l10 47q0 47 18 72l11 51l22 18l6 41l17 41l26 17q10 10 66 53l6 20 q23 16 39 17q23 0 115 -41l26 -49q0 -2 41 -60q29 -39 33 -71l-6 -31l-21 -43l19 -37l-17 -14l4 -6v-9q0 -8 -28 -75l-6 -15q-2 -6 -6 -16v-37l-13 -4q-8 -41 -57 -66q-2 -2 -8 -15t-11 -24l-12 -14l-4 -20l-25 -31l-14 -39l-26 -14l-21 -15l-33 -26l-20 -35l-25 -6l-2 -6 l2 -7l13 -6l14 11l55 -2l41 -13l19 -10l34 -2l9 -8h26l15 -15h20q35 0 76 -30h51l16 -39l41 -19l19 -24l41 -17l10 -22l33 -33l45 -35l14 -45q20 -14 35 -33q6 -10 14 -26l25 -15v-38q0 -6 14 -27t21 -37l14 -39v-51l-2 -14l2 -35l-16 -25l4 -37l-27 -36l-16 -48l-31 -14 l-10 -20l-27 -9l-43 -45l-8 2l-21 -32l-26 6l-23 -13l-26 5q-23 -10 -52 -13l-12 -4l-6 -22l-76 -4l-22 -11l-58 -8l-26 -12l-35 8l-21 -4l-28 4q-14 -6 -23 -6q-43 2 -69 45l4 35l6 12q25 66 78 66q18 6 37 6q29 0 55 -13l12 -8h29l59 13h12q35 0 52 14q20 23 59 27l16 4 l15 10l47 20h14q8 16 17 25q2 35 28 63l-10 60l14 37v14l-36 63l-7 29l-28 31l-6 12l-7 -2l-24 45l-31 27v16q-14 18 -43 51l-31 11l-12 16q-14 12 -37 33q-8 4 -45 8l-22 16l-19 4l-14 15h-23l-16 12l-43 10q-25 -8 -39 -8q-16 0 -41 10l-29 17l-12 2q-2 -6 -12 -27l-4 -4 l16 -12l-10 -47l-16 -43l8 -43q-6 -25 -6 -41v-17q0 -4 2 -8v-6q0 -14 -7 -27l-2 -14l5 -59l-7 -25l9 -22l-11 -25l2 -23l7 -43l-7 -69l7 -15l-7 -55l21 -41l-4 -43l6 -16q0 -31 -19 -53l-4 6l-6 -33l-20 -29q-70 6 -98.5 46t-28.5 130q0 10 2 31v35v63h8q-2 6 -8 19l20 14 q0 23 -10 25q-2 6 -2 16q0 29 12 47l4 4v19l-12 45l21 47l-2 8l-17 47l12 21l-20 51l25 41l-3 51l7 41v31l-9 -13l-20 5l-23 -27l-55 -4q-49 -43 -100 -49l-17 -19l-100 -18l-47 10h-10q-8 -2 -11 -2q-55 0 -67 66zM420 1075q61 20 80 76q31 16 35 84l28 47l2 33l21 26 l-11 21l13 33l-8 35l10 24v14q-2 10 -2 15q0 6 2 14v12q-10 14 -19 33l-20 8l-14 -37l-17 -18v-25l-22 -24v-25l-21 -14l-12 -39l-6 -12l6 -10l-16 -39q-2 -8 -7.5 -27.5t-7.5 -30.5q-12 -104 -12 -88v-55z" />
<glyph unicode="&#xe0;" horiz-adv-x="1054" d="M72 205l12 28l4 43l14 68v8q-2 4 -2 8q0 8 4 21q-2 4 -2 16q0 14 13 47l14 7q-12 10 -12 22q0 8 2 12q-2 6 -2 15q0 25 24 37q6 20 23 41l-10 16l24 31v8q0 39 27 72l-2 36l8 9v6q-2 4 -2 6q0 12 8 20v13q8 20 43 61t51 72l11 -10l22 10l10 4l68 31l158 -9v-14l49 -10 q47 0 61 -31q0 6 2 14v9l43 -39l39 -9l74 19l26 -51l31 -13l-20 -26l16 -49l-27 -31l-10 -43l-6 -10l4 -11q0 -29 -14 -43l-4 -6v-8q6 -14 6 -27q0 -10 -2 -14l2 -8l-8 -23l6 -24l-17 -17l7 -28l12 -15l-19 -16v-33l-14 -32l10 -33l-12 -17l21 -14l-29 -47l-2 -6l20 -4 l-14 -47v-9q0 -14 -2 -22l2 -6l33 -4l26 -41l-14 -31l23 2q12 -25 14 -43l-31 -31q-14 -14 -41 -28l-35 -19l-10 10l-20 -12l-64 74v35q-12 41 -12 75v13l-12 121l16 86l-12 49l-35 -58l-19 -53l-16 -8l-29 -45l-51 -47l-14 -25l-45 -39l-10 -26l-66 -41l-70 -78l-38 -8 l-27 -21q-51 2 -78 39q-92 45 -96 129l10 6l-2 13l-2 24zM213 186l4 -39v-6l8 -4l11 2q10 10 20 19l-4 16l29 4l6 15l121 98l12 4l14 35q12 4 35 16l12 33h17l-6 35l28 4q4 8 13.5 20.5t19.5 22.5l104 139l17 31l-2 8l14 23l4 22l19 16l2 23l-9 14l-16 4l-63 52l-41 6h-33 l-4 4l-17 -6l-18 10h-53l6 -8l-47 -17l-8 -10l-7 -2q-37 -31 -51 -51l-14 -49l-8 -19l20 -28l-35 -27l4 -8q-23 -39 -22 -76l-16 -20v-37l-17 -19l-4 -18l-6 -4v-29l-6 -10q0 -25 -4 -39l4 -10l-19 -39l9 -13l-15 -20l15 -39zM248 1300l14 17l19 31l32 10l29 28l45 -20 l29 -8l22 -31l41 -43l21 -37l22 -16l13 -25l26 -10l15 -20l28 -13l8 -10q16 -8 31 -25l6 -4q27 -12 33 -26l23 -45l-33 -47l-70 18l-14 10q-6 6 -17 15q-35 4 -43 20q-4 0 -19 3t-28 3l-18 25q-14 10 -21 22q-14 4 -36 25q-33 12 -48 37l-20 20q-20 4 -43 37l-2 6l-41 10z " />
<glyph unicode="&#xe1;" horiz-adv-x="1054" d="M72 205l12 28l4 43l14 68v8q-2 4 -2 8q0 8 4 21q-2 4 -2 16q0 14 13 47l14 7q-12 10 -12 22q0 8 2 12q-2 6 -2 15q0 25 24 37q6 20 23 41l-10 16l24 31v8q0 39 27 72l-2 36l8 9v6q-2 4 -2 6q0 12 8 20v13q8 20 43 61t51 72l11 -10l22 10l10 4l68 31l158 -9v-14l49 -10 q47 0 61 -31q0 6 2 14v9l43 -39l39 -9l74 19l26 -51l31 -13l-20 -26l16 -49l-27 -31l-10 -43l-6 -10l4 -11q0 -29 -14 -43l-4 -6v-8q6 -14 6 -27q0 -10 -2 -14l2 -8l-8 -23l6 -24l-17 -17l7 -28l12 -15l-19 -16v-33l-14 -32l10 -33l-12 -17l21 -14l-29 -47l-2 -6l20 -4 l-14 -47v-9q0 -14 -2 -22l2 -6l33 -4l26 -41l-14 -31l23 2q12 -25 14 -43l-31 -31q-14 -14 -41 -28l-35 -19l-10 10l-20 -12l-64 74v35q-12 41 -12 75v13l-12 121l16 86l-12 49l-35 -58l-19 -53l-16 -8l-29 -45l-51 -47l-14 -25l-45 -39l-10 -26l-66 -41l-70 -78l-38 -8 l-27 -21q-51 2 -78 39q-92 45 -96 129l10 6l-2 13l-2 24zM213 186l4 -39v-6l8 -4l11 2q10 10 20 19l-4 16l29 4l6 15l121 98l12 4l14 35q12 4 35 16l12 33h17l-6 35l28 4q4 8 13.5 20.5t19.5 22.5l104 139l17 31l-2 8l14 23l4 22l19 16l2 23l-9 14l-16 4l-63 52l-41 6h-33 l-4 4l-17 -6l-18 10h-53l6 -8l-47 -17l-8 -10l-7 -2q-37 -31 -51 -51l-14 -49l-8 -19l20 -28l-35 -27l4 -8q-23 -39 -22 -76l-16 -20v-37l-17 -19l-4 -18l-6 -4v-29l-6 -10q0 -25 -4 -39l4 -10l-19 -39l9 -13l-15 -20l15 -39zM395 1036l29 56l10 34l47 21l29 43l14 2l11 14 v21l26 26l23 -14q25 29 33 45q37 20 38 31q6 27 39 41l31 28l43 5l19 -5q67 -14 73 -57l-10 -24l-10 -50h-8q-47 0 -68 -43l-18 13l-68 -56h-6l-17 -18l5 -12l-37 -13v-12l-31 -10l-12 -17l-9 -24l-10 -4v-13l-37 -12l-53 -45z" />
<glyph unicode="&#xe2;" horiz-adv-x="1054" d="M72 205l12 28l4 43l14 68v8q-2 4 -2 8q0 8 4 21q-2 4 -2 16q0 14 13 47l14 7q-12 10 -12 22q0 8 2 12q-2 6 -2 15q0 25 24 37q6 20 23 41l-10 16l24 31v8q0 39 27 72l-2 36l8 9v6q-2 4 -2 6q0 12 8 20v13q8 20 43 61t51 72l11 -10l22 10l10 4l68 31l158 -9v-14l49 -10 q47 0 61 -31q0 6 2 14v9l43 -39l39 -9l74 19l26 -51l31 -13l-20 -26l16 -49l-27 -31l-10 -43l-6 -10l4 -11q0 -29 -14 -43l-4 -6v-8q6 -14 6 -27q0 -10 -2 -14l2 -8l-8 -23l6 -24l-17 -17l7 -28l12 -15l-19 -16v-33l-14 -32l10 -33l-12 -17l21 -14l-29 -47l-2 -6l20 -4 l-14 -47v-9q0 -14 -2 -22l2 -6l33 -4l26 -41l-14 -31l23 2q12 -25 14 -43l-31 -31q-14 -14 -41 -28l-35 -19l-10 10l-20 -12l-64 74v35q-12 41 -12 75v13l-12 121l16 86l-12 49l-35 -58l-19 -53l-16 -8l-29 -45l-51 -47l-14 -25l-45 -39l-10 -26l-66 -41l-70 -78l-38 -8 l-27 -21q-51 2 -78 39q-92 45 -96 129l10 6l-2 13l-2 24zM197 1036q0 51 43 70l4 12h6v6l10 2l17 9q23 37 73 77l4 11l13 4l4 6l24 20q37 16 37 21q-2 2 -10 2q0 20 35 33q8 6 14 28q8 6 31 47l18 -4q18 14 45 15h9l36 -4l25 -45l35 -41l4 -9l20 -12l7 -24l20 -17 q2 -12 16 -29q16 -4 23 -18l41 -33v-22l16 -8l15 -15l30 -10l54 -53l-39 -33l-41 -14l-70 10q-45 23 -78 65q-35 6 -47 35l-12 8l-27 27l-33 18v19l-24 24l2 7l-6 10l-10 -21l-17 -4v-6l-8 -4v-6l-41 -31v-16l-33 -10l-8 -15l-10 -6l-6 -6l-29 -16l6 2q-10 -10 -20 -17 l-13 -4l-22 -29l-21 -14l-37 -43zM213 186l4 -39v-6l8 -4l11 2q10 10 20 19l-4 16l29 4l6 15l121 98l12 4l14 35q12 4 35 16l12 33h17l-6 35l28 4q4 8 13.5 20.5t19.5 22.5l104 139l17 31l-2 8l14 23l4 22l19 16l2 23l-9 14l-16 4l-63 52l-41 6h-33l-4 4l-17 -6l-18 10h-53 l6 -8l-47 -17l-8 -10l-7 -2q-37 -31 -51 -51l-14 -49l-8 -19l20 -28l-35 -27l4 -8q-23 -39 -22 -76l-16 -20v-37l-17 -19l-4 -18l-6 -4v-29l-6 -10q0 -25 -4 -39l4 -10l-19 -39l9 -13l-15 -20l15 -39z" />
<glyph unicode="&#xe3;" horiz-adv-x="1054" d="M72 205l12 28l4 43l14 68v8q-2 4 -2 8q0 8 4 21q-2 4 -2 16q0 14 13 47l14 7q-12 10 -12 22q0 8 2 12q-2 6 -2 15q0 25 24 37q6 20 23 41l-10 16l24 31v8q0 39 27 72l-2 36l8 9v6q-2 4 -2 6q0 12 8 20v13q8 20 43 61t51 72l11 -10l22 10l10 4l68 31l158 -9v-14l49 -10 q47 0 61 -31q0 6 2 14v9l43 -39l39 -9l74 19l26 -51l31 -13l-20 -26l16 -49l-27 -31l-10 -43l-6 -10l4 -11q0 -29 -14 -43l-4 -6v-8q6 -14 6 -27q0 -10 -2 -14l2 -8l-8 -23l6 -24l-17 -17l7 -28l12 -15l-19 -16v-33l-14 -32l10 -33l-12 -17l21 -14l-29 -47l-2 -6l20 -4 l-14 -47v-9q0 -14 -2 -22l2 -6l33 -4l26 -41l-14 -31l23 2q12 -25 14 -43l-31 -31q-14 -14 -41 -28l-35 -19l-10 10l-20 -12l-64 74v35q-12 41 -12 75v13l-12 121l16 86l-12 49l-35 -58l-19 -53l-16 -8l-29 -45l-51 -47l-14 -25l-45 -39l-10 -26l-66 -41l-70 -78l-38 -8 l-27 -21q-51 2 -78 39q-92 45 -96 129l10 6l-2 13l-2 24zM213 186l4 -39v-6l8 -4l11 2q10 10 20 19l-4 16l29 4l6 15l121 98l12 4l14 35q12 4 35 16l12 33h17l-6 35l28 4q4 8 13.5 20.5t19.5 22.5l104 139l17 31l-2 8l14 23l4 22l19 16l2 23l-9 14l-16 4l-63 52l-41 6h-33 l-4 4l-17 -6l-18 10h-53l6 -8l-47 -17l-8 -10l-7 -2q-37 -31 -51 -51l-14 -49l-8 -19l20 -28l-35 -27l4 -8q-23 -39 -22 -76l-16 -20v-37l-17 -19l-4 -18l-6 -4v-29l-6 -10q0 -25 -4 -39l4 -10l-19 -39l9 -13l-15 -20l15 -39zM215 1100q0 29 45 55l27 29l22 10q12 14 45 35 l15 2q27 10 49 37l45 8l22 -4l9 2q23 -31 53 -39l24 -14l31 -41l37 -19l4 -10l62 10l8 33v27l20 36q14 25 54 25q29 0 60.5 -27.5t35.5 -64.5q-4 -25 -10 -31v-10q0 -12 -9 -23l-37 -26l-40 -8l-13 -15l-12 -16l-51 -14l-62 -11l-84 31q-8 8 -8 10v2l-55 31l-2 29l-15 -6v24 q-12 6 -30 6l-45 -28q-18 -12 -33 -33q-18 -29 -27 -37q-25 -25 -65 -25l-37 4q-33 37 -33 56z" />
<glyph unicode="&#xe4;" horiz-adv-x="1054" d="M72 205l12 28l4 43l14 68v8q-2 4 -2 8q0 8 4 21q-2 4 -2 16q0 14 13 47l14 7q-12 10 -12 22q0 8 2 12q-2 6 -2 15q0 25 24 37q6 20 23 41l-10 16l24 31v8q0 39 27 72l-2 36l8 9v6q-2 4 -2 6q0 12 8 20v13q8 20 43 61t51 72l11 -10l22 10l10 4l68 31l158 -9v-14l49 -10 q47 0 61 -31q0 6 2 14v9l43 -39l39 -9l74 19l26 -51l31 -13l-20 -26l16 -49l-27 -31l-10 -43l-6 -10l4 -11q0 -29 -14 -43l-4 -6v-8q6 -14 6 -27q0 -10 -2 -14l2 -8l-8 -23l6 -24l-17 -17l7 -28l12 -15l-19 -16v-33l-14 -32l10 -33l-12 -17l21 -14l-29 -47l-2 -6l20 -4 l-14 -47v-9q0 -14 -2 -22l2 -6l33 -4l26 -41l-14 -31l23 2q12 -25 14 -43l-31 -31q-14 -14 -41 -28l-35 -19l-10 10l-20 -12l-64 74v35q-12 41 -12 75v13l-12 121l16 86l-12 49l-35 -58l-19 -53l-16 -8l-29 -45l-51 -47l-14 -25l-45 -39l-10 -26l-66 -41l-70 -78l-38 -8 l-27 -21q-51 2 -78 39q-92 45 -96 129l10 6l-2 13l-2 24zM213 186l4 -39v-6l8 -4l11 2q10 10 20 19l-4 16l29 4l6 15l121 98l12 4l14 35q12 4 35 16l12 33h17l-6 35l28 4q4 8 13.5 20.5t19.5 22.5l104 139l17 31l-2 8l14 23l4 22l19 16l2 23l-9 14l-16 4l-63 52l-41 6h-33 l-4 4l-17 -6l-18 10h-53l6 -8l-47 -17l-8 -10l-7 -2q-37 -31 -51 -51l-14 -49l-8 -19l20 -28l-35 -27l4 -8q-23 -39 -22 -76l-16 -20v-37l-17 -19l-4 -18l-6 -4v-29l-6 -10q0 -25 -4 -39l4 -10l-19 -39l9 -13l-15 -20l15 -39zM266 1147l11 33q16 35 49 49l8 8q8 8 27 23 l32 -13l17 6l12 -12q18 0 33 -20l28 -15l29 -59l-12 -8l6 -23l-12 -6v-14l-29 -13l-25 -28l-34 -2l-19 -4l4 2q-18 -6 -30 -7q-20 0 -31 19q-4 0 -15 10l-14 8q4 4 4 6v5h-8l-8 4l-12 16l6 12zM594 1157l12 12l-4 11l25 24v4q4 4 12 13l21 12q10 16 34 16q14 0 25 -4l10 -6 h37l25 -29l26 -12v-14l15 -8l-7 -23l11 -8l-27 -58l-14 -4l-2 -8l-17 -8q-10 -14 -16 -14h-4l-29 -15l-8 9l-37 -13q-8 18 -42 37t-38 41z" />
<glyph unicode="&#xe5;" horiz-adv-x="1054" d="M72 205l12 28l4 43l14 68v8q-2 4 -2 8q0 8 4 21q-2 4 -2 16q0 14 13 47l14 7q-12 10 -12 22q0 8 2 12q-2 6 -2 15q0 25 24 37q6 20 23 41l-10 16l24 31v8q0 39 27 72l-2 36l8 9v6q-2 4 -2 6q0 12 8 20v13q8 20 43 61t51 72l11 -10l22 10l10 4l68 31l158 -9v-14l49 -10 q47 0 61 -31q0 6 2 14v9l43 -39l39 -9l74 19l26 -51l31 -13l-20 -26l16 -49l-27 -31l-10 -43l-6 -10l4 -11q0 -29 -14 -43l-4 -6v-8q6 -14 6 -27q0 -10 -2 -14l2 -8l-8 -23l6 -24l-17 -17l7 -28l12 -15l-19 -16v-33l-14 -32l10 -33l-12 -17l21 -14l-29 -47l-2 -6l20 -4 l-14 -47v-9q0 -14 -2 -22l2 -6l33 -4l26 -41l-14 -31l23 2q12 -25 14 -43l-31 -31q-14 -14 -41 -28l-35 -19l-10 10l-20 -12l-64 74v35q-12 41 -12 75v13l-12 121l16 86l-12 49l-35 -58l-19 -53l-16 -8l-29 -45l-51 -47l-14 -25l-45 -39l-10 -26l-66 -41l-70 -78l-38 -8 l-27 -21q-51 2 -78 39q-92 45 -96 129l10 6l-2 13l-2 24zM213 186l4 -39v-6l8 -4l11 2q10 10 20 19l-4 16l29 4l6 15l121 98l12 4l14 35q12 4 35 16l12 33h17l-6 35l28 4q4 8 13.5 20.5t19.5 22.5l104 139l17 31l-2 8l14 23l4 22l19 16l2 23l-9 14l-16 4l-63 52l-41 6h-33 l-4 4l-17 -6l-18 10h-53l6 -8l-47 -17l-8 -10l-7 -2q-37 -31 -51 -51l-14 -49l-8 -19l20 -28l-35 -27l4 -8q-23 -39 -22 -76l-16 -20v-37l-17 -19l-4 -18l-6 -4v-29l-6 -10q0 -25 -4 -39l4 -10l-19 -39l9 -13l-15 -20l15 -39zM342 1182l10 80v14l4 8l15 8q6 45 41 51 q14 10 33 15l20 20l43 11l25 -3h12q18 0 33 -8h10q-18 0 80 -26l26 -33l47 -43l7 -33q12 -26 12 -53q0 -55 -98 -117l-11 -2q-25 -31 -65 -31h-6q-49 -12 -58 -12q-10 0 -22 12q-14 -6 -33 -6q-16 0 -35 6l-55 19q-2 29 -21 55q-8 12 -8 35v10l4 -4zM463 1188l2 -45l10 -10 l31 6l22 -9h21l45 27l20 -4h7l6 10l-10 27l12 10q-14 47 -15 45l-2 10q-25 14 -38 31q-4 -2 -15 -2q-16 0 -35 -22l-2 -17l-43 -10l-10 -14z" />
<glyph unicode="&#xe6;" horiz-adv-x="1718" d="M66 610q8 76 63 125l6 4l6 15l23 28q6 12 61 43q35 47 56 58l34 10l29 31l12 6l17 26l35 7l20 22h-4q12 2 68 19l30 28l25 -6l63 14l52 -12l55 6l12 -35l55 -26l23 -51l14 -17l31 -22v-17l18 -35l17 -38q6 -14 6 -25q0 -12 -2 -18l16 -27v-27q8 10 21 39l37 58l32 34 l23 17l39 55l24 16q16 12 37 19l25 6l16 8q20 10 66 17l47 -7l43 -24l10 -31l19 -16l28 -78l-14 -18l2 -11v-18l-10 -39l-15 -21l6 -34l-24 -21l6 -29l-20 -20l-7 -43l-16 -4l-14 -33q-35 -25 -43 -63l-29 -13l-6 -20l-41 -19l-16 -30l-52 -15l-20 -18l-74 -21l-35 -4 l-20 -4l-10 -4l2 -26q10 -16 14 -39l2 -11l31 -22l39 -16l4 -15l10 -2l39 -24l41 -9l26 -14l64 -8q10 4 29 4q20 0 28 -4l4 -2q18 6 52 14l6 14l51 11l51 35l21 8l20 30h6q35 0 64 41l14 29l33 39l6 37l10 4q31 98 90 98q47 0 47 -53v-23l-2 -14q-4 -25 -30 -82l-8 -2 q-10 -12 -17 -35l-29 -45l-41 -53l-38 -29l-21 -34l-35 -27q-23 -29 -57 -39l-27 -8l-22 -15l-31 -8l-31 -16l-39 -12l-22 -13l-8 -4l-6 -2q-6 -2 -27 -2q-23 0 -57 8q-20 2 -43 11l6 8l-35 -8l-59 22l-11 8q-10 2 -71 19l-19 20l-14 8q-37 10 -49 43l-13 7q-37 -37 -86 -64 l19 -4l-35 -18l-29 4q-47 -20 -86 -31l6 2q-20 -6 -65 -14q-6 8 -6 24l-47 -31h-23q-31 0 -65 -6l-70 11l-8 4l-47 -2l-27 18l-18 -2q-39 14 -56 39q-49 29 -114 102l-17 90l-2 66l19 59l8 33l16 41l31 29q10 16 35 26q23 27 49 41l41 15l18 2q35 16 64 24l8 2q49 12 106 13 q49 0 134 -23l14 -12q45 -18 68 -35l45 -45l20 -8l4 53l-24 41l20 20l-6 56h8l2 26l-10 33l4 27l-18 37v16l-9 4l-22 55l-37 19q-8 14 -25 39l-10 -4l-4 -11q-14 -2 -31 -2l-20 2l-51 -26l-13 6l-10 -10q-2 -2 -12 -11.5t-17 -15.5l-51 -6l-16 -23l-19 -2q-23 -20 -51 -32 q-2 -12 -26 -31q-33 -25 -50 -43l-12 -4l-6 -31l-37 -37l4 -22q-45 -76 -90 -76q-33 14 -59 47zM227 244q16 -66 78 -99l60 -12l38 -24q25 4 39 4q20 0 45 -7l68 29l25 -20q59 2 129 39l6 6q29 29 55 30v7l6 8q-2 10 -2 22l-12 25l-4 45v22l-25 13l-63 39l-13 18l-24 10 l-15 11l-18 -4l-29 28q-12 -2 -32 -2q-23 0 -37 8h-15q-31 0 -53 -10q-18 0 -28 -16h-31l-17 -6q-10 -2 -24 -2l-2 -7l-31 -14l8 -2q-12 -14 -26 -21l-25 -61l-18 -8l-4 -8zM932 444l4 -2q14 6 96 31v4q0 29 58 47l22 21l21 30l24 35l4 45l29 35l4 33l10 41q0 14 8 43h-6 q-8 -10 -22 -10q-2 0 -8 2h-9q-12 0 -20 -11q-51 -37 -62 -53v-35l-41 -24l-12 -51l-53 -23l-6 -10l6 -29l-14 -18v-27l-31 -26z" />
<glyph unicode="&#xe7;" horiz-adv-x="882" d="M68 283l10 28l-6 17l24 37l-6 32l14 58l13 12l4 47l6 43l31 23l32 102l39 35l-2 8l21 33l4 22l31 37q29 8 30 8q18 47 103 47l45 -8q33 -6 57 -33q20 -2 33 -20l43 -4l31 -39q10 -23 12 -39l16 -18l-4 -35q2 -12 2 -31v-10q10 -35 11 -43l-33 -60l-68 -22l-61 49l-4 70 l-11 22l-2 19l-22 24l-12 8l-13 -4l-28 -2q-29 -6 -52 -39q-47 -68 -51 -71l-4 -19l-8 -14v-37l-27 -31l-6 -22q-14 -27 -27 -70l3 -26l-19 -37l8 -51l-12 -5l-4 -55l2 -10l22 -25l13 -45l28 -10l2 -16l60 -13q12 10 39 11h12q25 10 35 10q12 -2 10 -2q14 10 37 14 q20 33 61 33h15q20 10 22 12q27 37 70 47l29 27q29 23 36 55q29 16 37 55l11 7l8 43q35 -2 57 -11q37 -16 37 -79v-19l-39 -37l-4 -33q-12 -31 -35 -45q-51 -94 -135 -135l-33 -26l-24 -4l-37 -23l-19 -2l-47 -33h-39l-53 -14l-22 6l-29 -49l35 2h8q33 0 51 -27l27 -6 l12 -18l23 -11l36 -77l-14 -78l-4 -53l-45 -37l-10 -13l-31 -6l-25 -24q-49 6 -63 6q-20 -10 -37 -10q-12 0 -31 6l-73 12l-52 37l-14 33l12 51l49 12q6 -8 15 -16l31 -4q18 0 32 -9l15 -8q10 2 24 2l4 6l33 -2q8 0 21 5l10 24l14 14v7l-10 8q0 23 4 37h-8l-49 14l-39 -8 l-6 4l-43 -21l-33 9v2q0 4 -10 14l-35 2l-15 35l21 51l24 25l3 12l36 27v18l7 8h-7l-59 49q-53 55 -66 101v14l-22 37l2 22q-6 29 -6 50v10z" />
<glyph unicode="&#xe8;" horiz-adv-x="772" d="M61 174l5 74l8 33v43l10 32l-2 15l14 24l-4 -4q0 18 10 39v10l-6 49q0 35 31 62q2 4 2 12t-7 34t-7 36q0 25 12 51q16 -25 47 -25h6q4 8 19 19q16 51 45 86l8 8q0 8 12 47h17l4 10l16 5q10 16 13 19t44 26q8 14 25 26q8 4 20 8l9 13q55 18 69 18q16 0 31 -8l10 2l15 -8 q25 -18 49 -31l35 -27v-8q47 -37 47 -104l-6 -21l6 -67l-19 -13l-20 -53l-39 -43l-2 -33q-66 -47 -121 -75q-18 -29 -57 -29h-7l-38 -25h-33l-49 -20l-37 18h-4q-4 -16 -9 -49l-16 -12l-2 -25l-12 -34q6 -49 6 -64l-8 -6q0 -27 -2 -39q0 -2 -2 -6v-6q0 -16 16 -27 q6 -25 20 -31l15 -12l45 -12v-6l16 -4l70 -5l41 7l20 14l13 4l20 31l10 2l52 16q8 14 26 25l6 10q41 8 47 43q29 29 74 29h8q39 -45 39 -74q0 -25 -37 -62q-10 -33 -30 -53l-13 -2l-22 -39l-37 -6l-39 -24l-20 -37l-23 4q-23 -10 -37 -12l-12 -19q-6 2 -19 2q-27 0 -51 -37 l-28 25q-8 -2 -25 -2q-27 0 -45 8h-35l-16 10q-78 12 -99 60v6l-24 12l-12 35l-25 16v31zM170 1300l14 17l19 31l32 10l29 28l45 -20l29 -8l22 -31l41 -43l21 -37l22 -16l13 -25l26 -10l15 -20l28 -13l8 -10q16 -8 31 -25l6 -4q27 -12 33 -26l23 -45l-33 -47l-70 18l-14 10 q-6 6 -17 15q-35 4 -43 20q-4 0 -19 3t-28 3l-18 25q-14 10 -21 22q-14 4 -36 25q-33 12 -48 37l-20 20q-20 4 -43 37l-2 6l-41 10zM289 557q23 14 51 14l14 7l6 18l29 -2l17 24h12l22 -8l11 31h14v23l27 6l6 6l4 18l26 39q4 11 4 25q0 6 -6 24l-10 2l-4 -2h-8q-4 -2 -8 -2 q-2 0 -7 2h-6l-20 -14l-19 -2l-10 -4l-35 -45l-22 -17l-33 -57l-18 -12q-6 -35 -29 -60z" />
</font>
</defs>
</svg>
